<svg xmlns="http://www.w3.org/2000/svg" data-name="Layer 1" viewBox="0 0 128 160" x="0px" y="0px"><title>miscellaneous 407 final</title><path d="M32.19739,98.18005a2.71567,2.71567,0,0,1-.753.23193c-1.6192.353-2.44049,1.17145-2.44049,2.43274l-.002.17578c-.05273,3.18866.97656,5.13556,3.05774,5.78644.30664.0957.57324.16357.80859.22272l.04395.01074a23.72673,23.72673,0,0,1,.40826,2.37805,4.31419,4.31419,0,0,0,1.50787,3.09924,3.58822,3.58822,0,0,0,2.98743.335,3.603,3.603,0,0,1,3.56165.8335A9.33346,9.33346,0,0,0,47.031,115.993a4.69839,4.69839,0,0,0,2.0567-.43066,2.84883,2.84883,0,0,0,1.72076-2.53333,2.543,2.543,0,0,0-1.47565-2.27258c-.55371-.269-.79687-.5401-1.56744-2.72675a1.21615,1.21615,0,0,1,.0752-.98877,1.35609,1.35609,0,0,1,.54987-.59137c3.18665.09375,4.25507-2.05579,4.88007-5.57745.00586-.03418.01172-.06592.01758-.0957.91608.05713,3.46893.14844,4.25995-3.35077.23047-1.01617.44434-1.11237.83307-1.28668,1.70123-.76178,2.24908-2.11389,1.63092-4.01776-1.0401-3.2121-3.83807-2.634-4.89185-2.41815a3.36783,3.36783,0,0,1-1.02637.12311c-.45416-.16364-.92291-.33209-.8194-2.05579a8.332,8.332,0,0,1,.98151-.19336,3.47518,3.47518,0,0,0,2.66614-1.316,2.30257,2.30257,0,0,0,.3457-1.55182,2.91018,2.91018,0,0,1,1.17291-.42187,3.77334,3.77334,0,0,0,2.9884-2.39417,4.7658,4.7658,0,0,0-.291-3.83032,5.86079,5.86079,0,0,0,1.11035-2.41223,3.18459,3.18459,0,0,0-1.86725-3.80487,2.37014,2.37014,0,0,1-1.36334-1.6759c-.20605-.624.002-.8877.07031-.97412a.9331.9331,0,0,1,.30762-.25055c.62213,1.89124,2.29114,2.67987,4.98169,2.33752.085-.01074.167-.02246.24414-.03271a3.41032,3.41032,0,0,0,2.41125.32428,5.24685,5.24685,0,0,0,3.74622-3.6037c.88287-2.57977-.79-3.93384-1.68854-4.66089a6.43185,6.43185,0,0,1-.92-.84528c1.56158,1.43658,4.35077,1.11481,5.43774.9903,1.26471-.14453,7.10187-1.21783,10.47406-3.4787,2.69348-1.80676,5.38013-5.13654,5.21118-7.582a2.85537,2.85537,0,0,0-1.61627-2.44055l-.03223-.01611c.05176-.13086.11816-.28955.20117-.48248a2.88907,2.88907,0,0,0-.041-2.52161c-.75885-1.45123-2.4679-1.79889-4.1203-2.13489a13.01342,13.01342,0,0,1-1.82233-.45654c.167-.18359.35059-.37744.50879-.54541,1.60748-1.69983.89948-3.86548.51855-5.02911l-.01074-.03223c1.59186-1.272,1.5733-3.80731,1.55573-5.74884A3.999,3.999,0,0,0,87.91162,30.591c1.14655-2.18127,2.17584-2.80432,4.45526-2.66663a4.9075,4.9075,0,0,0,3.797-1.47571c2.297-2.25983,2.96106-6.5047,2.8175-9.72412-.11914-2.65637-.98828-4.468-2.586-5.38312a4.87549,4.87549,0,0,0-4.70728.1001c-1.5733.82916-1.85358,2.50458-2.0401,3.613-.03809.22656-.08887.53271-.14355.752a4.76024,4.76024,0,0,0-3.47577,2.7038,7.87147,7.87147,0,0,0-3.05188-.28864,3.53254,3.53254,0,0,0-.1543-.94928c.31158-.30176.88385-.75488,1.3653-1.13672l.08984-.07135c1.98157-1.57233,2.05969-3.024,1.77551-3.96454C85.6156,10.652,84.1673,9.814,81.74829,9.60944a3.00341,3.00341,0,0,1-1.87805-.879A4.34766,4.34766,0,0,0,75.71185,7.6098c-1.66412.44092-2.11041.56061-4.04407-1.9801-2.90735-3.819-4.73169-4.469-8.38123-2.88049a8.33664,8.33664,0,0,1-.57422-.7652A3.67682,3.67682,0,0,0,60.012.00293a2.71617,2.71617,0,0,0-2.214,1.01324c-.11719-.03613-.25879-.085-.375-.125A8.40731,8.40731,0,0,0,54.35748.33746c-2.71692.06934-3.76385,1.42389-4.14471,2.22571A3.7018,3.7018,0,0,0,50.77429,6.453a1.8333,1.8333,0,0,1,.29791.53229c-.002.00439-.25787.45605-1.77747.89258-4.22766,1.21393-4.09,4.302-4.01575,5.9613a5.12256,5.12256,0,0,1-.10254,1.74762,5.97909,5.97909,0,0,0-.05566,3.47626c.03711.16357.085.37549.10059.502a3.49566,3.49566,0,0,1-.836.57965c-2.95715,1.62946-3.25891,3.4118-3.15833,4.94312-1.09479,1.39319-.61816,3.30829.39063,4.95392a18.58054,18.58054,0,0,0-1.30377,5.29175,11.99543,11.99543,0,0,0,.668,4.09985c.54492,1.91119.83008,3.132.19629,3.968a6.473,6.473,0,0,0-.9903,5.30743c.03027.19141.06738.42578.08691.61133-4.22577,1.78235-3.84973,5.326-3.16028,8.51709a3.54285,3.54285,0,0,1-.55762,3.48114,30.76366,30.76366,0,0,0-1.5694,3.10217,7.65353,7.65353,0,0,0,.10449,6.40515c.0752.18994.16895.42676.22656.60309-2.11243,1.52838-2.41321,3.39032-.89362,5.533.084.11865.20117.28424.26758.39655-.40332,2.31018.1778,3.1955,1.56555,4.61694l.12207.125c.38281.39355.45117.46436-.01074,1.92688a7.68108,7.68108,0,0,1-.4483,1.08057,4.934,4.934,0,0,0-.52539,3.54565c.44727,2.08942-.123,2.87952-1.11823,3.423-3.08411,1.68317-2.47174,3.85077-2.1778,4.89233a2.04125,2.04125,0,0,1,.13086,1.1026A.98715.98715,0,0,1,32.19739,98.18005Zm3.92786.80573a5.8198,5.8198,0,0,0-.17578-3.10468c-.01172-.043-.02539-.08545-.03711-.12646.07031-.04639.16309-.10254.28223-.16748,1.95129-1.066,4.07538-3.27948,3.11249-7.77142-.07715-.35791-.07129-.36969.2207-.9776a11.46129,11.46129,0,0,0,.65625-1.605c.49908-1.5802,1.18268-3.74438-.9375-5.92322l-.126-.12939c-.21289-.21777-.44922-.46-.56055-.59668a5.20145,5.20145,0,0,1,.09473-.65631,4.15212,4.15212,0,0,0-.96484-3.277c2.49518-1.82623,1.56842-4.16864,1.12207-5.29614a3.72959,3.72959,0,0,1-.1543-3.341,26.8442,26.8442,0,0,1,1.3819-2.7287,7.29607,7.29607,0,0,0,.98541-6.29376c-.72955-3.37372-.252-3.56464.90137-4.02509,2.80579-1.11969,2.4054-3.65942,2.213-4.88019-.16895-1.07086-.23535-1.65778.22656-2.26721,1.88678-2.48792,1.09772-5.25708.46387-7.48181a9.20446,9.20446,0,0,1-.52539-2.72382,15.78666,15.78666,0,0,1,1.38873-4.92358,1.99922,1.99922,0,0,0-.23242-2.12415,6.1588,6.1588,0,0,1-.795-1.34674,3.47073,3.47073,0,0,0,.55377-2.38586,3.30582,3.30582,0,0,1-.01367-.34277c.002-.00293.16211-.31891,1.10938-.84088,3.08026-1.69684,3.12225-3.62958,2.70813-5.46515a2.19481,2.19481,0,0,1-.06152-1.30084,8.43262,8.43262,0,0,0,.31348-3.22186c-.07129-1.59479-.07129-1.59479,1.12311-1.938,2.4386-.70026,3.94257-1.87122,4.47186-3.48114a4.41038,4.41038,0,0,0-.68164-3.88892c.0791-.00781.16895-.01367.27148-.01611a4.39882,4.39882,0,0,1,1.66412.338,4.06334,4.06334,0,0,0,3.54608-.06354c.80371,1.105,2.49323,3.028,5.07733,1.86633,1.89655-.85065,1.89459-.84723,3.73651,1.57477,3.02454,3.97192,5.07245,4.2688,8.25323,3.424.05371-.01416.08887-.02.09766-.02441a4.70568,4.70568,0,0,1,.51764.38727,6.92964,6.92964,0,0,0,3.66418,1.71246c-1.55182,1.27692-2.95911,2.75653-2.03912,4.87183a4.37519,4.37519,0,0,1-.545,1.3136A2.00036,2.00036,0,0,0,80.715,22.71411c1.56647-.48437,3.59094-.68213,4.08026-.40137a2.804,2.804,0,0,0,2.27936.51172,3.73912,3.73912,0,0,0,2.31262-2.12854,4.20873,4.20873,0,0,1,.61719-.91992c2.93469-.1582,3.39374-2.89276,3.58905-4.0603.043-.25635.10352-.6167.165-.83014a.94442.94442,0,0,1,.64844-.07373c.1377.07959.51178.60992.57819,2.09143.126,2.82684-.55768,5.64191-1.62708,6.69421a.916.916,0,0,1-.748.33447c-3.82928-.23389-6.37134,1.24518-8.23962,4.79712a1.49028,1.49028,0,0,1-.16992.26617c-.09668-.00244-.25781-.02246-.37207-.03711a2.98185,2.98185,0,0,0-2.45422.54883,2.8377,2.8377,0,0,0-.93457,2.171c-.0127.41162-.00977.86188-.00488,1.32526a11.98079,11.98079,0,0,1-.15137,2.6051,2.64714,2.64714,0,0,0-1.30475,1.21637,4.02911,4.02911,0,0,0,.10938,3.18622,6.15,6.15,0,0,1,.29492,1.12408c-1.13483,1.20123-2.09479,2.25647-1.91315,3.77124a3.84479,3.84479,0,0,0,1.963,2.66809,9.98044,9.98044,0,0,0,3.4552,1.1441c.26178.05322.58307.11865.87994.188-.51465,1.53082-.52344,2.98065,1.36237,4.19946a10.4581,10.4581,0,0,1-3.27649,3.54755c-2.505,1.67975-7.50714,2.69055-8.722,2.82922a6.89774,6.89774,0,0,1-2.13293.03809,3.18845,3.18845,0,0,0-2.27936-1.96588,4.30466,4.30466,0,0,0-4.15057,1.2149,3.98247,3.98247,0,0,0-.67389,4.14276,7.617,7.617,0,0,0,2.67883,3.506c.125.10156.28027.22656.39453.32867a1.65135,1.65135,0,0,1-.59277.83643,3.85092,3.85092,0,0,0-2.50012-.26953c-.21387.02686-.52539.06641-.75781.07422a3.39224,3.39224,0,0,0-2.37219-2.3844,4.684,4.684,0,0,0-4.49335,1.36383,4.87739,4.87739,0,0,0-1.03326,5.05646,6.24337,6.24337,0,0,0,2.99335,3.79315,2.57981,2.57981,0,0,1-.46881.67578,2.79805,2.79805,0,0,0-.2041,3.93774.94835.94835,0,0,1,.168.52344,5.75292,5.75292,0,0,0-3.94745,2.32288,3.57056,3.57056,0,0,0-.43652.99762c-1.34186.22412-3.78625.81207-4.01581,3.48749-.28516,3.342.86823,5.50421,3.42987,6.42712a4.68476,4.68476,0,0,0,2.17877.20752,6.19743,6.19743,0,0,0-1.26862,2.74573c-.02246.09766-.04492.17828-.06445.2442-.0332-.002-.06445-.00439-.09473-.00586-.87012-.06006-3.51672-.22321-4.15741,3.39276a8.20175,8.20175,0,0,1-.624,2.28186c-.06152-.00391-.126-.00146-.22266-.00586a4.618,4.618,0,0,0-3.716,1.98248,5.23314,5.23314,0,0,0-.77539,4.92706c.22559.63916.44141,1.22467.67578,1.75836-.26367-.16748-.54492-.36377-.84277-.59473a7.76212,7.76212,0,0,0-4.85083-1.83459,8.36009,8.36009,0,0,0-1.69049.18848l-.001-.00586c-.49512-3.58026-.80078-5.05981-3.4425-5.722-.1709-.04248-.36426-.09033-.56836-.14551-.06256-.063-.1817-.26074-.23932-.86871A4.20843,4.20843,0,0,0,36.12524,98.98578Z"/><path d="M64.45264,116.82459c-2.77942-.43994-4.33026-1.42584-4.37909-2.13049a2.72838,2.72838,0,0,0-1.64752-2.48792c-1.64752-.68024-3.48846.48779-4.74438,1.58746a2.00035,2.00035,0,0,0-.68262,1.505v9.6875a2.00006,2.00006,0,0,0,2.70129,1.87317c1.11725-.418,2.86731-.58649,3.19153-.19238A3.339,3.339,0,0,0,61.56091,128a6.18583,6.18583,0,0,0,2.64075-.75592,7.618,7.618,0,0,1,.74707-.33252,3.11514,3.11514,0,0,0,2.27942.09668c1.963-.66168,3.24426-3.17694,3.59-3.93237a1.9972,1.9972,0,0,0-.0498-1.76569A9.20331,9.20331,0,0,0,64.45264,116.82459Zm1.66022,6.23273a4.7218,4.7218,0,0,0-3.65741.588c-.18945.0918-.44434.21533-.6377.292a5.14063,5.14063,0,0,0-3.90546-1.48932,9.10923,9.10923,0,0,0-.91309.04736v-5.052c1.211,1.64606,3.56653,2.816,6.82837,3.33264a4.81975,4.81975,0,0,1,2.81067,1.59875A5.11485,5.11485,0,0,1,66.11285,123.05731Z"/></svg>