<svg xmlns:dc="http://purl.org/dc/elements/1.1/" xmlns:cc="http://creativecommons.org/ns#" xmlns:rdf="http://www.w3.org/1999/02/22-rdf-syntax-ns#" xmlns:svg="http://www.w3.org/2000/svg" xmlns="http://www.w3.org/2000/svg" xmlns:sodipodi="http://sodipodi.sourceforge.net/DTD/sodipodi-0.dtd" xmlns:inkscape="http://www.inkscape.org/namespaces/inkscape" viewBox="0 0 100 125" version="1.1" x="0px" y="0px"><g transform="translate(0,-952.36216)"><path style="color:#000000;font-style:normal;font-variant:normal;font-weight:normal;font-stretch:normal;font-size:medium;line-height:normal;font-family:sans-serif;text-indent:0;text-align:start;text-decoration:none;text-decoration-line:none;text-decoration-style:solid;text-decoration-color:#000000;letter-spacing:normal;word-spacing:normal;text-transform:none;direction:ltr;block-progression:tb;writing-mode:lr-tb;baseline-shift:baseline;text-anchor:start;white-space:normal;clip-rule:nonzero;display:inline;overflow:visible;visibility:visible;opacity:1;isolation:auto;mix-blend-mode:normal;color-interpolation:sRGB;color-interpolation-filters:linearRGB;solid-color:#000000;solid-opacity:1;fill:#000000;fill-opacity:1;fill-rule:evenodd;stroke:none;stroke-width:8;stroke-linecap:round;stroke-linejoin:round;stroke-miterlimit:4;stroke-dasharray:none;stroke-dashoffset:0;stroke-opacity:1;color-rendering:auto;image-rendering:auto;shape-rendering:auto;text-rendering:auto;enable-background:accumulate" d="m 83.29284,957.36071 a 0.60764484,0.60764484 0 0 0 -0.2139,0.043 l -1.5513,0.6207 -2.692,1.0353 a 0.60764484,0.60764484 0 0 0 -0.26166,0.1941 l -0.72566,0.9333 a 0.60764484,0.60764484 0 0 0 0.15338,0.8856 l 0.37262,0.237 -1.14783,0.804 -1.02559,-0.086 a 0.60764484,0.60764484 0 0 0 -0.43344,0.1338 l -1.36172,1.1066 -1.62398,-0.7692 a 0.60764484,0.60764484 0 0 0 -0.54291,0.011 l -1.9702,1.0369 a 0.60764484,0.60764484 0 0 0 -0.29341,0.7298 l 0.36787,1.1036 -1.09768,0.6934 -1.01047,-1.3214 a 0.60764484,0.60764484 0 0 0 -0.33553,-0.2205 l -2.07344,-0.5182 a 0.60764484,0.60764484 0 0 0 -0.75503,0.5895 l 0,0.2213 -0.97872,0.4195 -1.80377,0.062 0.70341,-1.2312 a 0.60764484,0.60764484 0 0 0 -0.16287,-0.7874 l -0.8295,-0.6221 a 0.60764484,0.60764484 0 0 0 -0.19313,-0.097 l -1.76253,-0.5183 a 0.60764484,0.60764484 0 0 0 -0.43284,0.034 l -2.16156,1.0292 -2.78308,1.1338 a 0.60764484,0.60764484 0 0 0 -0.37499,0.5038 l -1.70319,0.074 a 0.60764484,0.60764484 0 0 0 -0.54588,0.8114 l 0.13647,0.3824 -0.48209,-0.1208 -0.71439,-0.3895 0.0587,-0.5281 a 0.60764484,0.60764484 0 0 0 -0.92591,-0.5821 l -3.31798,2.0735 a 0.60764484,0.60764484 0 0 0 -0.0626,0.045 l -2.19983,1.7996 -2.80384,1.0016 a 0.60764484,0.60764484 0 0 0 -0.2142,0.1317 l -2.07374,1.9699 a 0.60764484,0.60764484 0 0 0 -0.0543,0.059 l -2.42737,3.01 -1.08641,0.084 a 0.60764484,0.60764484 0 0 0 -0.56101,0.6058 l 0,1.1873 -1.19173,-0.1323 a 0.60764484,0.60764484 0 0 0 -0.67463,0.6037 l 0,1.3481 a 0.60764484,0.60764484 0 0 0 0.25721,0.4963 l 0.96063,0.6782 -0.48358,0.2605 a 0.60764484,0.60764484 0 0 0 -0.31328,0.6209 l 0.17207,1.2039 -0.17563,-0.058 -0.31329,-0.3133 a 0.60764484,0.60764484 0 0 0 -0.15783,-0.1136 l -0.32693,-0.1635 -0.4812,-1.0496 a 0.60764484,0.60764484 0 0 0 -0.44353,-0.3448 l -1.07692,-0.1958 -1.4433,-0.5972 a 0.60764484,0.60764484 0 0 0 -0.71202,0.1884 l -0.72566,0.9331 a 0.60764484,0.60764484 0 0 0 -0.11006,0.2257 l -0.28125,1.125 -0.85945,1.146 a 0.60764484,0.60764484 0 0 0 -0.10028,0.5246 l 0.15546,0.5702 a 0.60764484,0.60764484 0 0 0 0.12252,0.2326 l 0.27858,0.3293 -0.23319,0.3583 -1.14693,-0.079 a 0.60764484,0.60764484 0 0 0 -0.50553,0.2136 l -0.5702,0.6741 a 0.60764484,0.60764484 0 0 0 -0.10028,0.1667 l -0.41504,1.0369 a 0.60764484,0.60764484 0 0 0 0.0516,0.5518 l 0.50582,0.7948 -0.28005,0.3922 a 0.60764484,0.60764484 0 0 0 0.0584,0.7758 0.60764484,0.60764484 0 0 0 -0.178,0.1109 l -0.51859,0.4664 a 0.60764484,0.60764484 0 0 0 -0.19283,0.5515 l 0.12875,0.771 -0.72447,1.9062 -0.57584,-0.1772 -0.86302,-1.491 0.44442,-0.9633 0.44204,-0.4418 0.15753,-0.1575 0.30261,-0.03 a 0.60764484,0.60764484 0 0 0 0.46607,-0.9078 l -0.82208,-1.4279 -0.0424,0.085 a 0.60764484,0.60764484 0 0 0 0.0303,-0.4726 l -0.70549,-2.0159 -0.14745,-1.0799 a 0.60764484,0.60764484 0 0 0 -0.094,-0.2513 l -0.98911,-1.507 0,-0.6996 a 0.60764484,0.60764484 0 0 0 -0.004,-0.061 0.60764484,0.60764484 0 0 0 -0.0475,-0.1754 0.60764484,0.60764484 0 0 0 -0.0596,-0.1056 0.60764484,0.60764484 0 0 0 -0.0374,-0.048 0.60764484,0.60764484 0 0 0 -0.19136,-0.1475 0.60764484,0.60764484 0 0 0 -0.11362,-0.042 0.60764484,0.60764484 0 0 0 -0.0593,-0.013 0.60764484,0.60764484 0 0 0 -0.0605,-0.01 0.60764484,0.60764484 0 0 0 -0.12104,0.01 0.60764484,0.60764484 0 0 0 -0.22755,0.081 0.60764484,0.60764484 0 0 0 -0.0501,0.034 0.60764484,0.60764484 0 0 0 -0.0896,0.082 0.60764484,0.60764484 0 0 0 -0.038,0.047 0.60764484,0.60764484 0 0 0 -0.0611,0.105 0.60764484,0.60764484 0 0 0 -0.0495,0.1745 0.60764484,0.60764484 0 0 0 -0.005,0.061 0.60764484,0.60764484 0 0 0 -3e-4,0.01 l 0,0.8811 0,0.9514 -0.11304,1.0197 -0.0303,0.014 -0.5165,0 -0.615,-0.9991 -0.15398,-0.462 0,-1.0419 a 0.60764484,0.60764484 0 0 0 -0.24831,-0.4901 l -0.77728,-0.5702 a 0.60764484,0.60764484 0 0 0 -0.23437,-0.1044 l -0.72566,-0.1528 -0.3302,-0.5503 a 0.60764484,0.60764484 0 0 0 -0.80843,-0.2219 l -0.10205,-0.2038 a 0.60764484,0.60764484 0 0 0 -0.68621,-0.319 l -0.65801,0.159 a 0.60764484,0.60764484 0 0 0 -0.32397,0.2018 l -1.83314,2.1992 a 0.60764484,0.60764484 0 0 0 -0.13973,0.4257 l 0.14685,2.4197 a 0.60764484,0.60764484 0 0 0 0.6064,0.5708 l 0.33969,0 0.0834,0.7096 a 0.60764484,0.60764484 0 0 0 0.31239,0.4625 l 0.70489,0.3845 0.18275,0.2196 -0.29815,0.1605 a 0.60764484,0.60764484 0 0 0 -0.28837,0.3426 l -0.30853,0.9259 -2.20161,1.7201 a 0.60764484,0.60764484 0 0 0 -0.22013,0.3516 l -0.40763,1.902 -0.77935,0.909 a 0.60764484,0.60764484 0 0 0 -0.11511,0.5877 l 0.17207,0.5156 -0.63458,3.736 a 0.60764484,0.60764484 0 0 0 0.008,0.2409 l 0.2584,1.0988 -0.6945,2.63979 a 0.60764484,0.60764484 0 0 0 -0.0169,0.2151 l 0.21983,2.1992 a 0.60764484,0.60764484 0 0 0 0.005,0.036 l 0.553,3.4566 -0.55597,0.9885 a 0.60764484,0.60764484 0 0 0 -0.078,0.2978 l 0,2.9326 a 0.60764484,0.60764484 0 0 0 0.29934,0.5237 l 1.24632,0.733 a 0.60764484,0.60764484 0 0 0 0.21924,0.078 l 1.97939,0.2934 a 0.60764484,0.60764484 0 0 0 0.0759,0.01 l 3.37257,0.073 a 0.60764484,0.60764484 0 0 0 0.10205,-0.01 l 3.95909,-0.5866 a 0.60764484,0.60764484 0 0 0 0.35096,-0.1821 l 1.45399,-1.5267 1.08641,-1.014 a 0.60764484,0.60764484 0 0 0 0.16762,-0.6189 l -0.43996,-1.4664 a 0.60764484,0.60764484 0 0 0 -0.0958,-0.1899 l -0.77045,-1.0271 -0.0481,-0.7939 3.19545,2.3796 a 0.60764484,0.60764484 0 0 0 0.25098,0.1098 l 3.16134,0.5928 0.77016,2.4389 a 0.60764484,0.60764484 0 0 0 0.21479,0.3032 l 0.53816,0.4035 a 0.60764484,0.60764484 0 0 0 -0.20411,0.7752 l 0.95321,1.9061 a 0.60764484,0.60764484 0 0 0 0.5435,0.3358 l 1.02649,0 a 0.60764484,0.60764484 0 0 0 0.0659,0 l -0.14863,0.7435 a 0.60764484,0.60764484 0 0 0 -0.01,0.1688 l 0.36668,4.472 a 0.60764484,0.60764484 0 0 0 0.0243,0.1273 c 0,0 0.38485,1.2645 0.77876,2.5653 0.19696,0.6504 0.39625,1.31 0.55063,1.8246 0.15437,0.5145 0.27858,0.9458 0.27531,0.9327 0.053,0.2118 0.12307,0.3637 0.23823,0.6568 0.11516,0.2931 0.25998,0.652 0.40258,1.0016 0.28519,0.6991 0.56101,1.3605 0.56101,1.3605 a 0.60764484,0.60764484 0 0 0 0.86212,0.2937 l 1.53973,-0.8796 a 0.60764484,0.60764484 0 0 0 0.0964,-0.069 l 1.09976,-0.9529 a 0.60764484,0.60764484 0 0 0 0.20856,-0.4213 l 0.0659,-1.0582 0.46459,-0.9957 a 0.60764484,0.60764484 0 0 0 0.0546,-0.3118 l -0.1697,-1.866 0.25989,-0.047 a 0.60764484,0.60764484 0 0 0 0.2759,-0.1276 l 0.68146,-0.5574 0.72002,-0.1199 a 0.60764484,0.60764484 0 0 0 0.3299,-0.17 l 0.33702,-0.337 2.29802,-1.7409 1.87319,-0.555 a 0.60764484,0.60764484 0 0 0 0.34859,-0.27 l 0.43966,-0.7331 a 0.60764484,0.60764484 0 0 0 0.0789,-0.4097 l 0.35779,-0.1789 2.57807,-0.07 a 0.60764484,0.60764484 0 0 0 0.3836,-0.1501 l 0.34295,-0.3002 0.34652,1.7912 a 0.60764484,0.60764484 0 0 0 0.20411,0.3483 l 0.85293,0.7219 0.56397,1.1908 0.18869,1.3205 -0.25781,0.9016 a 0.60764484,0.60764484 0 0 0 0.41742,0.7511 l 1.02648,0.2934 a 0.60764484,0.60764484 0 0 0 0.48298,-0.065 l 1.25285,-0.7628 0.36016,0.4803 -0.11125,0.7773 a 0.60764484,0.60764484 0 0 0 0.0581,0.3575 l 0.5708,1.1419 0.22933,0.6307 -0.0516,0.3626 a 0.60764484,0.60764484 0 0 0 0.0406,0.3195 l 0.24564,0.5904 -0.20025,0.3204 a 0.60764484,0.60764484 0 0 0 -0.0923,0.3331 l 0.0466,2.5274 a 0.60764484,0.60764484 0 0 0 0.22785,0.4634 l 1.40593,1.1247 0.98287,3.3417 a 0.60764484,0.60764484 0 0 0 0.2676,0.348 l 2.90293,1.7625 a 0.60764484,0.60764484 0 0 0 0.46251,0.07 l 0.41505,-0.1035 a 0.60764484,0.60764484 0 0 0 0.41118,-0.8289 l -0.58681,-1.3689 -0.19729,-1.7767 a 0.60764484,0.60764484 0 0 0 -0.11155,-0.2887 l -1.34778,-1.8664 a 0.60764484,0.60764484 0 0 0 -0.19105,-0.1717 l -1.19144,-0.6809 -0.11511,-0.8434 a 0.60764484,0.60764484 0 0 0 -0.14062,-0.3136 l -0.42335,-0.4937 0.45064,-1.9829 a 0.60764484,0.60764484 0 0 0 0.0151,-0.1347 l 0,-0.02 a 0.60764484,0.60764484 0 0 0 0.6328,0.3082 l 0.75414,-0.1258 0.49663,1.2986 a 0.60764484,0.60764484 0 0 0 0.32397,0.3397 l 1.29497,0.5666 0,0.7432 a 0.60764484,0.60764484 0 0 0 0.79953,0.5764 l 1.24454,-0.4147 a 0.60764484,0.60764484 0 0 0 0.40911,-0.4907 l 0.0549,-0.3827 2.68636,-1.1117 a 0.60764484,0.60764484 0 0 0 0.37529,-0.5616 l 0,-2.0734 a 0.60764484,0.60764484 0 0 0 -0.007,-0.089 l -0.41475,-2.7997 a 0.60764484,0.60764484 0 0 0 -0.36164,-0.4693 l -1.28875,-0.5521 -1.30862,-1.9198 0.21212,-0.99 1.49849,-1.2342 0.39517,-0.1077 0.17652,0.8239 a 0.60764484,0.60764484 0 0 0 0.96952,0.3504 l 1.39763,-1.098 5.43295,-2.563 a 0.60764484,0.60764484 0 0 0 0.29311,-0.2963 l 3.42152,-7.4652 a 0.60764484,0.60764484 0 0 0 0.027,-0.4361 l -0.62182,-1.9699 a 0.60764484,0.60764484 0 0 0 -0.0519,-0.1184 l -1.65899,-2.9032 a 0.60764484,0.60764484 0 0 0 -0.4809,-0.3044 l -0.36075,-0.028 0.92146,-1.5139 0.91553,-1.22079 a 0.60764484,0.60764484 0 0 0 -0.48595,-0.9722 l -1.65899,0 a 0.60764484,0.60764484 0 0 0 -0.44768,0.197 l -0.46399,0.5061 -0.0724,-0.1993 a 0.60764484,0.60764484 0 0 0 -0.57109,-0.4 l -0.17089,0 -0.002,-0.026 0.0659,-0.011 a 0.60764484,0.60764484 0 0 0 0.39131,-0.2418 l 1.11579,-1.5347 0.0748,0.4477 a 0.60764484,0.60764484 0 0 0 0.92532,0.4127 l 1.00839,-0.6417 0.85738,-0.054 0,0.547 -0.0955,0.5726 a 0.60764484,0.60764484 0 0 0 0.6598,0.7046 l 0.71587,-0.072 0.1338,0.1605 -0.0579,0.3474 a 0.60764484,0.60764484 0 0 0 0.084,0.4219 l 0.46192,0.73899 0.28866,1.3472 a 0.60764484,0.60764484 0 0 0 0.94461,0.3691 l 1.76252,-1.2443 a 0.60764484,0.60764484 0 0 0 0.25722,-0.4963 l 0,-1.34779 a 0.60764484,0.60764484 0 0 0 -0.0145,-0.1317 l -0.20737,-0.9333 a 0.60764484,0.60764484 0 0 0 -0.20055,-0.332 l -1.29557,-1.0962 -0.60343,-0.8049 0.72922,-0.8749 a 0.60764484,0.60764484 0 0 0 0.1338,-0.2967 l 0.19877,-1.2926 0.46904,-1.34 0.3029,0.1682 a 0.60764484,0.60764484 0 0 0 0.72447,-0.1015 l 1.03687,-1.0369 a 0.60764484,0.60764484 0 0 0 0.17771,-0.4102 l 0.20737,-6.5322 a 0.60764484,0.60764484 0 0 0 -0.0309,-0.2115 l -0.62212,-1.8661 a 0.60764484,0.60764484 0 0 0 -0.0249,-0.063 l -0.62183,-1.3477 a 0.60764484,0.60764484 0 0 0 -0.0222,-0.043 l -0.93303,-1.6589 a 0.60764484,0.60764484 0 0 0 -0.41059,-0.298 l -1.03686,-0.2074 a 0.60764484,0.60764484 0 0 0 -0.69006,0.3881 l -0.17,0.4675 -0.72506,-0.4079 0,-1.2502 0.57228,-3.2435 2.10518,-1.6474 1.02204,-0.2789 a 0.60764484,0.60764484 0 0 0 0.44767,-0.5859 l 0,-0.4147 a 0.60764484,0.60764484 0 0 0 -0.002,-0.049 l -0.1605,-2.0055 a 0.60764484,0.60764484 0 0 0 0.86628,-0.3792 l 0.16762,0.7957 a 0.60764484,0.60764484 0 0 0 0.008,0.035 l 0.62242,2.2811 a 0.60764484,0.60764484 0 0 0 0.002,0.01 l 0.20738,0.7256 a 0.60764484,0.60764484 0 0 0 0.12104,0.2261 l 2.90293,3.4218 a 0.60764484,0.60764484 0 0 0 0.0944,0.089 l 1.76252,1.3481 a 0.60764484,0.60764484 0 0 0 0.9455,-0.6749 l -0.82208,-2.4663 -0.30528,-1.2214 a 0.60764484,0.60764484 0 0 0 -0.003,-0.013 l -0.31121,-1.1404 a 0.60764484,0.60764484 0 0 0 -0.1249,-0.2356 l -0.47556,-0.5551 0,-0.812 a 0.60764484,0.60764484 0 0 0 -0.37411,-0.561 l -1.06208,-0.4426 -0.91375,-1.4952 0.47171,-2.3589 a 0.60764484,0.60764484 0 0 0 -0.004,-0.2572 l -0.72565,-3.1106 a 0.60764484,0.60764484 0 0 0 -0.35245,-0.4204 l -1.99304,-0.8541 -0.26612,-0.4563 1.2033,-0.4678 a 0.60764484,0.60764484 0 0 0 0.16199,-1.0387 l -2.17758,-1.7625 a 0.60764484,0.60764484 0 0 0 -0.39398,-0.1353 z m -0.0935,1.3039 1.08641,0.8796 -0.89031,0.3462 a 0.60764484,0.60764484 0 0 0 -0.30468,0.8722 l 0.72595,1.2443 a 0.60764484,0.60764484 0 0 0 0.2854,0.2525 l 1.89485,0.8119 0.62597,2.6831 -0.49247,2.463 a 0.60764484,0.60764484 0 0 0 0.0774,0.4358 l 1.14041,1.8664 a 0.60764484,0.60764484 0 0 0 0.2848,0.2442 l 0.87044,0.3625 0,0.6319 a 0.60764484,0.60764484 0 0 0 0.14626,0.3952 l 0.53312,0.6221 0.27323,1.0024 0.30973,1.2381 a 0.60764484,0.60764484 0 0 0 0.013,0.045 l 0.20411,0.6127 -0.14002,-0.1071 -2.77596,-3.2717 -0.17029,-0.5963 -0.61649,-2.2604 -0.41089,-1.9524 a 0.60764484,0.60764484 0 0 0 -0.0736,-0.1875 l -0.62242,-1.0368 a 0.60764484,0.60764484 0 0 0 -1.12231,0.2266 l -0.0988,0.6913 a 0.60764484,0.60764484 0 0 0 -0.18898,0.1557 l -0.8295,1.0369 a 0.60764484,0.60764484 0 0 0 -0.13112,0.4281 l 0.19965,2.4956 -0.68709,0.1875 a 0.60764484,0.60764484 0 0 0 -0.21449,0.1077 l -2.38465,1.8663 a 0.60764484,0.60764484 0 0 0 -0.22399,0.373 l -0.62212,3.525 a 0.60764484,0.60764484 0 0 0 -0.009,0.1056 l 0,1.659 a 0.60764484,0.60764484 0 0 0 0.30973,0.5296 l 1.65899,0.9333 a 0.60764484,0.60764484 0 0 0 0.86895,-0.3222 l 0.23615,-0.6497 0.25158,0.05 0.7844,1.3947 0.59779,1.2953 0.57732,1.7313 -0.19639,6.1833 -0.54291,0.5426 -0.53253,-0.2958 a 0.60764484,0.60764484 0 0 0 -0.86836,0.3305 l -0.72595,2.0738 a 0.60764484,0.60764484 0 0 0 -0.027,0.1082 l -0.18156,1.1811 -0.92888,1.1143 a 0.60764484,0.60764484 0 0 0 -0.0193,0.7535 l 0.93304,1.2443 a 0.60764484,0.60764484 0 0 0 0.0937,0.099 l 1.19173,1.008 0.14834,0.6684 0,0.96629 -0.75384,0.5319 -0.11808,-0.5518 a 0.60764484,0.60764484 0 0 0 -0.0789,-0.19459 l -0.39665,-0.6346 0.0662,-0.3951 a 0.60764484,0.60764484 0 0 0 -0.13262,-0.4889 l -0.51858,-0.6222 a 0.60764484,0.60764484 0 0 0 -0.52719,-0.2154 l -0.26492,0.026 0,-1.1846 a 0.60764484,0.60764484 0 0 0 -0.64556,-0.6064 l -1.65899,0.1039 a 0.60764484,0.60764484 0 0 0 -0.28837,0.094 l -0.36579,0.2329 -0.0567,-0.3388 a 0.60764484,0.60764484 0 0 0 -0.32752,-0.4432 l -0.41475,-0.2074 a 0.60764484,0.60764484 0 0 0 -0.76304,0.186 l -1.51243,2.08 -0.37707,0.063 a 0.60764484,0.60764484 0 0 0 -0.50524,0.6544 l 0.10384,1.1404 a 0.60764484,0.60764484 0 0 0 0.60491,0.5528 l 0.30024,0 0.26937,0.74039 a 0.60764484,0.60764484 0 0 0 1.01877,0.203 l 0.96003,-1.04729 0.17652,0 -0.20411,0.27209 a 0.60764484,0.60764484 0 0 0 -0.0329,0.049 l -1.45161,2.385 a 0.60764484,0.60764484 0 0 0 0.4726,0.9214 l 1.02648,0.079 1.46704,2.5668 0.53194,1.6848 -3.23135,7.0508 -5.29471,2.4973 a 0.60764484,0.60764484 0 0 0 -0.11629,0.072 l -0.68591,0.5391 -0.1071,-0.4996 a 0.60764484,0.60764484 0 0 0 -0.75414,-0.459 l -1.1404,0.3109 a 0.60764484,0.60764484 0 0 0 -0.22636,0.1172 l -1.76253,1.4516 a 0.60764484,0.60764484 0 0 0 -0.20797,0.3418 l -0.31091,1.4516 a 0.60764484,0.60764484 0 0 0 0.092,0.4697 l 1.55545,2.2808 a 0.60764484,0.60764484 0 0 0 0.26255,0.2162 l 1.13952,0.4884 0.35838,2.4196 0,1.6228 -2.63148,1.0888 a 0.60764484,0.60764484 0 0 0 -0.36906,0.4756 l -0.0507,0.3539 -0.0881,0.029 0,-0.2976 a 0.60764484,0.60764484 0 0 0 -0.36402,-0.5565 l -1.42581,-0.6239 -0.58325,-1.5249 a 0.60764484,0.60764484 0 0 0 -0.66722,-0.3821 l -0.61144,0.1017 -0.0329,-0.2955 a 0.60764484,0.60764484 0 0 0 -0.60373,-0.5405 l -1.03686,0 a 0.60764484,0.60764484 0 0 0 -0.60759,0.6076 l 0,1.176 -0.50345,2.2146 a 0.60764484,0.60764484 0 0 0 0.13142,0.5302 l 0.50553,0.5898 0.13143,0.963 a 0.60764484,0.60764484 0 0 0 0.0178,0.083 l -1.09472,-0.8757 -0.0377,-2.0622 0.27087,-0.4334 a 0.60764484,0.60764484 0 0 0 0.0457,-0.5557 l -0.30231,-0.7257 0.0498,-0.3477 a 0.60764484,0.60764484 0 0 0 -0.0306,-0.2937 l -0.29341,-0.8066 a 0.60764484,0.60764484 0 0 0 -0.0273,-0.064 l -0.50168,-1.0034 0.11956,-0.8386 a 0.60764484,0.60764484 0 0 0 -0.1154,-0.4504 l -0.87964,-1.173 a 0.60764484,0.60764484 0 0 0 -1.09383,0.3646 l 0,-0.2682 -1.1674,0.7105 -0.18661,-0.053 0.12639,-0.442 a 0.60764484,0.60764484 0 0 0 0.0175,-0.2528 l -0.22013,-1.5397 a 0.60764484,0.60764484 0 0 0 -0.0522,-0.1742 l -0.65979,-1.3928 a 0.60764484,0.60764484 0 0 0 -0.15665,-0.2039 l -0.78974,-0.6684 -0.39932,-2.0624 a 0.60764484,0.60764484 0 0 0 -0.52956,-0.4883 l -0.65979,-0.074 a 0.60764484,0.60764484 0 0 0 -0.46726,0.1468 l -0.42157,0.3691 -2.49383,0.067 a 0.60764484,0.60764484 0 0 0 -0.25514,0.064 l -0.87992,0.44 a 0.60764484,0.60764484 0 0 0 -0.32753,0.6435 l 0.0365,0.2189 -0.20322,0.3388 -1.75274,0.5192 a 0.60764484,0.60764484 0 0 0 -0.19432,0.098 l -2.41936,1.8328 a 0.60764484,0.60764484 0 0 0 -0.0626,0.055 l -0.22903,0.2287 -0.68768,0.1149 a 0.60764484,0.60764484 0 0 0 -0.28481,0.129 l -0.68501,0.5604 -0.65179,0.1184 a 0.60764484,0.60764484 0 0 0 -0.49633,0.6527 l 0.205,2.2562 -0.44382,0.9511 a 0.60764484,0.60764484 0 0 0 -0.0561,0.2192 l -0.0573,0.9185 -0.86213,0.7474 -0.88824,0.5076 c -0.10552,-0.255 -0.14513,-0.3485 -0.29489,-0.7156 -0.1415,-0.3469 -0.28527,-0.7028 -0.39694,-0.987 -0.11168,-0.2843 -0.20649,-0.5726 -0.19017,-0.5074 -0.04,-0.1597 -0.1355,-0.4705 -0.29044,-0.987 -0.15494,-0.5164 -0.3544,-1.1766 -0.55152,-1.8275 -0.38462,-1.2701 -0.74227,-2.4447 -0.76037,-2.5042 l -0.35422,-4.3225 0.42335,-2.1159 a 0.60764484,0.60764484 0 0 0 -0.23141,-0.6052 l -0.2934,-0.2198 a 0.60764484,0.60764484 0 0 0 -0.86391,0.1403 l -0.47883,0.6913 -0.33227,0 -0.37322,-0.7462 0.32664,-0.019 a 0.60764484,0.60764484 0 0 0 0.32871,-1.0926 l -1.60321,-1.2027 -0.82119,-2.5997 a 0.60764484,0.60764484 0 0 0 -0.46726,-0.4142 l -3.38117,-0.634 -2.98066,-2.2197 0.3744,-1.1226 A 0.60764484,0.60764484 0 0 0 21.939,1003.271 l -1.64593,0 -0.35809,-0.8698 a 0.60764484,0.60764484 0 0 0 -0.10057,-0.1644 l -1.17897,-1.3754 -0.0679,-2.71659 a 0.60764484,0.60764484 0 0 0 -0.33583,-0.5281 l -1.02649,-0.5132 a 0.60764484,0.60764484 0 0 0 -0.87251,0.4533 l -0.43996,2.93259 a 0.60764484,0.60764484 0 0 0 0.008,0.2219 l 0.27858,1.2546 0,0.3863 -0.13469,0.6743 a 0.60764484,0.60764484 0 0 0 0.45242,0.7088 l -0.0228,0.3201 a 0.60764484,0.60764484 0 0 0 0.003,0.1142 l 0.14656,1.2463 a 0.60764484,0.60764484 0 0 0 0.41919,0.5079 l 1.61301,0.5133 a 0.60764484,0.60764484 0 0 0 0.52125,-0.073 l 0.87993,-0.5865 0.0828,1.3641 a 0.60764484,0.60764484 0 0 0 0.12015,0.3278 l 0.81496,1.0864 0.30053,1.0016 -0.82386,0.7689 a 0.60764484,0.60764484 0 0 0 -0.0255,0.025 l -1.32197,1.3881 -3.70158,0.5482 -3.28297,-0.071 -1.82483,-0.2702 -0.84462,-0.497 0,-2.4261 0.58177,-1.0342 a 0.60764484,0.60764484 0 0 0 0.0703,-0.394 l -0.58355,-3.6479 -0.20737,-2.0725 0.70519,-2.68019 a 0.60764484,0.60764484 0 0 0 0.004,-0.2937 l -0.26492,-1.1267 0.63932,-3.7645 a 0.60764484,0.60764484 0 0 0 -0.0228,-0.2937 l -0.11096,-0.3335 0.65595,-0.7654 a 0.60764484,0.60764484 0 0 0 0.13261,-0.2679 l 0.39368,-1.8373 2.17223,-1.6969 a 0.60764484,0.60764484 0 0 0 0.20233,-0.2869 l 0.29045,-0.8711 0.74079,-0.399 a 0.60764484,0.60764484 0 0 0 0.17889,-0.9238 l -0.73337,-0.8799 a 0.60764484,0.60764484 0 0 0 -0.17563,-0.1442 l -0.53075,-0.2896 -0.10977,-0.9345 a 0.60764484,0.60764484 0 0 0 -0.60343,-0.5364 l -0.30795,0 -0.0976,-1.6082 1.54477,-1.8536 0.19669,0.3928 a 0.60764484,0.60764484 0 0 0 0.87578,0.2364 l 0.13143,0.2192 a 0.60764484,0.60764484 0 0 0 0.39575,0.2819 l 0.85679,0.1804 0.42335,0.3106 0,0.8324 a 0.60764484,0.60764484 0 0 0 0.0312,0.1923 l 0.20737,0.6221 a 0.60764484,0.60764484 0 0 0 0.059,0.1264 l 0.82949,1.3478 a 0.60764484,0.60764484 0 0 0 0.5174,0.2892 l 0.98524,0 a 0.60764484,0.60764484 0 0 0 0.24654,-0.053 l 0.46666,-0.2074 a 0.60764484,0.60764484 0 0 0 0.3572,-0.488 l 0.0608,-0.5471 0.13291,0.9767 a 0.60764484,0.60764484 0 0 0 0.0285,0.1187 l 0.64111,1.831 0.0113,-0.023 a 0.60764484,0.60764484 0 0 0 0.0166,0.5749 l 0.58296,1.0123 a 0.60764484,0.60764484 0 0 0 -0.0193,0.018 l -0.31121,0.3112 -0.51828,0.5183 a 0.60764484,0.60764484 0 0 0 -0.12193,0.175 l -0.62242,1.3481 a 0.60764484,0.60764484 0 0 0 0.0258,0.5589 l 1.1407,1.9699 a 0.60764484,0.60764484 0 0 0 0.34711,0.2765 l 1.34808,0.4145 a 0.60764484,0.60764484 0 0 0 0.74642,-0.365 l 0.98495,-2.592 a 0.60764484,0.60764484 0 0 0 0.0315,-0.3156 l -0.0154,-0.092 0.94105,-0.1982 a 0.60764484,0.60764484 0 0 0 0.4812,-0.6337 l -0.10384,-1.607 a 0.60764484,0.60764484 0 0 0 -0.20945,-0.4207 0.60764484,0.60764484 0 0 0 -0.0917,-0.3848 l -0.55863,-0.8779 0.26255,-0.6562 0.30795,-0.3637 1.19648,0.082 a 0.60764484,0.60764484 0 0 0 0.55121,-0.2751 l 0.67404,-1.0368 a 0.60764484,0.60764484 0 0 0 -0.0457,-0.7236 l -0.48328,-0.5711 -0.0421,-0.1537 0.75503,-1.0066 a 0.60764484,0.60764484 0 0 0 0.10324,-0.2171 l 0.28006,-1.12 0.36283,-0.4663 1.07573,0.445 a 0.60764484,0.60764484 0 0 0 0.12342,0.036 l 0.8289,0.1508 0.43848,0.9561 a 0.60764484,0.60764484 0 0 0 0.28065,0.2902 l 0.43017,0.2154 0.34474,0.3447 a 0.60764484,0.60764484 0 0 0 0.23763,0.1468 l 1.24424,0.4148 a 0.60764484,0.60764484 0 0 0 0.7936,-0.6622 l -0.25098,-1.7578 0.97427,-0.5245 a 0.60764484,0.60764484 0 0 0 0.0623,-1.0315 l -1.50532,-1.0624 0,-0.3542 1.19174,0.1323 a 0.60764484,0.60764484 0 0 0 0.67463,-0.604 l 0,-1.3036 0.78707,-0.061 a 0.60764484,0.60764484 0 0 0 0.42632,-0.2243 l 2.56681,-3.183 1.95121,-1.8536 2.78219,-0.9936 a 0.60764484,0.60764484 0 0 0 0.18037,-0.102 l 2.25115,-1.8417 2.28823,-1.4303 a 0.60764484,0.60764484 0 0 0 0.28006,0.3284 l 1.1404,0.6221 a 0.60764484,0.60764484 0 0 0 0.14389,0.056 l 1.65899,0.4145 a 0.60764484,0.60764484 0 0 0 0.71943,-0.7936 l -0.24149,-0.6762 1.56198,-0.068 a 0.60764484,0.60764484 0 0 0 0.56931,-0.726 l -0.005,-0.026 2.33451,-0.9511 a 0.60764484,0.60764484 0 0 0 0.032,-0.014 l 1.96753,-0.9372 1.43441,0.4218 0.31269,0.2347 -0.97812,1.7115 a 0.60764484,0.60764484 0 0 0 0.54854,0.9087 l 3.00677,-0.1038 a 0.60764484,0.60764484 0 0 0 0.21835,-0.049 l 1.45162,-0.6221 a 0.60764484,0.60764484 0 0 0 0.34859,-0.407 l 1.1321,0.2827 1.21873,1.594 a 0.60764484,0.60764484 0 0 0 0.80724,0.1445 l 1.9699,-1.2442 a 0.60764484,0.60764484 0 0 0 0.25188,-0.7058 l -0.35512,-1.0657 1.24484,-0.655 1.69548,0.8031 a 0.60764484,0.60764484 0 0 0 0.64318,-0.078 l 1.46912,-1.1935 1.00038,0.083 a 0.60764484,0.60764484 0 0 0 0.39902,-0.1077 l 2.07344,-1.4516 a 0.60764484,0.60764484 0 0 0 -0.0222,-1.0105 l -0.57703,-0.3673 0.21212,-0.2726 2.53803,-0.976 a 0.60764484,0.60764484 0 0 0 0.008,0 l 1.22407,-0.4898 z m -65.81014,40.1738 0.0567,2.26929 a 0.60764484,0.60764484 0 0 0 0.14596,0.38 l 1.2564,1.4658 0.47587,1.1562 a 0.60764484,0.60764484 0 0 0 0.50315,0.3732 l -1.06149,0.7076 -0.96151,-0.3059 -0.0941,-0.8001 0.0694,-0.9693 a 0.60764484,0.60764484 0 0 0 -0.3741,-0.604 0.60764484,0.60764484 0 0 0 0.009,-0.099 l 0,-0.5132 a 0.60764484,0.60764484 0 0 0 -0.0145,-0.1317 l -0.26849,-1.2096 0.25781,-1.71919 z m 41.90817,33.66429 1.19619,0.6835 1.17719,1.6299 0.18987,1.7074 a 0.60764484,0.60764484 0 0 0 0.0454,0.1723 l 0.0813,0.1896 -1.70231,-1.0336 -0.97041,-3.2993 a 0.60764484,0.60764484 0 0 0 -0.0172,-0.05 z"/><path style="color:#000000;font-style:normal;font-variant:normal;font-weight:normal;font-stretch:normal;font-size:medium;line-height:normal;font-family:sans-serif;text-indent:0;text-align:start;text-decoration:none;text-decoration-line:none;text-decoration-style:solid;text-decoration-color:#000000;letter-spacing:normal;word-spacing:normal;text-transform:none;direction:ltr;block-progression:tb;writing-mode:lr-tb;baseline-shift:baseline;text-anchor:start;white-space:normal;clip-rule:nonzero;display:inline;overflow:visible;visibility:visible;opacity:1;isolation:auto;mix-blend-mode:normal;color-interpolation:sRGB;color-interpolation-filters:linearRGB;solid-color:#000000;solid-opacity:1;fill:#000000;fill-opacity:1;fill-rule:evenodd;stroke:none;stroke-width:8;stroke-linecap:round;stroke-linejoin:round;stroke-miterlimit:4;stroke-dasharray:none;stroke-dashoffset:0;stroke-opacity:1;color-rendering:auto;image-rendering:auto;shape-rendering:auto;text-rendering:auto;enable-background:accumulate" d="m 76.35814,1030.6648 a 0.60764484,0.60764484 0 0 0 -0.464,0.2151 l -1.14041,1.3477 a 0.60764484,0.60764484 0 0 0 -0.12578,0.2451 l -0.11274,0.4515 -1.27599,0.2392 a 0.60764484,0.60764484 0 0 0 -0.4723,0.4304 l -0.42691,1.4941 -1.59847,0.4752 a 0.60764484,0.60764484 0 0 0 -0.42157,0.4584 l -0.12668,0.6076 -0.58592,-0.1641 -0.34088,-0.2127 a 0.60764484,0.60764484 0 0 0 -0.8197,0.1667 l -0.72566,1.0369 a 0.60764484,0.60764484 0 0 0 -0.10799,0.302 l -0.0519,0.6738 a 0.60764484,0.60764484 0 0 0 0.6058,0.6541 l -0.27946,0 a 0.60764484,0.60764484 0 0 0 0.24624,0.3596 l 0.5877,0.4043 0.0837,1.2108 a 0.60764484,0.60764484 0 0 0 0.7215,0.5544 l 1.18936,-0.2302 0.0923,0.1537 a 0.60764484,0.60764484 0 0 0 0.76453,0.2442 l 0.75384,-0.3299 0.14181,-0.02 -0.005,-0.015 a 0.60764484,0.60764484 0 0 0 0.83513,0.3578 l 0.17029,-0.08 0.0107,0.057 a 0.60764484,0.60764484 0 0 0 0.94549,0.3856 l 1.55545,-1.0885 a 0.60764484,0.60764484 0 0 0 0.18839,-0.2136 l 0.46667,-0.8814 a 0.60764484,0.60764484 0 0 0 -0.0703,-0.6731 l 0.0846,0.1017 0.40377,-0.4304 0.45954,-0.4599 a 0.60764484,0.60764484 0 0 0 0.17563,-0.4845 l -0.0282,-0.3097 0.56545,-0.6411 0.62776,-0.4827 a 0.60764484,0.60764484 0 0 0 -0.11926,-1.0348 l -0.43611,-0.1981 a 0.60764484,0.60764484 0 0 0 -0.28985,-0.6566 l -0.23852,-0.1373 a 0.60764484,0.60764484 0 0 0 0.12668,-0.3264 l 0.0148,-0.1931 0.19758,-0.031 a 0.60764484,0.60764484 0 0 0 0.48951,-0.7749 l -0.0246,-0.082 0.4984,-0.3224 a 0.60764484,0.60764484 0 0 0 -0.33019,-1.1176 l -0.31418,0 -0.0546,-0.1365 a 0.60764484,0.60764484 0 0 0 -0.48061,-0.3759 l 0.002,0.016 a 0.60764484,0.60764484 0 0 0 -0.003,-0.016 0.60764484,0.60764484 0 0 0 -0.0157,0 l 0.0157,0 a 0.60764484,0.60764484 0 0 0 -0.60106,-0.5239 l -0.93303,0 z m 0.38092,1.141 a 0.60764484,0.60764484 0 0 0 0.53668,0.537 l 0.10473,0.012 0.0424,0.1056 a 0.60764484,0.60764484 0 0 0 -0.16821,0.4403 l -0.004,0 a 0.60764484,0.60764484 0 0 0 -0.51354,0.5542 l -0.0163,0.2156 -0.57673,0.1166 a 0.60764484,0.60764484 0 0 0 -0.18275,1.1221 l 0.80903,0.4654 a 0.60764484,0.60764484 0 0 0 0.32129,0.7536 l 0.23883,0.1086 -0.75385,0.8544 a 0.60764484,0.60764484 0 0 0 -0.14952,0.4569 l 0.0261,0.2868 -0.26552,0.2656 a 0.60764484,0.60764484 0 0 0 -0.0136,0.014 l -0.77758,0.8295 a 0.60764484,0.60764484 0 0 0 -0.0252,0.8025 l -0.20737,0.3916 -0.67078,0.4697 a 0.60764484,0.60764484 0 0 0 -0.83009,-0.3463 l -0.29044,0.1365 a 0.60764484,0.60764484 0 0 0 -0.57376,-0.2403 l -0.72566,0.1038 a 0.60764484,0.60764484 0 0 0 -0.15753,0.045 l -0.33999,0.1487 -0.0362,-0.06 a 0.60764484,0.60764484 0 0 0 -0.63637,-0.2839 l -0.93303,0.1807 -0.0564,-0.8182 a 0.60764484,0.60764484 0 0 0 -0.26196,-0.459 l -0.60046,-0.4126 -0.0211,-0.1908 a 0.60764484,0.60764484 0 0 0 -0.21508,-0.3987 l 0.29667,-0.424 -0.0742,-0.046 a 0.60764484,0.60764484 0 0 0 0.15813,0.07 l 1.29586,0.3631 a 0.60764484,0.60764484 0 0 0 0.75889,-0.4613 l 0.18512,-0.8891 1.57028,-0.4667 a 0.60764484,0.60764484 0 0 0 0.41119,-0.4156 l 0.41534,-1.4535 1.28993,-0.2417 a 0.60764484,0.60764484 0 0 0 0.47735,-0.4498 l 0.17296,-0.6924 0.86717,-1.0247 0.10769,0 -0.008,-0.074 z"/><path style="color:#000000;font-style:normal;font-variant:normal;font-weight:normal;font-stretch:normal;font-size:medium;line-height:normal;font-family:sans-serif;text-indent:0;text-align:start;text-decoration:none;text-decoration-line:none;text-decoration-style:solid;text-decoration-color:#000000;letter-spacing:normal;word-spacing:normal;text-transform:none;direction:ltr;block-progression:tb;writing-mode:lr-tb;baseline-shift:baseline;text-anchor:start;white-space:normal;clip-rule:nonzero;display:inline;overflow:visible;visibility:visible;opacity:1;isolation:auto;mix-blend-mode:normal;color-interpolation:sRGB;color-interpolation-filters:linearRGB;solid-color:#000000;solid-opacity:1;fill:#000000;fill-opacity:1;fill-rule:evenodd;stroke:none;stroke-width:8;stroke-linecap:round;stroke-linejoin:round;stroke-miterlimit:4;stroke-dasharray:none;stroke-dashoffset:0;stroke-opacity:1;color-rendering:auto;image-rendering:auto;shape-rendering:auto;text-rendering:auto;enable-background:accumulate" d="m 53.01391,1034.3788 a 0.60764484,0.60764484 0 0 0 -0.44886,0.2184 l -0.18305,0.2198 a 0.60764484,0.60764484 0 0 0 -0.11748,0.5557 l 0.29311,1.0264 a 0.60764484,0.60764484 0 0 0 0.25069,0.3409 l 1.19974,0.7886 1.00186,1.278 a 0.60764484,0.60764484 0 0 0 0.22132,0.1757 l 0.88022,0.4109 0.46103,1.168 a 0.60764484,0.60764484 0 0 0 0.19314,0.2572 l 1.06802,0.8268 1.41512,1.9462 a 0.60764484,0.60764484 0 0 0 0.14893,0.1444 l 3.11624,2.126 a 0.60764484,0.60764484 0 0 0 0.42009,0.1009 l 1.13625,-0.1466 a 0.60764484,0.60764484 0 0 0 0.5168,-0.477 l 0.40318,-1.9062 a 0.60764484,0.60764484 0 0 0 -0.0421,-0.3788 l -0.40317,-0.8799 a 0.60764484,0.60764484 0 0 0 -0.37767,-0.3287 l -0.80309,-0.2409 -0.15427,-0.4409 a 0.60764484,0.60764484 0 0 0 -0.41207,-0.3851 l -0.29786,-0.082 0.0727,-0.1228 a 0.60764484,0.60764484 0 0 0 -0.26344,-0.8582 l -1.26412,-0.597 -1.56346,-1.1727 a 0.60764484,0.60764484 0 0 0 -0.50701,-0.1038 l -1.04607,-0.8675 a 0.60764484,0.60764484 0 0 0 -0.14507,-0.089 l -1.06476,-0.4643 0,-0.079 a 0.60764484,0.60764484 0 0 0 -0.22576,-0.4726 l -0.95292,-0.7699 a 0.60764484,0.60764484 0 0 0 -0.25869,-0.1222 l -1.77232,-0.3667 a 0.60764484,0.60764484 0 0 0 -0.49515,-0.232 z m 0.72863,1.521 1.14842,0.2377 0.61262,0.4951 0,0.1863 a 0.60764484,0.60764484 0 0 0 0.36491,0.5569 l 1.35075,0.5889 1.43678,1.1914 a 0.60764484,0.60764484 0 0 0 0.56516,0.1131 l 1.14426,0.8582 a 0.60764484,0.60764484 0 0 0 0.10502,0.063 l 0.71706,0.3385 -0.13736,0.2326 a 0.60764484,0.60764484 0 0 0 0.36165,0.8948 l 0.75621,0.2085 0.1513,0.4329 a 0.60764484,0.60764484 0 0 0 0.39903,0.3812 l 0.83632,0.251 0.20529,0.4474 -0.27264,1.2881 -0.47942,0.062 -2.83826,-1.9367 -1.40415,-1.9307 a 0.60764484,0.60764484 0 0 0 -0.11956,-0.1231 l -1.00423,-0.7779 -0.48862,-1.2377 a 0.60764484,0.60764484 0 0 0 -0.30824,-0.3275 l -0.96804,-0.4516 -0.97368,-1.2421 a 0.60764484,0.60764484 0 0 0 -0.14448,-0.1329 l -1.0161,-0.6679 z"/><path style="color:#000000;font-style:normal;font-variant:normal;font-weight:normal;font-stretch:normal;font-size:medium;line-height:normal;font-family:sans-serif;text-indent:0;text-align:start;text-decoration:none;text-decoration-line:none;text-decoration-style:solid;text-decoration-color:#000000;letter-spacing:normal;word-spacing:normal;text-transform:none;direction:ltr;block-progression:tb;writing-mode:lr-tb;baseline-shift:baseline;text-anchor:start;white-space:normal;clip-rule:nonzero;display:inline;overflow:visible;visibility:visible;opacity:1;isolation:auto;mix-blend-mode:normal;color-interpolation:sRGB;color-interpolation-filters:linearRGB;solid-color:#000000;solid-opacity:1;fill:#000000;fill-opacity:1;fill-rule:evenodd;stroke:none;stroke-width:8;stroke-linecap:round;stroke-linejoin:round;stroke-miterlimit:4;stroke-dasharray:none;stroke-dashoffset:0;stroke-opacity:1;color-rendering:auto;image-rendering:auto;shape-rendering:auto;text-rendering:auto;enable-background:accumulate" d="m 82.06462,1044.0927 c -0.33952,0 -0.82795,0.064 -1.47149,0.1546 -0.64354,0.09 -1.40517,0.2103 -2.13634,0.3299 -1.4184,0.2319 -2.64218,0.45 -2.71929,0.4637 -0.075,-0.01 -0.89563,-0.088 -1.82691,-0.1759 -0.48643,-0.046 -0.98201,-0.092 -1.37626,-0.1264 -0.39425,-0.035 -0.60706,-0.059 -0.80695,-0.059 -0.24787,0 -0.78887,0.038 -1.35875,0.074 -0.56988,0.037 -1.10244,0.074 -1.10244,0.074 a 0.60764484,0.60764484 0 0 0 -0.0581,0.01 l -1.66226,0.2768 -1.29556,-0.2044 a 0.60764484,0.60764484 0 0 0 -0.30231,0.029 l -1.61301,0.5865 a 0.60764484,0.60764484 0 0 0 0.0478,1.1573 l 2.41936,0.6598 a 0.60764484,0.60764484 0 0 0 0.1599,0.021 l 6.59828,0 a 0.60764484,0.60764484 0 0 0 0.10829,-0.01 l 6.89139,-1.2463 a 0.60764484,0.60764484 0 0 0 0.0742,-0.018 c 0,0 0.64903,-0.2034 1.20033,-0.4162 0.27566,-0.1064 0.49488,-0.1802 0.73219,-0.3486 0.0593,-0.042 0.12899,-0.081 0.21954,-0.2264 0.0453,-0.073 0.1,-0.1878 0.0985,-0.3477 -0.002,-0.1598 -0.0845,-0.3361 -0.17622,-0.4322 -0.18347,-0.1922 -0.30911,-0.1885 -0.39932,-0.2044 -0.0902,-0.016 -0.16347,-0.018 -0.24446,-0.018 z m -10.33724,1.8017 c -0.0532,0 0.31142,0.021 0.70074,0.055 0.38932,0.034 0.88325,0.08 1.36825,0.1255 0.0331,0 0.032,0 0.065,0.01 l -0.35571,0.064 -4.77464,0 0.64704,-0.1077 c 0.0262,0 0.51664,-0.036 1.06861,-0.072 0.56653,-0.036 1.23545,-0.072 1.28073,-0.072 z"/><path style="color:#000000;font-style:normal;font-variant:normal;font-weight:normal;font-stretch:normal;font-size:medium;line-height:normal;font-family:sans-serif;text-indent:0;text-align:start;text-decoration:none;text-decoration-line:none;text-decoration-style:solid;text-decoration-color:#000000;letter-spacing:normal;word-spacing:normal;text-transform:none;direction:ltr;block-progression:tb;writing-mode:lr-tb;baseline-shift:baseline;text-anchor:start;white-space:normal;clip-rule:nonzero;display:inline;overflow:visible;visibility:visible;opacity:1;isolation:auto;mix-blend-mode:normal;color-interpolation:sRGB;color-interpolation-filters:linearRGB;solid-color:#000000;solid-opacity:1;fill:#000000;fill-opacity:1;fill-rule:evenodd;stroke:none;stroke-width:8;stroke-linecap:round;stroke-linejoin:round;stroke-miterlimit:4;stroke-dasharray:none;stroke-dashoffset:0;stroke-opacity:1;color-rendering:auto;image-rendering:auto;shape-rendering:auto;text-rendering:auto;enable-background:accumulate" d="m 79.03026,1018.0809 a 0.60764484,0.60764484 0 0 0 -0.58652,0.6072 l 0,0.2673 -0.18334,2.142 -0.28095,0.093 a 0.60764484,0.60764484 0 0 0 -0.41238,0.6369 l 0.14686,1.4662 a 0.60764484,0.60764484 0 0 0 0.28925,0.4589 l 2.05268,1.2463 a 0.60764484,0.60764484 0 0 0 0.74494,-0.09 l 0.87963,-0.8799 a 0.60764484,0.60764484 0 0 0 -0.065,-0.9155 l -0.99148,-0.7438 c 0.0912,-0.1271 0.10553,-0.1408 0.21242,-0.2975 0.14229,-0.2087 0.28571,-0.4278 0.40228,-0.6299 0.0583,-0.101 0.11,-0.1966 0.15427,-0.2969 0.0443,-0.1004 0.0991,-0.1788 0.0991,-0.4053 0,-0.2505 -0.0479,-0.3628 -0.0997,-0.5625 -0.0518,-0.1997 -0.11776,-0.4253 -0.18334,-0.6408 -0.13117,-0.4309 -0.26137,-0.8218 -0.26137,-0.8218 a 0.60764484,0.60764484 0 0 0 -0.47675,-0.407 l -1.3196,-0.2198 a 0.60764484,0.60764484 0 0 0 -0.12104,-0.01 z m 0.59512,1.3187 0.27947,0.046 c 0.0485,0.1494 0.0709,0.2134 0.14151,0.4453 0.0627,0.2061 0.12524,0.4204 0.1697,0.5919 0.0353,0.1361 0.0426,0.2012 0.0484,0.2044 -0.0182,0.038 -0.0412,0.085 -0.078,0.1483 -0.0896,0.1554 -0.22129,0.3579 -0.35393,0.5524 -0.26528,0.3891 -0.53401,0.7474 -0.53401,0.7474 a 0.60764484,0.60764484 0 0 0 0.12164,0.8508 l 0.90574,0.6794 -0.0472,0.047 -1.38575,-0.8417 -0.0682,-0.6815 0.19906,-0.066 a 0.60764484,0.60764484 0 0 0 0.41327,-0.5245 l 0.18838,-2.1995 z"/><path style="color:#000000;font-style:normal;font-variant:normal;font-weight:normal;font-stretch:normal;font-size:medium;line-height:normal;font-family:sans-serif;text-indent:0;text-align:start;text-decoration:none;text-decoration-line:none;text-decoration-style:solid;text-decoration-color:#000000;letter-spacing:normal;word-spacing:normal;text-transform:none;direction:ltr;block-progression:tb;writing-mode:lr-tb;baseline-shift:baseline;text-anchor:start;white-space:normal;clip-rule:nonzero;display:inline;overflow:visible;visibility:visible;opacity:1;isolation:auto;mix-blend-mode:normal;color-interpolation:sRGB;color-interpolation-filters:linearRGB;solid-color:#000000;solid-opacity:1;fill:#000000;fill-opacity:1;fill-rule:evenodd;stroke:none;stroke-width:8;stroke-linecap:round;stroke-linejoin:round;stroke-miterlimit:4;stroke-dasharray:none;stroke-dashoffset:0;stroke-opacity:1;color-rendering:auto;image-rendering:auto;shape-rendering:auto;text-rendering:auto;enable-background:accumulate" d="m 83.73014,975.81281 a 0.60764484,0.60764484 0 0 0 -0.51859,0.8832 l 1.25878,2.4674 a 0.60764484,0.60764484 0 0 0 0.007,0.013 l 1.61835,2.9964 a 0.60764484,0.60764484 0 0 0 0.0214,0.036 l 1.61834,2.5558 a 0.60764484,0.60764484 0 0 0 1.11223,-0.2234 l 0.0902,-0.5287 a 0.60764484,0.60764484 0 0 0 -0.0116,-0.2572 l -0.62242,-2.3529 -0.26522,-1.5593 a 0.60764484,0.60764484 0 0 0 -0.17919,-0.3373 l -3.68645,-3.5251 a 0.60764484,0.60764484 0 0 0 -0.44263,-0.1679 z m 2.23661,3.5645 0.90752,0.8678 0.20144,1.1852 -1.10896,-2.053 z"/><path style="color:#000000;font-style:normal;font-variant:normal;font-weight:normal;font-stretch:normal;font-size:medium;line-height:normal;font-family:sans-serif;text-indent:0;text-align:start;text-decoration:none;text-decoration-line:none;text-decoration-style:solid;text-decoration-color:#000000;letter-spacing:normal;word-spacing:normal;text-transform:none;direction:ltr;block-progression:tb;writing-mode:lr-tb;baseline-shift:baseline;text-anchor:start;white-space:normal;clip-rule:nonzero;display:inline;overflow:visible;visibility:visible;opacity:1;isolation:auto;mix-blend-mode:normal;color-interpolation:sRGB;color-interpolation-filters:linearRGB;solid-color:#000000;solid-opacity:1;fill:#000000;fill-opacity:1;fill-rule:evenodd;stroke:none;stroke-width:8;stroke-linecap:round;stroke-linejoin:round;stroke-miterlimit:4;stroke-dasharray:none;stroke-dashoffset:0;stroke-opacity:1;color-rendering:auto;image-rendering:auto;shape-rendering:auto;text-rendering:auto;enable-background:accumulate" d="m 87.46049,985.74891 a 0.60764484,0.60764484 0 0 0 -0.55419,0.7993 l 0.35186,1.0549 0.35897,2.0821 a 0.60764484,0.60764484 0 0 0 0.008,0.037 l 0.71646,3.01 0,1.9331 -0.43937,1.0547 a 0.60764484,0.60764484 0 0 0 -0.58622,0.6369 l 0.0528,1.0514 -1.74739,0.7833 a 0.60764484,0.60764484 0 0 0 -0.2501,0.2073 l -1.17304,1.68629 a 0.60764484,0.60764484 0 0 0 -0.0501,0.087 l -0.66009,1.3929 a 0.60764484,0.60764484 0 0 0 0.0392,0.5901 l 0.79241,1.225 0.57436,1.0772 a 0.60764484,0.60764484 0 0 0 1.06564,0.012 l 0.6598,-1.173 a 0.60764484,0.60764484 0 0 0 0.0771,-0.3335 l -0.0644,-1.0965 a 0.60764484,0.60764484 0 0 0 0.0679,-0.036 l 1.3196,-0.8066 a 0.60764484,0.60764484 0 0 0 0.24031,-0.2762 l 0.61411,-1.41159 0.29578,-0.074 a 0.60764484,0.60764484 0 0 0 0.30231,-0.1806 l 0.73307,-0.8064 a 0.60764484,0.60764484 0 0 0 0.005,-0.01 l 1.17275,-1.3199 a 0.60764484,0.60764484 0 0 0 0.13558,-0.5509 l -0.55923,-2.236 0.13261,-1.0603 a 0.60764484,0.60764484 0 0 0 -0.0237,-0.2596 l -0.51324,-1.613 a 0.60764484,0.60764484 0 0 0 -0.17267,-0.2673 l -0.62123,-0.5593 -0.25128,-0.682 0.82267,-0.3032 a 0.60764484,0.60764484 0 0 0 0.38686,-0.4563 l 0.29341,-1.5397 a 0.60764484,0.60764484 0 0 0 -0.20797,-0.5803 l -0.43996,-0.3667 a 0.60764484,0.60764484 0 0 0 -0.61441,-0.097 l -0.48001,0.1919 -1.5154,-0.7577 a 0.60764484,0.60764484 0 0 0 -0.29401,-0.064 z m 1.01877,1.7848 0.49129,0.2457 a 0.60764484,0.60764484 0 0 0 0.49752,0.02 l 0.25484,-0.102 -0.1335,0.6995 -0.90367,0.3332 -0.20648,-1.1968 z m 0.85501,4.1214 0.11214,0.1012 0.42276,1.3285 -0.12994,1.0407 a 0.60764484,0.60764484 0 0 0 0.0134,0.2225 l 0.50879,2.0349 -0.95766,1.0775 -0.60728,0.6678 -0.23971,0.06 a 0.60764484,0.60764484 0 0 0 0.14596,-0.4251 l -0.0359,-0.7209 a 0.60764484,0.60764484 0 0 0 0.21004,-0.2617 l 0.73308,-1.7596 a 0.60764484,0.60764484 0 0 0 0.0466,-0.2334 l 0,-2.1263 a 0.60764484,0.60764484 0 0 0 -0.0163,-0.1406 l -0.20589,-0.8654 z m -1.4083,6.8353 a 0.60764484,0.60764484 0 0 0 -0.0472,0.087 l -0.65684,1.51039 -0.48446,0.2958 a 0.60764484,0.60764484 0 0 0 -0.9007,-0.3169 l -0.26047,0.1659 0.69599,-1.00069 1.65365,-0.7414 z m -3.04682,2.97679 a 0.60764484,0.60764484 0 0 0 0.0478,0.055 l 0.49663,0.4963 0.0493,0.8378 -0.0285,0.051 -0.0647,-0.1211 a 0.60764484,0.60764484 0 0 0 -0.0261,-0.044 l -0.62242,-0.9621 0.14804,-0.3124 z"/></g></svg>