<svg xmlns="http://www.w3.org/2000/svg" xmlns:xlink="http://www.w3.org/1999/xlink" version="1.0" x="0px" y="0px" viewBox="0 0 100 125" enable-background="new 0 0 100 100" xml:space="preserve"><path d="M97.9619141,54.5419922c0.0048828-0.1230469-0.0361328-0.2441406-0.1142578-0.3388672l-1.1777344-1.4291992  c-0.0634766-0.0771484-0.1484375-0.1333008-0.2441406-0.1616211l-2.0791016-0.6162109l-0.4443359-0.7612305l-0.1083984-0.5942383  l1.6816406-1.8344727c0.0927734-0.1005859,0.1396484-0.2348633,0.1308594-0.371582  c-0.0097656-0.1362305-0.0742188-0.2626953-0.1787109-0.3505859l-1.9257812-1.6044922l-0.7089844-1.6552734  c-0.03125-0.0712891-0.0771484-0.1342773-0.1367188-0.1845703l-2.6669922-2.2636719L89.78125,41.7519531  c-0.0634766-0.1870117-0.2294922-0.3198242-0.4267578-0.3388672l-2.3554688-0.2285156l-1.2998047-2.1401367  c-0.1152344-0.1879883-0.3398438-0.2768555-0.5546875-0.2241211l-3.2714844,0.8569336l-0.8662109-2.0893555l0.1728516-0.6342773  l2.3496094-2.4296875c0.0244141-0.0253906,0.0458984-0.0532227,0.0644531-0.0830078l0.4199219-0.6723633  c0.0996094-0.1591797,0.1015625-0.3608398,0.0048828-0.5214844l-0.1386719-0.2314453l0.2373047-0.793457l2.0175781-3.8671875  c0.0244141-0.046875,0.0410156-0.097168,0.0498047-0.1489258L86.4375,26.6923828  c0.0185547-0.1137695-0.0019531-0.2304688-0.0595703-0.3305664l-0.6728516-1.1767578  c-0.0361328-0.0649414-0.0878906-0.1206055-0.1484375-0.1630859l-1.0927734-0.7568359  c-0.03125-0.0209961-0.0634766-0.0385742-0.0976562-0.0522461l-3.4248047-1.3862305l-1.4707031-1.6254883l-0.640625-1.3618164  c-0.0380859-0.0825195-0.0986328-0.152832-0.1748047-0.203125l-0.7568359-0.5043945  c-0.1279297-0.0854492-0.2880859-0.1074219-0.4355469-0.0581055l-1.2099609,0.4033203l-2.8515625,0.3168945l-2.1308594-0.8369141  l-2.5185547-2.7548828l-0.46875-2.3325195l-0.1679688-1.8496094c-0.0107422-0.1162109-0.0615234-0.2255859-0.1445312-0.3081055  l-0.6728516-0.6723633c-0.1855469-0.1831055-0.4746094-0.1958008-0.6738281-0.0307617l-1.0527344,0.8823242l-1.1972656,1.2719727  h-2.078125l-0.34375-0.2138672l-0.0556641-0.5620117v-0.8261719c0-0.0883789-0.0234375-0.1757812-0.0683594-0.2519531  l-0.5888672-1.0087891c-0.0273438-0.046875-0.0615234-0.0888672-0.1025391-0.1245117l-0.6728516-0.5888672  c-0.1787109-0.1567383-0.4453125-0.1665039-0.6337891-0.0200195l-3.1279297,2.4067383l-0.8203125-0.059082l-1.1503906-1.0073242  L54.1855469,9.894043c-0.109375-0.2026367-0.3447266-0.3061523-0.5673828-0.2460938l-1.5976562,0.4204102  c-0.0654297,0.0170898-0.1269531,0.0473633-0.1796875,0.0888672l-1.5126953,1.1772461  c-0.1357422,0.1054688-0.2080078,0.2734375-0.1904297,0.4443359l0.2158203,2.1621094l-0.2841797,0.1259766l-1.5166016-0.2890625  l-1.7685547-1.1259766c-0.1289062-0.0825195-0.2919922-0.1000977-0.4355469-0.0493164  c-0.1455078,0.0512695-0.2587891,0.1669922-0.3076172,0.3129883l-0.4824219,1.4467773l-0.9912109,1.4487305l-3.3925781,2.0195312  l-3.4414062,1.2001953l-1.5019531-0.2861328l-1.0205078-0.8740234l-0.5488281-0.8618164  c-0.0439453-0.0683594-0.1035156-0.1254883-0.1738281-0.1655273l-1.7646484-1.0087891  c-0.0419922-0.0239258-0.0869141-0.0419922-0.1347656-0.0527344l-2.5224609-0.5888672  c-0.1064453-0.0253906-0.21875-0.0141602-0.3183594,0.0307617l-1.7246094,0.7788086l-1.0224609,0.5839844l-0.6445312-0.1074219  l-0.5009766-0.6259766l-0.3720703-1.0454102l-0.4150391-3.4746094c-0.0166016-0.1416016-0.0927734-0.269043-0.2099609-0.3505859  c-0.1171875-0.0825195-0.2617188-0.1118164-0.4013672-0.0766602l-3.2636719,0.777832l-7.0107422,2.7890625L2.4970703,20.1054688  c-0.1806641,0.0864258-0.2910156,0.2724609-0.2832031,0.4716797l0.0839844,1.9335938  c0.0019531,0.0415039,0.0087891,0.0825195,0.0214844,0.1220703l0.7636719,2.5444336l0.4375,1.2412109l-0.6738281,1.4985352  c-0.0439453,0.0981445-0.0556641,0.2084961-0.0322266,0.3134766l0.3359375,1.5131836  c0.0107422,0.0458984,0.0273438,0.0898438,0.0488281,0.1308594l1.5517578,2.8354492l2.0732422,2.7519531l1.8496094,1.765625  c0.1289062,0.1225586,0.3144531,0.1689453,0.4833984,0.1186523l0.5283203-0.1547852l1.5976562-0.2524414  c0.0507812-0.0078125,0.0996094-0.0234375,0.1455078-0.0463867l2.6113281-1.3056641l1.8261719-0.2109375l1.4560547,1.8217773  l1.0361328,2.7099609l0.0878906,2.9277344l0.4208984,2.4384766c0.015625,0.0878906,0.0537109,0.1699219,0.1113281,0.2382812  l0.9248047,1.0927734c0.0751953,0.0878906,0.1777344,0.1474609,0.2919922,0.168457l4.0234375,0.7290039l2.8203125,1.1279297  l0.4990234,0.6245117l0.5732422,5.2363281c0.0078125,0.0717773,0.03125,0.1411133,0.0683594,0.2026367l0.5039062,0.8408203  c0.0732422,0.1230469,0.1962891,0.2084961,0.3369141,0.2348633c0.140625,0.0249023,0.2861328-0.0092773,0.3984375-0.097168  l0.7841797-0.6118164l0.7148438-0.6425781l0.8310547-0.0639648l1.6650391,0.4936523l2.3027344,0.3291016l2.1953125,0.7836914  l2.8359375,2.9892578l-0.1572266,0.5869141l-0.7822266,1.8413086l-0.3359375,1.3452148  c-0.0390625,0.1572266,0,0.3232422,0.1054688,0.4462891l0.4638672,0.5419922l0.6533203,1.3046875l-0.2753906,1.3754883  l-0.9130859,0.9892578c-0.0361328,0.0390625-0.0654297,0.0839844-0.0878906,0.1323242l-0.4208984,0.9248047  c-0.0292969,0.0649414-0.0449219,0.1357422-0.0449219,0.2070312v0.5883789c0,0.0673828,0.0136719,0.1347656,0.0400391,0.1967773  l0.2519531,0.5888672c0.0351562,0.0805664,0.0898438,0.1508789,0.1601562,0.203125l0.6728516,0.5043945  c0.0585938,0.0444336,0.1269531,0.074707,0.1982422,0.0898438l4.8759766,1.0087891  c0.0419922,0.0083008,0.0849609,0.0126953,0.1289062,0.0092773l4.6240234-0.2524414  c0.0644531-0.003418,0.1279297-0.0195312,0.1865234-0.046875l3.0263672-1.4291992  c0.1230469-0.0581055,0.2167969-0.1645508,0.2607422-0.2939453l0.5576172-1.6923828l0.9648438-1.8491211l1.7060547-1.4736328  l0.8359375-0.2983398l0.5029297,0.3774414l-2.2363281,6.5498047c-0.0488281,0.1455078-0.0292969,0.3056641,0.0546875,0.4345703  l1.1757812,1.8032227l-0.0751953,2.7026367l0.3359375,2.3540039c0.0341797,0.2363281,0.2304688,0.4160156,0.46875,0.4287109  l1.5400391,0.0805664l1.875,0.5473633l1.2177734,0.9077148l1.5898438,1.5756836l2.2695312,1.5131836  c0.0390625,0.0263672,0.0820312,0.0463867,0.1269531,0.0605469l1.3789062,0.4355469l0.4130859,0.9663086  c0.0234375,0.0537109,0.0556641,0.1025391,0.0957031,0.1455078l1.2158203,1.2890625l1.9902344,2.8413086l1.8496094,1.8496094  c0.0810547,0.081543,0.1884766,0.1323242,0.3037109,0.144043l0.8408203,0.0844727  c0.0166016,0.0014648,0.0332031,0.0024414,0.0498047,0.0024414c0.0517578,0,0.1025391-0.0078125,0.1513672-0.0234375  l1.7998047-0.5732422L78.8417969,90.75l2.1025391,0.1679688c0.1347656,0.0087891,0.2675781-0.0336914,0.3691406-0.1225586  l0.671875-0.5883789c0.0283203-0.0244141,0.0537109-0.0517578,0.0751953-0.0820312l0.6728516-0.9248047  c0.0214844-0.0288086,0.0390625-0.0605469,0.0537109-0.0932617l0.5722656-1.3110352l0.671875-1.2612305  c0.0742188-0.1396484,0.078125-0.3071289,0.0097656-0.4501953l-1.7392578-3.6303711l-0.3359375-1.0932617  c-0.015625-0.0517578-0.0400391-0.1010742-0.0722656-0.1450195l-1.4052734-1.9516602l0.0605469-0.7197266l0.4541016-0.8325195  c0.0576172-0.105957,0.0751953-0.2294922,0.0488281-0.3476562L80.90625,76.7104492l0.2929688-1.4663086l1.1943359-1.5908203  c0.0205078-0.0288086,0.0390625-0.0595703,0.0537109-0.0917969l0.9121094-1.9916992l1.3984375-2.6333008l2.7636719-2.9936523  l1.7109375,0.5698242c0.0351562,0.0117188,0.0712891,0.0195312,0.1083984,0.0234375l0.5390625,0.0537109l0.3925781,0.9799805  c0.0449219,0.1132812,0.1308594,0.206543,0.2402344,0.2612305l0.1679688,0.0839844  c0.1376953,0.0683594,0.2988281,0.0698242,0.4384766,0.0043945c0.1386719-0.0664062,0.2402344-0.1928711,0.2734375-0.3432617  l0.1367188-0.6625977l1.5351562-3.4731445l4.9121094-3.0288086c0.1621094-0.1005859,0.2539062-0.2841797,0.2353516-0.4741211  l-0.3339844-3.3779297L97.9619141,54.5419922z M92.4072266,62.6704102  c-0.0859375,0.0532227-0.1533203,0.1313477-0.1943359,0.2236328l-1.4306641,3.2583008l-0.0869141-0.2158203  C90.6259766,65.7636719,90.4667969,65.6435547,90.28125,65.625l-0.7851562-0.0786133L87.53125,64.8920898  c-0.1875-0.0644531-0.3925781-0.0092773-0.5253906,0.1347656l-3.0263672,3.2788086  c-0.0292969,0.0317383-0.0546875,0.0668945-0.0742188,0.1049805l-1.4414062,2.7163086l-0.9033203,1.96875l-1.2294922,1.6386719  c-0.0439453,0.0600586-0.0751953,0.1289062-0.0898438,0.2021484l-0.3359375,1.6811523  c-0.0136719,0.0683594-0.0126953,0.1386719,0.0019531,0.206543l0.1279297,0.5737305l-0.4150391,0.7602539  c-0.0332031,0.0610352-0.0527344,0.1279297-0.0585938,0.1972656l-0.0849609,1.0087891  c-0.0097656,0.1186523,0.0224609,0.2373047,0.0927734,0.3339844l1.4658203,2.0361328l0.3378906,1.0820312l1.6572266,3.4711914  l-0.5703125,1.0727539l-0.5673828,1.2954102l-0.6074219,0.8359375l-0.4716797,0.4130859l-1.9794922-0.1508789l-2.6054688,0.2519531  c-0.0351562,0.003418-0.0703125,0.0102539-0.1035156,0.0209961l-1.7509766,0.5576172L73.8125,90.527832l-1.6660156-1.6557617  l-1.9794922-2.8300781l-1.2011719-1.2807617l-0.46875-1.0961914c-0.0576172-0.1337891-0.1708984-0.2363281-0.3095703-0.2797852  l-1.5302734-0.4833984l-2.1337891-1.4111328l-1.5673828-1.5595703l-1.3447266-1.0087891  c-0.0478516-0.0361328-0.1015625-0.0634766-0.1601562-0.0800781l-2.0175781-0.5888672  c-0.0371094-0.0107422-0.0751953-0.0170898-0.1132812-0.0195312l-1.1884766-0.0625l-0.2714844-1.8608398l0.0839844-2.7739258  c0.0029297-0.1020508-0.0253906-0.2026367-0.0810547-0.2880859l-1.1279297-1.7299805l2.2753906-6.6630859  c0.0693359-0.2050781,0-0.4316406-0.1738281-0.5615234l-1.0087891-0.7568359  c-0.1347656-0.1010742-0.3095703-0.1259766-0.4677734-0.0708008l-1.1767578,0.4204102  c-0.0585938,0.0205078-0.1123047,0.0517578-0.1591797,0.0922852l-1.8496094,1.597168  c-0.0478516,0.0410156-0.0869141,0.0913086-0.1162109,0.1469727l-1.0400391,2.0068359l-0.5205078,1.5629883l-2.7451172,1.2958984  l-4.4609375,0.2436523l-4.703125-0.9726562l-0.4765625-0.3574219l-0.1591797-0.371582V68.753418l0.3427734-0.7529297  L41.25,66.9667969c0.0625-0.0678711,0.1054688-0.1513672,0.1230469-0.2412109l0.3359375-1.6816406  c0.0214844-0.109375,0.0068359-0.222168-0.0429688-0.3217773l-0.7568359-1.5131836  c-0.0185547-0.0366211-0.0410156-0.0708008-0.0673828-0.1015625l-0.3369141-0.3935547l0.2490234-1.0180664l0.7792969-1.8310547  l0.2519531-0.9248047c0.0458984-0.168457,0.0009766-0.3486328-0.1201172-0.4755859l-3.1103516-3.2788086  c-0.0537109-0.0566406-0.1201172-0.1000977-0.1943359-0.1264648l-2.3544922-0.8408203  c-0.03125-0.0112305-0.0644531-0.0195312-0.0976562-0.0244141l-2.2802734-0.3203125l-1.6816406-0.5043945  c-0.0595703-0.0185547-0.1191406-0.0249023-0.1816406-0.0195312L30.671875,53.434082  c-0.1103516,0.0083008-0.2138672,0.0532227-0.2958984,0.1269531L29.5625,54.2944336l-0.3115234,0.2421875L29.09375,54.2739258  l-0.5771484-5.2719727c-0.0107422-0.0947266-0.046875-0.184082-0.1064453-0.2583008l-0.6728516-0.8408203  c-0.0537109-0.0673828-0.125-0.1196289-0.2050781-0.1518555l-3.0380859-1.2045898l-3.9423828-0.7241211l-0.7226562-0.8530273  l-0.3896484-2.2329102l-0.0839844-2.9423828c-0.0019531-0.0561523-0.0126953-0.1118164-0.0332031-0.1645508l-1.0927734-2.8583984  c-0.0175781-0.0458984-0.0419922-0.0893555-0.0722656-0.128418L16.46875,34.5322266  c-0.1064453-0.1323242-0.2685547-0.203125-0.4453125-0.1811523l-2.1855469,0.2524414  c-0.0576172,0.0063477-0.1142578,0.0234375-0.1660156,0.0493164l-2.6220703,1.3110352l-1.5800781,0.2529297L9.15625,36.3061523  l-1.5859375-1.5063477l-1.9794922-2.6293945l-1.4794922-2.7124023l-0.2841797-1.2822266l0.6875-1.5297852  c0.0527344-0.1171875,0.0585938-0.25,0.015625-0.3710938l-0.4970703-1.4072266l-0.7382812-2.4624023L3.2275391,20.862793  l11.3564453-5.4750977l6.9091797-2.7529297l2.6494141-0.6269531l0.3544922,2.9741211  c0.0039062,0.0371094,0.0126953,0.0737305,0.0253906,0.1088867l0.4199219,1.1772461  c0.0185547,0.0522461,0.0458984,0.1010742,0.0800781,0.1445312l0.6728516,0.8408203  c0.0771484,0.0961914,0.1865234,0.1606445,0.3085938,0.1806641l1.0087891,0.1679688  c0.1142578,0.0180664,0.2294922-0.0019531,0.3300781-0.059082l1.1337891-0.6503906l1.5273438-0.6875l2.2871094,0.5336914  l1.59375,0.9111328l0.5224609,0.8208008c0.0263672,0.0415039,0.0595703,0.0791016,0.0966797,0.1113281l1.1777344,1.0087891  c0.0664062,0.0566406,0.1464844,0.0952148,0.2314453,0.1113281l1.7646484,0.3359375  c0.0878906,0.0170898,0.1748047,0.0107422,0.2587891-0.019043l3.6152344-1.2607422  c0.03125-0.0112305,0.0615234-0.0253906,0.0908203-0.0424805l3.53125-2.1020508  c0.0625-0.0371094,0.1162109-0.0874023,0.1572266-0.1474609l1.0927734-1.597168  c0.0253906-0.0380859,0.046875-0.0800781,0.0615234-0.1240234l0.3017578-0.9057617l1.3095703,0.8334961  c0.0537109,0.0336914,0.1123047,0.0576172,0.1748047,0.0693359l1.7646484,0.3364258  c0.0996094,0.019043,0.203125,0.0068359,0.296875-0.0341797l0.7568359-0.3364258  c0.1972656-0.0878906,0.3154297-0.2919922,0.2939453-0.5068359l-0.2236328-2.2470703l1.2138672-0.9448242l1.1171875-0.2944336  l0.4023438,0.746582c0.0283203,0.0522461,0.0664062,0.0996094,0.1113281,0.1386719l1.3447266,1.1772461  c0.0820312,0.0717773,0.1845703,0.1147461,0.2929688,0.1225586l1.1777344,0.0844727  c0.1328125,0.0097656,0.2431641-0.0273438,0.3408203-0.1020508l2.953125-2.2724609L60.4169922,10.875l0.4794922,0.8208008  l-0.0009766,0.7060547c0,0.0166016,0.0009766,0.0336914,0.0029297,0.050293l0.0839844,0.8408203  c0.0146484,0.1538086,0.1005859,0.2924805,0.2324219,0.3745117l0.6728516,0.4199219  c0.0791016,0.0493164,0.1708984,0.0756836,0.2646484,0.0756836h2.4375c0.1376953,0,0.2695312-0.0571289,0.3642578-0.1572266  l1.3017578-1.3876953l0.6582031-0.5488281l0.2216797,0.222168l0.1591797,1.7216797l0.5039062,2.5219727  c0.0175781,0.0893555,0.0595703,0.171875,0.1210938,0.2392578l2.6904297,2.9428711  c0.0517578,0.0561523,0.1152344,0.1000977,0.1865234,0.1279297l2.3544922,0.9248047  c0.0761719,0.0297852,0.1572266,0.0410156,0.2382812,0.0317383l3.0263672-0.3364258  c0.0341797-0.0039062,0.0693359-0.0117188,0.1025391-0.0229492l1.0283203-0.3427734l0.4375,0.2915039l0.6132812,1.3032227  c0.0205078,0.0444336,0.0478516,0.0859375,0.0810547,0.1225586l1.5976562,1.765625  c0.0507812,0.0561523,0.1132812,0.0996094,0.1835938,0.1279297l3.4794922,1.4086914l0.9541016,0.6606445l0.5283203,0.9233398  l-0.2109375,1.2602539L83.1962891,31.84375l-0.3359375,1.0927734c-0.0419922,0.1357422-0.0244141,0.2822266,0.0488281,0.4038086  l0.0947266,0.1582031l-0.2304688,0.3681641l-2.4013672,2.4838867c-0.0585938,0.0605469-0.1005859,0.1347656-0.1230469,0.2163086  l-0.2519531,0.9248047c-0.0292969,0.1079102-0.0214844,0.2226562,0.0214844,0.3256836l1.1738281,2.8496094  c0.0771484,0.1948242,0.2568359,0.3095703,0.4785156,0.3144531c0.2080078-0.0063477,0.390625-0.140625,0.4580078-0.3374023  l2.9091797-0.7617188l1.2353516,2.0356445c0.0820312,0.1342773,0.2226562,0.2226562,0.3798828,0.237793l2.2822266,0.2211914  l0.1494141,0.4487305c0.0292969,0.0864258,0.0810547,0.1635742,0.1513672,0.2226562l2.6835938,2.277832l0.7099609,1.6572266  c0.03125,0.0727539,0.0791016,0.1367188,0.1396484,0.1875l1.6152344,1.3457031l-1.4951172,1.6313477  c-0.1064453,0.1152344-0.1513672,0.2734375-0.1240234,0.4272461L92.9335938,51.5  c0.0107422,0.0571289,0.03125,0.1123047,0.0605469,0.1625977l0.5888672,1.0087891  c0.0644531,0.1098633,0.1679688,0.1914062,0.2900391,0.2275391l2.1220703,0.6289062l0.9599609,1.1640625l-0.0751953,1.8950195  l0.3056641,3.137207L92.4072266,62.6704102z"/></svg>