<svg xmlns="http://www.w3.org/2000/svg" xmlns:xlink="http://www.w3.org/1999/xlink" version="1.1" x="0px" y="0px" viewBox="0 0 65 82.75" enable-background="new 0 0 65 65" xml:space="preserve"><path d="M60.65,21.747c0.02-0.207-0.01-0.392-0.03-0.522c-0.006-0.037-0.014-0.072-0.016-0.081c0.011-0.121-0.015-0.241-0.067-0.352  c-0.039-0.446-0.201-0.882-0.284-1.081c-0.014-0.033-0.034-0.08-0.062-0.133c-0.009-0.321-0.099-0.593-0.172-0.817l-0.051-0.156  c-0.262-0.896-0.972-1.432-1.9-1.432c-0.107,0-0.22,0.007-0.348,0.023l-0.104,0.015c-0.064,0.009-0.136,0.021-0.22,0.024  c-0.187-0.147-0.379-0.213-0.537-0.258c-0.178-0.187-0.374-0.289-0.517-0.341c-0.144-0.2-0.304-0.328-0.428-0.427  c-0.046-0.038-0.099-0.081-0.114-0.102c-0.053-0.068-0.102-0.139-0.163-0.23c-0.085-0.122-0.172-0.246-0.273-0.368  c-0.209-0.247-0.443-0.36-0.603-0.438c-0.031-0.015-0.063-0.026-0.089-0.045l-0.259-0.207c-0.559-0.452-1.254-1.015-2.077-1.191  c-0.314-0.065-0.695-0.036-1.044,0.027c-0.099,0.018-0.201,0.039-0.357,0.043c-0.18,0.004-0.33,0.033-0.456,0.079  c-0.028-0.013-0.057-0.025-0.058-0.025c-0.117-0.077-0.294-0.193-0.546-0.25l-0.142-0.031c-0.132-0.028-0.267-0.021-0.39,0.018  c-0.079-0.04-0.168-0.083-0.268-0.129c0,0-0.091-0.042-0.091-0.042c-0.26-0.147-0.611-0.317-0.951-0.385  c-0.117-0.103-0.266-0.168-0.427-0.183l-0.174-0.016c-0.025-0.002-0.107-0.007-0.133-0.007c-0.145,0-0.278,0.027-0.398,0.078  c-0.018-0.096-0.05-0.188-0.095-0.271c-0.017-0.2-0.112-0.386-0.268-0.516c-0.015-0.155-0.078-0.305-0.188-0.426  c-0.05-0.056-0.107-0.104-0.169-0.141l-0.021-0.043c-0.135-0.273-0.426-0.438-0.723-0.417c-0.163,0.011-0.313,0.074-0.433,0.174  c-0.082-0.087-0.185-0.155-0.302-0.196c-0.144-0.05-0.297-0.055-0.438-0.018c-0.072-0.127-0.183-0.233-0.32-0.301  c-0.142-0.07-0.296-0.091-0.447-0.068c-0.017-0.008-0.034-0.015-0.052-0.022c-0.003-0.001-0.007-0.003-0.011-0.004  c-0.095-0.084-0.212-0.146-0.344-0.175l-0.178-0.038c-0.055-0.011-0.136-0.017-0.162-0.017c-0.205-0.143-0.437-0.208-0.61-0.257  c-0.063-0.017-0.12-0.026-0.193-0.022c-0.19-0.135-0.437-0.178-0.666-0.102c-0.117-0.165-0.367-0.408-0.839-0.438  c-0.068-0.004-0.145-0.026-0.233-0.046c-0.13-0.03-0.29-0.064-0.462-0.08c-0.03-0.028-0.062-0.054-0.095-0.079  c-0.009-0.031-0.02-0.057-0.028-0.08c-0.048-0.112-0.165-0.32-0.419-0.452c0.022-0.053,0.04-0.108,0.053-0.166  c0.002-0.009,0.004-0.018,0.006-0.027c0.09-0.14,0.12-0.323,0.117-0.489c-0.001-0.047-0.008-0.096-0.021-0.144  c0.037-0.125,0.054-0.254,0.052-0.383c-0.004-0.473-0.264-0.89-0.691-1.125c0,0,0-0.001,0-0.001  c-0.001-0.082-0.016-0.163-0.044-0.242c-0.082-0.227-0.267-0.4-0.498-0.467l-0.005-0.001c-0.047-0.138-0.101-0.265-0.146-0.374  L37.34,5.642l0.652-0.387c-0.143-0.379-0.208-0.849-0.193-1.391l0.006-0.198c0.008-0.279-0.14-0.538-0.38-0.674  c-0.145-0.244-0.356-0.455-0.641-0.631c-0.31-0.192-0.764-0.076-1.007,0.195c-0.126,0.141-0.211,0.308-0.252,0.486l-0.088,0.107  c-0.428,0.522-0.914,1.114-1.126,1.92c-0.046,0.175-0.128,0.364-0.215,0.511c-0.15-0.055-0.381-0.085-0.563-0.068  c-0.136-0.054-0.268-0.081-0.401-0.081c-0.127,0-0.338,0.053-0.45,0.115c-0.072,0.04-0.133,0.084-0.184,0.128l-0.017-0.009  c-0.147-0.224-0.333-0.328-0.489-0.376c-0.131-0.101-0.327-0.208-0.601-0.208c-0.23,0-0.41,0.077-0.597,0.157  c-0.053,0.022-0.108,0.063-0.283,0.043c-0.091-0.022-0.202-0.044-0.332-0.044c-0.38,0-0.7,0.182-0.952,0.541  c-0.041,0.059-0.108,0.168-0.151,0.313c-0.044,0.008-0.087,0.017-0.127,0.027c-0.172-0.089-0.356-0.135-0.542-0.135  c-0.435,0-0.749,0.242-0.956,0.455c-0.12,0.018-0.233,0.053-0.341,0.106c-0.104,0.053-0.187,0.114-0.265,0.18  C26.599,6.74,26.255,6.79,26,7.022c-0.058-0.077-0.124-0.159-0.202-0.239c-0.023-0.086-0.062-0.169-0.115-0.244  c-0.023-0.033-0.049-0.063-0.077-0.091c-0.012-0.141-0.038-0.297-0.116-0.451c-0.002-0.003-0.049-0.093-0.051-0.096  c-0.123-0.233-0.132-0.265-0.125-0.328c0.004-0.033,0.042-0.128,0.08-0.222c0.051-0.129,0.101-0.261,0.133-0.394  c0.027-0.108,0.035-0.208,0.036-0.301c0.234-0.262,0.656-0.791,0.296-1.382c-0.022-0.036-0.047-0.078-0.072-0.123  c0.034-0.364-0.135-0.6-0.254-0.719c-0.046-0.046-0.094-0.084-0.144-0.118c0.044-0.224,0.049-0.506-0.089-0.814  c-0.181-0.409-0.58-0.663-1.041-0.663c-0.125,0-0.253,0.018-0.421,0.054l-0.111-0.001c-0.093,0-0.204,0.004-0.313,0.022l-0.23,0.034  c-0.305,0.045-0.552,0.272-0.621,0.573c-0.038,0.166-0.018,0.336,0.05,0.484c-0.128,0.019-0.241,0.069-0.346,0.167  c-0.043,0.029-0.137,0.083-0.131,0.083c-0.077,0.029-0.144,0.074-0.203,0.129C21.863,2.43,21.8,2.488,21.748,2.557  c-0.045,0.021-0.108,0.043-0.161,0.06c-0.238-0.094-0.719-0.106-1.022,0.133c-0.111,0.031-0.273,0.09-0.422,0.219  c-0.168-0.062-0.385-0.082-0.587-0.026c-0.081-0.026-0.16-0.044-0.238-0.054c-0.208-0.205-0.518-0.329-0.843-0.308  c-0.077-0.062-0.175-0.126-0.304-0.182c-0.282-0.123-0.659-0.017-0.877,0.202c-0.382,0.383-0.5,1.083,0.314,1.897  c0.04,0.04,0.082,0.078,0.123,0.114c-0.023,0.432,0.129,0.756,0.237,0.987C17.984,5.633,18,5.667,18.014,5.693  c-0.075,0.361,0.015,0.616,0.147,0.791c-0.073,0.102-0.137,0.226-0.185,0.38c-0.225,0.078-0.398,0.227-0.522,0.348  c-0.017,0.011-0.089,0.039-0.199,0.082c-0.209,0.081-0.361,0.179-0.482,0.288c-0.256-0.057-0.534-0.012-0.802,0.129  c-0.068,0.036-0.129,0.075-0.186,0.117c-0.027-0.029-0.055-0.058-0.082-0.086l-0.109-0.113c-0.056-0.057-0.132-0.133-0.233-0.204  c-0.011-0.24-0.067-0.502-0.23-0.809c-0.358-0.675-0.811-0.816-1.127-0.816c-0.246,0-0.484,0.091-0.679,0.259  c-0.094-0.029-0.185-0.042-0.266-0.047c-0.207,0-0.523,0.064-0.746,0.408c-0.324-0.009-0.644-0.011-0.943-0.017  c-0.122-0.02-0.259-0.038-0.395-0.038c-0.476,0-0.857,0.221-1.048,0.609C9.753,7.333,9.787,7.721,9.811,8.004  c0.006,0.074,0.016,0.145,0.012,0.198L9.799,8.401C9.793,8.447,9.792,8.493,9.795,8.538c-0.043,0.048-0.083,0.1-0.117,0.158  C9.473,9.049,9.503,9.403,9.527,9.699L9.524,9.817c-0.01,0.318-0.031,0.979,0.619,1.405c0.001,0.001,0.043,0.028,0.07,0.045  c0.037,0.27,0.135,0.475,0.204,0.621c0.029,0.061,0.06,0.113,0.059,0.111c-0.001,0.03-0.026,0.115-0.043,0.178  c-0.038,0.131-0.074,0.266-0.095,0.41l-0.088,0.598c-0.074,0.49-0.149,0.998-0.2,1.501c-0.035,0.344-0.081,0.69-0.129,1.027  c-0.428-0.142-0.862,0.107-1.162,0.415C8.74,16.13,8.72,16.133,8.702,16.136c-0.065,0.01-0.133,0.021-0.2,0.036  c-0.054,0.011-0.118,0.017-0.184,0.023c-0.196,0.02-0.44,0.044-0.678,0.141c-0.237,0.097-0.397,0.243-0.504,0.368  c-0.333,0.115-0.51,0.336-0.594,0.464c-0.151,0.059-0.399,0.157-0.596,0.398c-0.313,0.377-0.307,0.807-0.303,1.066  c0,0.037,0.003,0.072,0.002,0.106c-0.134,0.199-0.378,0.624-0.256,1.146c0.001,0.007,0.003,0.014,0.005,0.021  c-0.251,0.136-0.61,0.39-0.736,0.926c-0.031,0.135-0.035,0.26-0.025,0.372c-0.042,0.06-0.071,0.115-0.092,0.159  c0-0.001,0-0.001,0-0.001c-0.248,0.253-0.245,0.706-0.049,1.001c0.03,0.045,0.062,0.085,0.095,0.123c0,0.008,0,0.017-0.001,0.025  c-0.005,0.257,0.123,0.499,0.337,0.641l0.05,0.033c0.001,0.004,0.003,0.012,0.007,0.022c0.046,0.128,0.116,0.321,0.271,0.516  c0.056,0.071,0.116,0.128,0.172,0.175c0.046,0.125,0.125,0.282,0.274,0.435c0.014,0.014,0.027,0.028,0.041,0.041l-0.018,0.023  c-0.134,0.176-0.184,0.402-0.135,0.619c0.049,0.216,0.19,0.4,0.387,0.501l0.092,0.048c0.324,0.17,0.658,0.177,0.905,0.182  c0.023,0,0.05,0.001,0.077,0.002c-0.035,0.187,0.002,0.381,0.106,0.542c0.12,0.187,0.317,0.311,0.538,0.339L7.8,26.641  c0.004,0,0.141,0.019,0.145,0.019c0.427,0.059,0.945,0.087,1.332-0.038c0,0.015,0.001,0.029,0.001,0.043  c0.011,0.257,0.024,0.523,0.056,0.784l0.021,0.172c0.034,0.276,0.218,0.511,0.478,0.61c0.15,0.056,0.311,0.063,0.46,0.024  c0.018,0.007,0.037,0.013,0.056,0.019c0.432,0.131,0.848-0.07,1.084-0.188c0.134,0,0.292,0.022,0.444,0.044  c0.113,0.017,0.222,0.032,0.33,0.042c0.172,0.163,0.403,0.251,0.659,0.251c0.31,0,0.597-0.132,0.6-0.134  c0.206-0.093,0.478-0.24,0.7-0.543c0.383-0.012,0.706-0.249,0.842-0.599c0.005-0.003,0.012-0.009,0.022-0.018  c0.046-0.038,0.117-0.073,0.221-0.122c0.218-0.105,0.538-0.259,0.803-0.612c0.079-0.015,0.198-0.026,0.265-0.033l0.125-0.014  c0.03-0.003,0.059-0.006,0.087-0.008c-0.035,0.151-0.044,0.334,0.007,0.549c0.004,0.073,0.009,0.146,0.02,0.216  c0.022,0.155,0.075,0.282,0.134,0.383c-0.021,0.103-0.035,0.225-0.021,0.36c0.03,0.31,0.156,0.537,0.274,0.736  c0.021,0.178,0.103,0.438,0.377,0.642c0.175,0.419,0.497,0.554,0.704,0.597c0.043,0.023,0.109,0.066,0.099,0.049  c0.333,0.468,0.542,0.607,1.122,0.743c0.194,0.045,0.424,0.041,0.574,0.015c0.129,0.117,0.338,0.261,0.633,0.281  c0.072,0.092,0.163,0.187,0.279,0.268c0.146,0.103,0.296,0.147,0.414,0.166c0.149,0.097,0.343,0.197,0.561,0.253  c0.269,0.346,0.598,0.662,1.061,0.662c0.056,0,0.154-0.011,0.209-0.024c0.299-0.069,0.612-0.029,0.834,0.107  c-0.02,0.346,0.125,0.605,0.211,0.76c0.028,0.058,0.05,0.122,0.069,0.194c-0.145,0.168-0.23,0.397-0.221,0.617  c0.02,0.445,0.274,0.749,0.425,0.929c0.033,0.04,0.07,0.077,0.067,0.036c0.008,0.047,0.01,0.104,0.014,0.165  c0.02,0.309,0.048,0.774,0.378,1.143c0.399,0.443,1,0.435,1.397,0.443l0.165-0.001c0.048,0,0.093-0.001,0.128,0.003  c0.152,0.016,0.31,0.03,0.467,0.04c0.035,0.248,0.111,0.481,0.182,0.697c0.174,0.535,0.615,0.885,1.06,1.049  c0.024,0.086,0.049,0.165,0.079,0.232c0.046,0.105,0.103,0.193,0.165,0.279c-0.002,0.006-0.004,0.013-0.006,0.019  c-0.033,0.099-0.063,0.194-0.102,0.358c-0.04,0.151-0.102,0.392-0.058,0.674c-0.032,0.058-0.063,0.121-0.1,0.204  c-0.127,0.288-0.354,0.801-0.15,1.315c-0.04,0.073-0.072,0.156-0.092,0.249c-0.063,0.278,0,0.568,0.179,0.82  c0.031,0.042,0.06,0.079,0.094,0.119c0.031,0.166,0.084,0.301,0.148,0.409c0.023,0.092,0.061,0.188,0.12,0.287  c0,0.078,0.005,0.147,0.009,0.208c0.002,0.035,0.006,0.068,0.018,0.047c-0.131,0.338-0.054,0.654-0.01,0.914  c-0.013,0.131-0.032,0.327,0.023,0.558c0.041,0.171,0.237,0.728,1.101,0.728c0,0,0.001,0,0.001,0v-0.018  c0.278,0.12,0.549,0.147,0.765,0.169l0.18,0.022c0.25,0.058,0.587,0.084,0.882-0.06c0.103,0.042,0.201,0.068,0.288,0.087  c0.037,0.07,0.085,0.146,0.15,0.223c0.002,0.02,0.003,0.041,0.006,0.065c0.008,0.081,0.017,0.161,0.031,0.239  c0.049,0.268,0.117,0.564,0.198,0.858c0.104,0.381,0.382,1.393,1.387,1.393c0.117,0,0.238-0.016,0.361-0.048  c-0.012,0.127-0.011,0.245-0.01,0.348c0.001,0.05,0.003,0.098-0.001,0.143c-0.034,0.314-0.054,0.455-0.123,0.69  c-0.089,0.306-0.128,0.887,0.605,1.336l0.165,0.104c0.161,0.102,0.355,0.137,0.535,0.102c0.073,0.216,0.091,0.343,0.1,0.678  c0.002,0.081,0.005,0.157,0.006,0.231c-0.08,0.06-0.151,0.123-0.216,0.181c-0.039,0.021-0.08,0.037-0.124,0.056  c-0.185,0.078-0.463,0.196-0.709,0.463c-0.083,0.091-0.146,0.175-0.249,0.31c-0.302,0.17-0.587,0.42-0.873,0.765l-0.085,0.103  c-0.053,0.064-0.095,0.136-0.124,0.212c-0.12,0.158-0.201,0.326-0.259,0.445c-0.046,0.088-0.11,0.166-0.176,0.255  c-0.154,0.204-0.347,0.459-0.457,0.798c-0.05,0.156-0.12,0.343-0.208,0.41c-0.26,0.2-0.384,0.452-0.469,0.623  c-0.001,0.003-0.003,0.006-0.004,0.009c-0.206,0.092-0.36,0.271-0.418,0.489c-0.062,0.23-0.011,0.477,0.138,0.663l0.078,0.097  c0.348,0.436,0.794,0.451,1.046,0.461c0.124,0.015,0.335,0.012,0.56-0.109c0.068,0.062,0.129,0.115,0.175,0.149l0.172,0.125  c0.07,0.049,0.189,0.131,0.25,0.189c0.102,0.733,0.775,1.02,1.304,0.855c0.192,0.197,0.393,0.277,0.545,0.314  c0.08,0.074,0.199,0.163,0.383,0.247c0.025,0.008,0.072,0.022,0.099,0.027c0.037,0.009,0.074,0.017,0.111,0.023  c0.009,0.012,0.019,0.023,0.029,0.036c0.072,0.088,0.173,0.208,0.308,0.315c0.217,0.175,0.431,0.275,0.587,0.349  c0.173,0.082,0.202,0.102,0.218,0.129c0.119,0.215,0.265,0.449,0.507,0.641c-0.052,0.123-0.091,0.265-0.096,0.426  c-0.005,0.194,0.029,0.365,0.061,0.518c0.007,0.034,0.016,0.067,0.021,0.115c0.075,0.63,0.523,1.069,1.091,1.069  c0.393,0,0.756-0.217,0.999-0.596c0.05-0.078,0.103-0.152,0.166-0.241c0.222-0.311,0.498-0.698,0.581-1.275  c0.01-0.068,0.017-0.139,0.027-0.254c0.008-0.085,0.02-0.214,0.062-0.307c0.02-0.019,0.038-0.038,0.057-0.059  c0.129-0.149,0.276-0.289,0.418-0.425c0.258-0.247,0.551-0.527,0.796-0.888c0.446-0.659,0.728-1.244,0.884-1.844  c0.04-0.152,0.075-0.305,0.111-0.457c0.101-0.429,0.188-0.799,0.365-1.133c0.059-0.108,0.167-0.31,0.271-0.4  c0.047-0.041,0.098-0.078,0.149-0.115c0.147-0.108,0.346-0.255,0.515-0.472c0.022-0.026,0.042-0.054,0.061-0.083l0.055-0.077  c0.115-0.16,0.138-0.364,0.1-0.559c0.003-0.01,0.005-0.019,0.008-0.029c0.055-0.212,0.122-0.478,0.112-0.753  c0.168-0.397,0.195-0.897-0.102-1.341c-0.02-0.126-0.064-0.243-0.131-0.348c-0.035-0.161-0.098-0.305-0.159-0.429  c0.127-0.355,0.128-0.671-0.009-0.954c0.057-0.061,0.104-0.131,0.14-0.21l0.041-0.093c0.061-0.08,0.103-0.171,0.126-0.266  c0.033-0.052,0.09-0.124,0.184-0.222l0.08-0.083c0.124-0.129,0.197-0.296,0.208-0.472c0.036-0.024,0.077-0.042,0.119-0.063  c0.163-0.084,0.388-0.198,0.585-0.413c0.079-0.086,0.147-0.174,0.209-0.256c0.04-0.053,0.096-0.125,0.144-0.146  c0.033-0.014,0.074-0.031,0.12-0.054c0.256-0.006,0.448-0.111,0.599-0.247c0.133,0.08,0.29,0.114,0.446,0.106  c0.213,0.134,0.479,0.155,0.709,0.052c0.233-0.104,0.397-0.319,0.436-0.571l0.021-0.139c0.017-0.107,0.015-0.205,0.005-0.289  c0.152-0.024,0.338-0.08,0.521-0.21c0.146-0.032,0.285-0.094,0.416-0.187c0.025-0.006,0.051-0.013,0.076-0.021  c0.062-0.009,0.144-0.013,0.219-0.018c0.226-0.014,0.51-0.032,0.768-0.125c0.183,0.025,0.372,0.011,0.673-0.063  c0.127-0.027,0.23-0.043,0.327-0.047c0.236,0.125,0.529,0.117,0.763-0.036l0.151-0.1c0.167-0.11,0.276-0.276,0.318-0.459  c0.084-0.188,0.109-0.377,0.079-0.555c0.031-0.013,0.086-0.03,0.117-0.04c0.225-0.074,0.564-0.188,0.847-0.53  c0.362-0.443,0.229-0.956,0.16-1.223c-0.007-0.043,0.038-0.181,0.073-0.286l0.074-0.244c0.015-0.053,0.025-0.102,0.035-0.158  c0.232-0.197,0.616-0.542,0.659-1.045c0.134-0.233,0.169-0.481,0.188-0.639c0.639-0.485,0.479-1.402,0.415-1.772l-0.023-0.148  c-0.047-0.369-0.007-0.688,0.114-0.9c0.028-0.052,0.065-0.088,0.105-0.134c0.186-0.208,0.57-0.642,0.36-1.418  c-0.074-0.278-0.009-0.572,0.104-1.028c0.097-0.389,0.206-0.828,0.182-1.32c-0.019-0.362-0.109-0.706-0.194-1.029  c-0.044-0.17-0.092-0.346-0.116-0.515c-0.029-0.207-0.002-0.421,0.035-0.718c0.031-0.26,0.061-0.529,0.052-0.808  c-0.004-0.101-0.026-0.196-0.065-0.284c0.046-0.097,0.071-0.206,0.071-0.321c0-0.011,0-0.021,0-0.032  c0.865-0.209,1.278-1.302,1.618-2.198c0.082-0.218,0.149-0.413,0.199-0.501l0.166-0.237c0.053-0.074,0.09-0.156,0.111-0.241  c0.043-0.072,0.077-0.148,0.1-0.226c0.044-0.08,0.081-0.164,0.109-0.25c0.053-0.05,0.1-0.1,0.142-0.145l0.129-0.101  c0.1-0.052,0.249-0.13,0.395-0.263c0.278-0.25,0.541-0.603,0.833-1.132c0.125-0.087,0.222-0.21,0.275-0.356l0.038-0.104  c0.016-0.042,0.101-0.142,0.162-0.214c0.127-0.149,0.284-0.335,0.398-0.587c0.077-0.167,0.133-0.342,0.189-0.525  c0.036-0.119,0.067-0.232,0.125-0.345c0.133-0.272,0.145-0.533,0.152-0.712c0-0.021,0-0.042,0.001-0.062  c0.129-0.229,0.154-0.459,0.153-0.625c0.042-0.143,0.054-0.279,0.035-0.408C60.682,21.992,60.681,21.867,60.65,21.747z   M18.287,8.311c-0.146,0-0.292-0.058-0.4-0.157C17.993,8.251,18.139,8.298,18.287,8.311z M29.566,45.523l-0.007-0.433l-0.067-0.749  c0.03,0.001,0.069,0.011,0.112,0.028l-0.044,0.721l0.06,0.334L29.566,45.523z M59.099,22.092c-0.004,0.074,0.004,0.148,0.021,0.219  c-0.007,0.059-0.009,0.118-0.007,0.172c-0.135,0.251-0.144,0.5-0.149,0.667c-0.002,0.044,0,0.09,0.003,0.103  c-0.09,0.179-0.152,0.368-0.219,0.583c-0.033,0.109-0.066,0.222-0.116,0.331c-0.029,0.065-0.103,0.151-0.182,0.244  c-0.095,0.111-0.215,0.252-0.315,0.434c-0.085,0.072-0.155,0.16-0.203,0.255c-0.302,0.591-0.519,0.854-0.645,0.968  c-0.028,0.021-0.06,0.034-0.104,0.058c-0.091,0.049-0.214,0.115-0.332,0.219c-0.059,0.052-0.115,0.109-0.186,0.183  c-0.038,0.041-0.096,0.102-0.118,0.115c-0.179,0.108-0.302,0.272-0.344,0.477c-0.013,0.037-0.021,0.074-0.027,0.112  c-0.035,0.054-0.063,0.112-0.084,0.172c-0.149,0.096-0.267,0.244-0.323,0.415c-0.032,0.098-0.044,0.199-0.035,0.298  c-0.061,0.137-0.123,0.301-0.198,0.501c-0.082,0.216-0.232,0.613-0.383,0.914c-0.164-0.121-0.373-0.171-0.578-0.133  c-0.245,0.045-0.451,0.208-0.552,0.436c-0.137,0.183-0.177,0.416-0.124,0.629c-0.01,0.014-0.019,0.027-0.026,0.042  c-0.148,0.254-0.196,0.509-0.141,0.758c-0.049,0.117-0.068,0.247-0.053,0.376c0.009,0.069,0.007,0.136,0.002,0.293  c-0.004,0.08,0.012,0.182,0.034,0.258c0.02,0.068,0.048,0.132,0.085,0.19c-0.009,0.081-0.019,0.162-0.028,0.245  c-0.041,0.322-0.087,0.686-0.029,1.091c0.032,0.222,0.092,0.457,0.156,0.705c0.064,0.244,0.131,0.497,0.142,0.704  c0.013,0.27-0.061,0.567-0.139,0.883c-0.13,0.521-0.276,1.113-0.061,1.729c-0.02,0.029-0.045,0.055-0.086,0.101  c-0.093,0.106-0.188,0.221-0.271,0.368c-0.359,0.631-0.361,1.345-0.299,1.833l0.033,0.216c0.017,0.093,0.046,0.264,0.049,0.376  c-0.383,0.255-0.44,0.7-0.471,0.931c-0.003,0.021-0.005,0.043-0.008,0.065c-0.16,0.156-0.242,0.375-0.226,0.596  c-0.046,0.042-0.104,0.092-0.154,0.135l-0.106,0.093c-0.28,0.265-0.317,0.543-0.348,0.759l-0.058,0.186  c-0.084,0.256-0.188,0.574-0.129,0.975c0.005,0.03,0.012,0.063,0.02,0.098c-0.003,0.001-0.006,0.002-0.009,0.003  c-0.14,0.045-0.289,0.096-0.44,0.187c-0.303,0.18-0.57,0.484-0.699,0.795c-0.021,0.05-0.036,0.098-0.047,0.145  c-0.124,0.013-0.255,0.034-0.395,0.064c-0.016,0.003-0.103,0.022-0.118,0.026c-0.007,0.001-0.013,0.003-0.019,0.004  c-0.148-0.074-0.318-0.099-0.486-0.066c-0.113,0.022-0.218,0.07-0.307,0.138c-0.056-0.042-0.117-0.078-0.186-0.104  c-0.283-0.11-0.583-0.101-0.864,0.04c-0.045-0.005-0.093-0.009-0.145-0.009c-0.027,0-0.136,0.008-0.162,0.011  c-0.531,0.057-0.857,0.283-0.969,0.669c-0.005,0.017-0.01,0.035-0.015,0.056c-0.089,0.055-0.176,0.128-0.252,0.229  c-0.101,0.047-0.195,0.096-0.245,0.133c-0.071,0.045-0.136,0.107-0.189,0.182c-0.282-0.037-0.597,0.033-0.819,0.222  c-0.031,0.026-0.061,0.056-0.087,0.087c-0.169,0.028-0.321,0.114-0.435,0.24c-0.002,0-0.013,0.002-0.039,0.014  c-0.088,0.038-0.175,0.082-0.244,0.129c-0.227,0.151-0.362,0.329-0.479,0.483c-0.034,0.045-0.069,0.092-0.113,0.139  c-0.021,0.021-0.107,0.065-0.172,0.099c-0.13,0.067-0.292,0.151-0.439,0.286c-0.122,0.11-0.209,0.228-0.282,0.326  c-0.031,0.042-0.061,0.087-0.099,0.124c-0.071,0.069-0.126,0.153-0.162,0.243c-0.138,0.01-0.271,0.058-0.386,0.14  c-0.129,0.093-0.224,0.223-0.273,0.37c-0.118,0.141-0.184,0.324-0.175,0.516c0.006,0.137,0.049,0.267,0.121,0.377  c-0.002,0.012-0.003,0.023-0.004,0.035c-0.044,0.159-0.036,0.3-0.027,0.394c-0.021,0.138,0.013,0.294,0.077,0.434  c-0.055,0.106-0.087,0.225-0.092,0.344c-0.004,0.127-0.005,0.243,0.036,0.394c0.024,0.082,0.071,0.188,0.132,0.308  c0.021,0.044,0.063,0.119,0.067,0.077c-0.012,0.104-0.002,0.206,0.026,0.301c-0.019,0.12-0.004,0.246,0.049,0.371  c0.02,0.129,0.069,0.25,0.145,0.353c-0.075,0.15-0.09,0.296-0.02,0.476c0.001,0.063-0.044,0.241-0.066,0.325  c-0.026,0.104-0.05,0.206-0.065,0.303c-0.034,0.027-0.072,0.056-0.107,0.081c-0.081,0.061-0.161,0.121-0.243,0.19  c-0.275,0.241-0.455,0.538-0.61,0.825c-0.21,0.395-0.328,0.786-0.425,1.169c-0.172-0.018-0.347,0.02-0.495,0.115  c-0.007,0.004-0.079,0.052-0.171,0.123c-0.105,0.018-0.211,0.059-0.309,0.12c-0.018,0.012-0.035,0.023-0.051,0.036  c-0.227,0.107-0.521,0.356-0.458,0.92c-0.008,0.018-0.014,0.035-0.02,0.054c-0.094,0.117-0.15,0.262-0.161,0.415  c-0.028,0.018-0.059,0.035-0.078,0.046c-0.401,0.225-0.448,0.618-0.464,0.841c-0.003,0.004-0.006,0.008-0.009,0.012l-0.007-0.003  c-0.009,0.016-0.018,0.03-0.025,0.046c-0.016,0.021-0.03,0.044-0.043,0.068c-0.045,0.081-0.163,0.297-0.12,0.574  c0.01,0.061,0.027,0.119,0.05,0.174c0.001,0.027,0.004,0.053,0.009,0.079c0.011,0.066,0.031,0.131,0.059,0.19  c-0.026,0.063-0.047,0.127-0.064,0.19c-0.159-0.137-0.349-0.218-0.497-0.282c-0.031-0.015-0.084-0.104-0.135-0.195  c-0.251-0.457-0.619-0.631-0.894-0.761c-0.124-0.059-0.211-0.101-0.285-0.161c-0.019-0.015-0.06-0.064-0.095-0.106  c-0.111-0.136-0.279-0.34-0.558-0.464c-0.056-0.024-0.115-0.043-0.176-0.054c-0.021-0.003-0.043-0.007-0.064-0.011  c-0.063-0.068-0.158-0.152-0.293-0.215c-0.078-0.035-0.149-0.057-0.212-0.07c-0.131-0.173-0.309-0.395-0.586-0.543  c-0.173-0.091-0.356-0.145-0.54-0.102c-0.183-0.224-0.414-0.386-0.583-0.503l-0.228-0.181c-0.133-0.123-0.32-0.295-0.55-0.413  c0.125-0.208,0.208-0.427,0.274-0.631c0.032-0.1,0.127-0.226,0.23-0.363c0.115-0.152,0.22-0.298,0.29-0.431  c0.009-0.016,0.054-0.104,0.062-0.121c0.011-0.021,0.021-0.046,0.033-0.069c0.21-0.104,0.364-0.305,0.405-0.545  c0.092-0.09,0.179-0.158,0.26-0.204c0.292-0.163,0.427-0.349,0.527-0.485c0.024-0.033,0.051-0.072,0.09-0.114  c0.025-0.027,0.09-0.056,0.188-0.098c0.078-0.032,0.154-0.066,0.223-0.102c0.118-0.059,0.211-0.138,0.311-0.221  c0.031-0.027,0.063-0.058,0.098-0.082c0.315-0.062,0.563-0.321,0.602-0.65c0.033-0.289,0.028-0.537,0.019-0.908  c-0.014-0.47-0.065-0.744-0.222-1.175l-0.705,0.257l0.671-0.352c-0.09-0.269-0.257-0.769-0.798-0.957  c-0.087-0.032-0.182-0.056-0.277-0.069c0.016-0.104,0.028-0.214,0.041-0.336c0.011-0.097,0.012-0.207,0.011-0.326  c-0.001-0.07-0.002-0.177-0.007-0.181c0.15-0.306,0.074-0.589,0.007-0.762c0.019-0.262-0.097-0.546-0.29-0.72  c-0.136-0.133-0.363-0.355-0.733-0.399c-0.279-0.032-0.541,0.082-0.709,0.194c-0.024-0.075-0.048-0.161-0.067-0.229  c-0.063-0.229-0.12-0.481-0.161-0.707l-0.015-0.125c-0.021-0.214-0.053-0.563-0.325-0.854c-0.045-0.136-0.183-0.549-0.693-0.682  c-0.078-0.021-0.153-0.035-0.238-0.05c-0.038-0.007-0.075-0.009-0.085-0.005c-0.229-0.21-0.459-0.254-0.613-0.254  c-0.25,0-0.437,0.108-0.57,0.214c-0.003-0.001-0.005-0.001-0.005-0.001c-0.019-0.004-0.125-0.022-0.143-0.025l-0.187-0.02  c-0.128-0.013-0.261-0.025-0.399-0.095c-0.041-0.017-0.083-0.029-0.127-0.039c-0.007-0.067-0.024-0.154-0.055-0.292  c0.065-0.23,0.052-0.435,0.042-0.583c-0.003-0.045-0.007-0.106-0.005-0.122c0.065-0.295-0.048-0.522-0.146-0.663  c-0.019-0.133-0.073-0.26-0.158-0.365c-0.015-0.095-0.04-0.178-0.072-0.251c0.016-0.018,0.031-0.035,0.045-0.055  c0.151-0.201,0.191-0.465,0.106-0.701c-0.045-0.128-0.124-0.239-0.225-0.323c-0.016-0.015-0.034-0.031-0.052-0.047  c0.021-0.054,0.049-0.117,0.073-0.17l-0.686-0.303l0.752,0.177c0.114-0.19,0.321-0.535,0.154-0.919  c0.005-0.02,0.011-0.038,0.015-0.055l0.035-0.137c0.009-0.04,0.026-0.087,0.044-0.143c0.063-0.19,0.14-0.427,0.118-0.681  c-0.027-0.305-0.192-0.514-0.326-0.673c-0.011-0.031-0.019-0.067-0.029-0.108c-0.06-0.236-0.217-0.861-0.846-0.921  c-0.08-0.008-0.197-0.081-0.226-0.155c-0.051-0.156-0.114-0.35-0.12-0.428l0.04-0.109c0.035-0.094,0.066-0.185,0.086-0.276  c0.053-0.243-0.019-0.497-0.191-0.678c-0.173-0.181-0.426-0.263-0.669-0.221c-0.309,0.053-0.701,0.016-1.059-0.021  c-0.08-0.008-0.174-0.011-0.284-0.011l-0.165,0.001c-0.118,0-0.201-0.003-0.261-0.008c-0.006-0.058-0.01-0.123-0.013-0.17  c-0.007-0.118-0.016-0.231-0.032-0.325c-0.037-0.216-0.127-0.388-0.225-0.527c0.068-0.142,0.092-0.302,0.063-0.459l-0.031-0.185  c-0.05-0.31-0.107-0.661-0.281-1.018c-0.003-0.005-0.023-0.042-0.042-0.079c0.041-0.234,0.055-0.582-0.263-0.918  c-0.526-0.555-1.318-0.816-2.133-0.719c-0.042-0.052-0.101-0.128-0.182-0.24c-0.156-0.211-0.375-0.333-0.702-0.341  c-0.035-0.019-0.077-0.045-0.088-0.053c-0.009-0.009-0.019-0.018-0.028-0.027c-0.1-0.116-0.237-0.195-0.393-0.23  c-0.025-0.039-0.05-0.077-0.076-0.113c-0.218-0.295-0.531-0.416-0.812-0.372c-0.02-0.016-0.042-0.031-0.065-0.046  c-0.328-0.218-0.666-0.233-0.996-0.145c-0.082-0.02-0.144-0.03-0.138-0.015c-0.032-0.032-0.062-0.077-0.103-0.136  c-0.124-0.174-0.405-0.409-0.701-0.547c-0.033-0.077-0.08-0.162-0.152-0.241c-0.039-0.044-0.081-0.08-0.121-0.11  c-0.047-0.135-0.112-0.241-0.159-0.319c-0.013-0.021-0.029-0.048-0.037-0.057c0.042-0.129,0.109-0.341,0.051-0.592  c-0.04-0.169-0.122-0.29-0.198-0.376c-0.002-0.033-0.005-0.065-0.008-0.097c0.049-0.081,0.105-0.192,0.131-0.333  c0.072-0.388,0.037-0.983-0.303-1.38c-0.148-0.173-0.377-0.254-0.608-0.246c-0.134,0.004-0.267,0.051-0.381,0.125  c-0.194-0.005-0.365,0.002-0.582,0.026c-0.007,0.001-0.098,0.011-0.104,0.012c-0.368,0.034-0.984,0.092-1.308,0.604  c-0.044,0.07-0.09,0.097-0.269,0.183c-0.137,0.065-0.325,0.154-0.522,0.314c-0.061,0.05-0.142,0.117-0.221,0.203  c-0.374,0.004-0.664,0.21-0.853,0.602c-0.186-0.091-0.371-0.091-0.449-0.091c-0.005,0-0.098,0.001-0.103,0.001  c-0.107-0.003-0.228-0.022-0.355-0.042c-0.43-0.063-0.858-0.083-1.13,0c-0.068,0.021-0.129,0.046-0.182,0.072  c-0.002-0.04-0.003-0.079-0.005-0.118c-0.011-0.259-0.024-0.527-0.038-0.879c0.002-0.006,0.034-0.092,0.036-0.099  c0.028-0.08,0.042-0.163,0.042-0.248c0-0.117-0.022-0.23-0.065-0.335c-0.007-0.211-0.103-0.415-0.273-0.555  c-0.247-0.204-0.595-0.227-0.868-0.061c-0.25,0.153-0.446,0.386-0.612,0.583c-0.055,0.065-0.104,0.129-0.152,0.173  c-0.014,0.013-0.159,0.047-0.358,0.033c-0.095-0.265-0.255-0.504-0.435-0.658c-0.224-0.192-0.475-0.263-0.707-0.291  c-0.025-0.373-0.276-0.674-0.576-0.982c0.03,0.031,0.051,0.071,0.058,0.09l-0.708,0.249l0.67-0.375  C6.7,22.961,6.495,22.82,6.431,22.796c-0.02-0.033-0.028-0.068-0.042-0.105c-0.031-0.086-0.072-0.199-0.142-0.318  c-0.006-0.191-0.079-0.354-0.174-0.49c0.096-0.154,0.153-0.375,0.088-0.686c0.008-0.004,0.017-0.008,0.025-0.012  c0.166-0.08,0.442-0.214,0.62-0.513c0.248-0.416,0.133-0.812,0.043-1.026c0.002-0.005,0.013-0.033,0.066-0.107  c0.237-0.334,0.231-0.693,0.227-0.932c0-0.02,0-0.043-0.002-0.063c0.12-0.048,0.28-0.121,0.422-0.26  c0.073-0.071,0.125-0.14,0.17-0.207c0.188-0.087,0.32-0.208,0.411-0.292c0.026-0.024,0.051-0.051,0.062-0.061  c0.045-0.016,0.182-0.03,0.265-0.038c0.122-0.013,0.238-0.026,0.338-0.047l0.125-0.021c0.215-0.035,0.533-0.085,0.822-0.364  c0.006,0,0.012,0.001,0.018,0.001c0.136,0.125,0.315,0.196,0.503,0.197c0.032-0.008,0.072-0.002,0.108-0.007  c0.049,0.007,0.101,0.008,0.151,0.004c0.237-0.017,0.452-0.145,0.58-0.346c0.104-0.165,0.173-0.384,0.225-0.738  c0.07-0.471,0.149-1.003,0.202-1.53c0.049-0.479,0.122-0.962,0.191-1.429l0.09-0.612c0.01-0.07,0.031-0.137,0.053-0.21  c0.063-0.223,0.149-0.529,0.066-0.887c-0.044-0.194-0.118-0.348-0.171-0.457c-0.05-0.104-0.071-0.154-0.073-0.191  c-0.017-0.591-0.386-0.86-0.677-1.047c-0.001-0.042,0-0.095,0.002-0.131l0.004-0.172c0-0.027-0.001-0.055-0.002-0.083  c0.059-0.006,0.127-0.021,0.192-0.041c0.316,0.108,0.633,0.035,0.84-0.188c0.248-0.264,0.225-0.605,0.217-0.718  c-0.021-0.312-0.171-0.57-0.384-0.758c0.225,0.002,0.465,0.007,0.714,0.018c0.013,0,0.09,0.003,0.103,0.003  c0.068,0,0.232,0,0.405-0.072c0.185,0.055,0.385,0.037,0.56-0.055c0.048-0.023,0.095-0.049,0.127-0.071  c0.019-0.013,0.037-0.026,0.055-0.039C13.85,7.73,13.846,7.77,13.842,7.814c-0.013,0.115-0.04,0.353,0.101,0.589  c0.148,0.249,0.4,0.39,0.668,0.364l0.028,0.029c0.177,0.189,0.398,0.425,0.723,0.575c0.319,0.146,0.66,0.108,0.885-0.006  c0.06,0.054,0.129,0.099,0.207,0.132c0.282,0.12,0.611,0.058,0.828-0.161c0.078-0.078,0.201-0.22,0.421-0.539  c0.027-0.039,0.047-0.074,0.058-0.089l0.094-0.038c0.17-0.066,0.377-0.146,0.619-0.358c0.004,0,0.008,0,0.012-0.001  c0.208-0.018,0.43-0.159,0.558-0.325c0.099-0.12,0.228-0.278,0.318-0.527c0.195-0.068,0.635-0.292,0.835-0.521  c0.337-0.45,0.207-0.832,0.137-0.971c-0.138-0.279-0.42-0.459-0.817-0.487c-0.048-0.212-0.128-0.383-0.195-0.523  c-0.088-0.189-0.102-0.232-0.09-0.293c0.015-0.078,0.022-0.151,0.023-0.22c0.104,0.04,0.241,0.078,0.391,0.062  c0.163,0.208,0.43,0.488,0.851,0.488c0.065,0,0.162-0.012,0.225-0.029c0.22-0.059,0.558-0.239,0.588-0.854  c0.074,0.015,0.158,0.019,0.278,0.024c0.094-0.01,0.763-0.093,1.182-0.466c0.046-0.028,0.09-0.06,0.13-0.095  c0.026-0.004,0.051-0.01,0.076-0.017c0.05-0.014,0.099-0.036,0.145-0.064c0.226-0.044,0.423-0.17,0.589-0.377  c0.023-0.03,0.054-0.058,0.088-0.089c0.093,0.238,0.295,0.373,0.492,0.458c0.007,0.027,0.016,0.053,0.025,0.077  c0.024,0.055,0.049,0.108,0.074,0.159c-0.132,0.146-0.224,0.258-0.299,0.472c-0.043,0.161-0.035,0.304-0.021,0.414  c-0.017,0.068-0.045,0.133-0.077,0.214c-0.063,0.158-0.142,0.354-0.169,0.583c-0.059,0.5,0.107,0.855,0.289,1.203  c0.001,0.02,0.002,0.04,0.002,0.062c0.014,0.324,0.082,0.554,0.179,0.714c0.061,0.194,0.202,0.355,0.413,0.438  c0.038,0.029,0.115,0.136,0.182,0.228l0.075,0.101c0.165,0.212,0.377,0.292,0.532,0.332c0.296,0.333,0.797,0.267,1.035,0.142  c0.149-0.055,0.414-0.154,0.571-0.407c0.088-0.005,0.157-0.016,0.274-0.048c0.161-0.057,0.278-0.15,0.365-0.233  c0.002,0,0.003,0,0.005,0c0.153,0,0.446-0.044,0.688-0.337c0.008-0.01,0.018-0.021,0.028-0.034c0.257,0.104,0.481,0.078,0.883,0.027  c0.153,0.056,0.362,0.133,0.593,0.133c0.429,0,0.765-0.269,0.855-0.683c0.021-0.096,0.026-0.186,0.02-0.268  c0.17-0.021,0.325-0.058,0.477-0.114c0.046,0.029,0.095,0.052,0.145,0.07c0.083,0.074,0.173,0.137,0.268,0.202  c0.178,0.135,0.349,0.19,0.461,0.227c0.029,0.01,0.062,0.017,0.071,0.021c0.026,0.016,0.081,0.043,0.109,0.055  c0.283,0.12,0.605,0.05,0.818-0.156c0.044-0.021,0.084-0.046,0.119-0.071c0.063,0.012,0.091,0.018,0.242,0.011  c0.116,0.084,0.257,0.138,0.404,0.146c0.214,0.05,0.604,0.033,0.822-0.165c0.029-0.026,0.062-0.05,0.106-0.084  c0.134-0.097,0.315-0.23,0.455-0.447c0.2-0.307,0.361-0.667,0.453-1.015c0.094-0.358,0.303-0.677,0.55-0.996  c0.034,0.487,0.127,0.932,0.275,1.328c0.004,0.009,0.057,0.142,0.061,0.15c0.043,0.102,0.157,0.373,0.173,0.405  c-0.095,0.303,0.013,0.625,0.253,0.813c0.019,0.023,0.038,0.045,0.058,0.065c0.065,0.065,0.14,0.116,0.219,0.152  c0.095,0.171,0.254,0.3,0.442,0.356c-0.032,0.083-0.05,0.171-0.051,0.261l-0.021-0.021c-0.098,0.099-0.162,0.217-0.193,0.343  c-0.053,0.037-0.101,0.078-0.14,0.122c-0.133,0.114-0.221,0.268-0.251,0.437c-0.081,0.062-0.149,0.14-0.201,0.231  c-0.043,0.049-0.092,0.092-0.14,0.134c-0.042,0.037-0.079,0.077-0.11,0.12c-0.055,0.026-0.105,0.059-0.152,0.097  c-0.052,0.042-0.104,0.085-0.174,0.153c-0.177,0.159-0.261,0.384-0.246,0.605c-0.169,0.173-0.245,0.419-0.2,0.661  c0.046,0.248,0.213,0.453,0.439,0.551c0.043,0.025,0.087,0.046,0.132,0.063c0.02,0.167,0.094,0.324,0.215,0.444  c0.025,0.025,0.063,0.056,0.091,0.078c0.195,0.146,0.451,0.183,0.684,0.107c0.231-0.075,0.413-0.264,0.486-0.496  c0.031-0.098,0.041-0.198,0.031-0.295c0.092-0.143,0.132-0.307,0.108-0.474c0.01,0.002,0.021,0.004,0.032,0.007  c0.025,0.006,0.051,0.01,0.077,0.013c0.027,0.011,0.057,0.021,0.086,0.029c0.009,0.002,0.119,0.031,0.128,0.033l0.021-0.072  c0.01-0.002,0.02-0.004,0.028-0.006l-0.021,0.084c0.105,0.027,0.213,0.029,0.313,0.01c0.094,0.046,0.198,0.074,0.308,0.079  c0.026,0,0.104,0.001,0.133,0c0.146-0.01,0.282-0.064,0.396-0.15c0.079,0.007,0.177,0.027,0.242,0.042  c0,0.001-0.001,0.002-0.001,0.003c-0.042,0.216-0.072,0.355-0.154,0.478c-0.094,0.141-0.149,0.277-0.192,0.389  c-0.011,0.029-0.021,0.059-0.031,0.083c-0.037,0.008-0.073,0.019-0.107,0.033c-0.256-0.056-0.548,0.043-0.745,0.232  c-0.111-0.013-0.17,0.01-0.25,0.032c-0.125-0.041-0.261-0.052-0.396-0.026c-0.11,0.013-0.215,0.05-0.307,0.106  c-0.306,0.094-0.528,0.379-0.528,0.717c0,0.081,0.014,0.163,0.039,0.24c0.125,0.373,0.525,0.585,0.904,0.489  c0.038-0.01,0.076-0.022,0.112-0.037c0.037-0.008,0.074-0.019,0.11-0.033c0.054,0.032,0.111,0.057,0.177,0.071  c0.193,0.042,0.367,0.023,0.532-0.084c0.285,0.186,0.636,0.173,0.891-0.059l0.158-0.08c0.161-0.085,0.286-0.226,0.351-0.396  c0.169-0.003,0.338-0.066,0.479-0.181c0.071-0.059,0.129-0.13,0.172-0.208c0.028-0.045,0.052-0.094,0.07-0.145  c0.014-0.012,0.027-0.024,0.039-0.036c0.067-0.062,0.15-0.175,0.191-0.257c0.063-0.125,0.088-0.264,0.076-0.4  c0.011-0.004,0.021-0.007,0.03-0.012c0.025-0.009,0.088-0.046,0.151-0.085c0.159,0.059,0.333,0.06,0.492,0.006  c0.01,0.004,0.02,0.008,0.03,0.012c0.021,0.008,0.04,0.015,0.061,0.021c0.025,0.016,0.053,0.029,0.081,0.041  c0.051,0.022,0.103,0.038,0.155,0.048c0.068,0.029,0.142,0.049,0.217,0.057c0.06,0.03,0.122,0.051,0.187,0.065  c0.062,0.039,0.128,0.067,0.196,0.087c0.026,0.019,0.055,0.035,0.084,0.05c0.002,0.001,0.004,0.002,0.006,0.003  c0.058,0.045,0.121,0.083,0.191,0.112c0.016,0.006,0.031,0.012,0.047,0.017c0.02,0.015,0.038,0.028,0.056,0.04  c0.121,0.11,0.274,0.179,0.439,0.193c0.065,0.043,0.138,0.076,0.211,0.096c0.064,0.043,0.136,0.077,0.21,0.102  c0.091,0.246,0.307,0.433,0.578,0.479c0.128,0.023,0.251,0.01,0.365-0.029c0.007,0.01,0.013,0.019,0.02,0.028  c0.02,0.025,0.039,0.049,0.062,0.072c-0.023,0.177,0.017,0.356,0.113,0.505c-0.037,0.082-0.077,0.188-0.111,0.302  c-0.098,0.324,0.033,0.673,0.319,0.853c0.276,0.172,0.631,0.147,0.879-0.06c-0.015,0.013-0.028,0.025-0.028,0.025  c0.079-0.033,0.152-0.087,0.217-0.155c0.098,0.023,0.199,0.026,0.299,0.011c0.173-0.004,0.341-0.067,0.474-0.183  c0.161,0.007,0.294-0.03,0.416-0.102c0.095,0.037,0.224,0.095,0.361,0.173c0.033,0.02,0.098,0.051,0.204,0.1  c0.177,0.083,0.299,0.138,0.336,0.158c0.17,0.177,0.406,0.276,0.644,0.237c0.043,0.005,0.185,0.017,0.219,0.014  c0.044-0.002,0.086-0.008,0.128-0.017c0.035,0.02,0.073,0.039,0.113,0.057c0.095,0.04,0.193,0.068,0.367,0.11  c0.189,0.101,0.413,0.113,0.612,0.038c0.076-0.029,0.147-0.069,0.209-0.12c0.166-0.008,0.329-0.035,0.493-0.065  s0.402-0.047,0.46-0.035c0.47,0.101,0.988,0.52,1.446,0.891l0.274,0.219c0.141,0.11,0.279,0.176,0.367,0.218  c0.04,0.02,0.095,0.046,0.102,0.049c0.069,0.083,0.13,0.173,0.197,0.269c0.064,0.094,0.129,0.188,0.196,0.276  c0.123,0.161,0.254,0.268,0.376,0.367c0.061,0.048,0.117,0.094,0.14,0.125c0.167,0.233,0.385,0.351,0.531,0.43  c0.037,0.02,0.099,0.053,0.109,0.062c0.23,0.297,0.521,0.375,0.689,0.399c0.32,0.312,0.87,0.364,1.371,0.295l0.092-0.013  c0.34-0.043,0.521,0.029,0.615,0.352l0.064,0.202c0.048,0.145,0.093,0.283,0.096,0.316c-0.003,0.016-0.02,0.091-0.022,0.107  c-0.04,0.242,0.04,0.484,0.209,0.653c0.104,0.258,0.176,0.552,0.166,0.689c-0.009,0.124,0.021,0.247,0.078,0.357  c0.006,0.039,0.012,0.076,0.018,0.111c0.004,0.029,0.011,0.06,0.015,0.091C59.072,21.725,59.052,21.914,59.099,22.092z"/><path d="M35.718,11.755c-0.164-0.112-0.356-0.157-0.533-0.131c-0.197-0.063-0.408-0.041-0.593,0.083  c-0.312,0.155-0.476,0.505-0.396,0.843c0.088,0.371,0.438,0.622,0.831,0.571c0.074,0.024,0.152,0.036,0.23,0.036  c0.064,0,0.13-0.008,0.193-0.024c0.206-0.053,0.382-0.195,0.48-0.383c0.019-0.035,0.038-0.082,0.051-0.12  C36.089,12.312,35.995,11.944,35.718,11.755z"/></svg>