<svg xmlns="http://www.w3.org/2000/svg" viewBox="0 0 96 98.75" x="0px" y="0px"><path fill-rule="evenodd" d="M43.2710661,18.8069697 L40.4289118,18.8069697 L40.3244387,18.8014974 L35.4678362,18.2913212 L35.321434,18.2648129 L29.6385366,16.7920137 C29.4011458,16.7304907 29.1946381,16.5838818 29.0582726,16.3800585 L26.8356524,13.0579478 C26.4870791,12.5369415 26.6982923,11.8273764 27.2750483,11.581809 L33.2248921,9.05322528 L36.0523876,8.14914708 C36.2408041,8.0889018 36.4428556,8.08589102 36.6329835,8.14049559 L38.2762497,8.61244026 L37.9062118,6.23212601 C37.859511,5.93171716 37.9520058,5.62637733 38.1575611,5.40238299 L42.7406359,0.408190301 C42.93003,0.201806899 43.1973031,0.084320854 43.4774178,0.084320854 L47.9379521,0.084320854 C48.5794353,0.084320854 49.0550174,0.679764565 48.913213,1.30537798 L47.6062578,7.07140896 L48.4177378,9.06933959 C48.5040075,9.2817428 48.5146764,9.51733875 48.4479577,9.73667001 L47.5456717,12.7028474 L47.0163177,17.6044134 L49.7495873,17.1339121 C50.0660169,17.0794424 50.3893561,17.1802281 50.6187932,17.404846 L52.7769011,19.5176237 L58.3280825,20.7614813 C58.6696192,20.8380097 58.9462885,21.087533 59.0575565,21.4193813 L59.8926396,23.9099528 L65.6528601,23.9099528 C66.2051448,23.9099528 66.6528601,24.357668 66.6528601,24.9099528 L66.6528601,28.4092832 C66.6528601,28.8495484 66.3664052,29.2307635 65.9588418,29.3614232 L66.893523,29.6601326 C67.2191678,29.7642036 67.4690812,30.0274197 67.5561392,30.3580195 L68.7555975,34.9129197 C68.9225835,35.5470432 68.4443064,36.1675719 67.7885648,36.1675719 L62.4965061,36.1675719 C62.3088101,36.1675719 62.1249031,36.1147472 61.9658182,36.0151392 L59.1321283,34.2408791 L56.7400774,35.5113363 C56.2235343,35.7856808 55.5828283,35.5600954 55.3521081,35.0226478 L54.288007,32.5438942 C54.0047037,31.8839578 54.4887372,31.1494181 55.2069132,31.1494181 L56.7694646,31.1494181 L57.0622115,29.2417609 L55.6445708,27.1119463 L51.969095,26.088375 L51.4362247,27.085393 L52.4216781,30.3213484 C52.50415,30.5921631 52.4679725,30.885244 52.3221215,31.1278749 L50.906069,33.4835539 L55.6068929,35.5350379 C56.4577456,35.9063581 56.3874407,37.1358015 55.4998055,37.4077073 L50.2121232,39.0274623 C49.9551996,39.1061647 49.6774129,39.0781574 49.4413705,38.9497527 L47.2868822,37.7777324 L45.6888378,40.3081214 L43.4445802,45.0473594 L43.7556161,46.6536754 L44.2689289,46.6536754 C44.6300422,46.6536754 44.9631045,46.8483661 45.1402851,47.1630244 L46.3558471,49.3217631 L48.6463109,49.3217631 C48.7901131,49.3217631 48.9322239,49.3527777 49.0629504,49.4126914 L54.1522351,51.7451777 L56.7789944,51.7451777 C57.188803,51.7451777 57.557133,51.9952155 57.7083887,52.3760892 L59.4804682,56.838326 L61.2671577,57.5251668 L59.21938,53.1840925 C59.0706012,52.8795186 59.0862423,52.5203113 59.2609321,52.2298223 L60.5752646,50.0442392 L60.5752646,47.2502249 L58.1849892,45.765025 C57.8207756,45.5387205 57.6413779,45.1054024 57.7390401,44.6878771 L58.0968138,43.1583229 L56.8123163,41.3490871 C56.6922258,41.1799377 56.627712,40.9776276 56.627712,40.7701831 L56.627712,38.0713169 C56.627712,37.6143882 56.9374284,37.215576 57.3801317,37.1024495 L60.5664956,36.2882195 C60.7016229,36.2536897 60.8424789,36.2478075 60.9800146,36.2709508 L65.8187988,37.0851808 C66.2088764,37.1508198 66.5236023,37.4402249 66.6216521,37.8234419 L67.3323902,40.6012835 L68.6735618,40.3902651 L68.6735618,37.2570869 C68.6735618,36.447893 69.5845874,35.9737793 70.247331,36.4380698 L76.6475379,40.921986 L79.3051505,42.8561013 L81.4747555,42.0147141 C81.9834025,41.8174574 82.5562855,42.0642856 82.7622913,42.5694525 L82.9320581,42.9857542 L84.6544426,42.9857542 C84.9642473,42.9857542 85.2565572,43.1293449 85.4459124,43.3745459 L87.5375401,46.0830498 L88.7293197,48.4879803 L90.4952301,47.7315016 C90.8076693,47.5976593 91.1667017,47.6316849 91.4484358,47.8218372 L94.8492455,50.1171637 C95.0213807,50.2333438 95.1530747,50.4002336 95.2260454,50.5946651 L95.9012682,52.3938056 C96.1085219,52.9460359 95.7952468,53.5567541 95.225816,53.710575 L92.2970173,54.5017341 L88.6813226,56.247282 C88.0544016,56.5499405 87.3177639,56.1353786 87.2511536,55.4424174 L86.6734672,49.4326265 L86.1180078,49.2802017 L84.6045151,52.5451974 C84.5090962,52.7510407 84.3465152,52.9183176 84.1434717,53.0195577 L79.4899422,55.3398657 C79.4937041,55.34119 80.1083909,55.5699744 81.3340024,56.0262187 C81.6359994,56.1386491 81.8653103,56.3897214 81.9499753,56.7006468 L82.6004361,59.0894142 L84.1671352,59.0894142 L85.9584827,56.7998384 C86.3108005,56.3495304 86.9682784,56.2857631 87.4005644,56.6599741 L88.9010596,57.9588871 C89.1879275,58.207216 89.3095472,58.5965047 89.2150639,58.9639736 L88.571414,61.4672878 C88.5428716,61.5782963 88.4954571,61.6835716 88.4312422,61.7785137 L86.4769479,64.6679515 L85.608587,67.4357832 C85.4114843,68.0640324 84.6715299,68.3336225 84.1164824,67.9794067 L82.1308086,66.7122049 C81.8242531,66.5165698 81.6480685,66.1699344 81.6707085,65.8069788 L81.721321,64.9955808 L80.9373758,65.6717307 C80.4623739,66.0814181 79.7318303,65.9576982 79.4182103,65.414455 L77.9000342,62.7847162 L76.8654725,62.7847162 L75.8756903,67.3483914 C75.8053057,67.6729198 75.5784128,67.9413402 75.2701348,68.0647798 L71.7129202,69.4891468 L69.9145525,72.4653073 C69.8002761,72.6544259 69.6265799,72.8003698 69.420596,72.880342 L67.5891065,73.5914081 L67.5891065,74.430619 C67.5891065,74.7554386 67.4313416,75.0600217 67.1660294,75.2474176 L62.1521875,78.7888051 C61.4287539,79.2997823 60.4472056,78.6875042 60.587976,77.8130686 L60.9959987,75.2785184 L59.9692748,71.7162963 L52.1086875,67.4589739 L48.2446214,68.1220312 C48.0823972,68.1498682 47.91581,68.1372318 47.7596409,68.0852434 L44.1498638,66.8835532 L38.1481782,67.411013 L23.6972808,66.321025 L10.0849998,63.6866182 L6.50428008,63.6866182 C6.12681902,63.6866182 5.78152036,63.4740795 5.61148678,63.1370847 L2.95217177,57.8665078 C2.78381734,57.532841 2.81557445,57.1331426 3.03450548,56.8302467 L4.68816454,54.5423731 L3.94815432,53.2388786 C3.86270662,53.0883664 3.81778609,52.9182536 3.81778609,52.7451777 L3.81778609,48.6507107 C3.81778609,48.4110352 3.90386822,48.1793314 4.06035639,47.997794 L5.24680106,46.6214341 L4.47083211,45.4767519 C4.37053922,45.3288034 4.31173311,45.1566779 4.30053443,44.9782906 L3.90934811,38.7469641 L3.36103186,38.9872377 C2.79976504,39.2331863 2.15131862,38.9210665 1.99343426,38.3289654 C1.59176951,36.8226343 1.37326044,35.8954404 1.31778009,35.3910732 C1.13760124,35.2203378 0.868140232,35.0272731 0.492689323,34.8010891 C-0.0182931013,34.4932563 -0.147830446,33.8093773 0.215178087,33.3359971 L11.1076693,19.1316759 C11.5037118,18.6152178 12.2797442,18.6086973 12.6844092,19.1184276 L14.8169106,21.804602 L19.4264474,21.1649285 C19.7516946,21.1197934 20.0783748,21.2372098 20.3004687,21.4790718 L22.0796563,23.4166213 L25.4167797,24.9898324 L25.7081343,24.5865276 L25.7081343,23.6998208 L22.780167,23.137489 C22.3092148,23.0470401 21.9687754,22.6349958 21.9687754,22.1554366 L21.9687754,19.5125312 C21.9687754,19.3046094 22.0335861,19.1018581 22.1541898,18.9324879 L24.458075,15.6970196 C24.7393241,15.3020466 25.2634,15.1657488 25.7014412,15.3736542 L28.7361926,16.8140237 C28.8867318,16.8854734 29.01703,16.9934092 29.1152461,17.1280224 L30.8390392,19.4906203 L35.0136568,19.9952588 C35.4533169,20.0484061 35.8056551,20.3844023 35.879607,20.8210449 L36.8944153,26.8128947 C36.9190159,26.9581466 36.9112194,27.1070397 36.8715834,27.248928 L36.2112791,29.6126717 L37.4900212,29.6126717 L37.0931216,28.0938938 C37.0045606,27.7550061 37.0997655,27.3944843 37.3440957,27.1435049 L38.7731171,25.6755941 L39.9598281,23.0681058 C40.2578712,22.4132338 41.1292069,22.2779732 41.611756,22.8116711 L45.5527401,27.170388 L46.5670562,28.7609859 L46.9502991,27.3199416 L45.6448076,26.1659533 L44.0199706,24.0941399 C43.9082381,23.9496781 43.8381999,23.7773766 43.8174551,23.5959295 L43.2754012,18.8547945 C43.2735722,18.8387968 43.2721298,18.8228522 43.2710661,18.8069697 Z M65.5891065,73.9126491 L65.5891065,72.9069301 C65.5891065,72.494312 65.8425363,72.1240593 66.2271819,71.9747227 L68.3790455,71.1392731 L70.1743784,68.168135 C70.2867898,67.9821028 70.4567531,67.8377613 70.6585356,67.7569643 L74.0336902,66.4054971 L75.0818269,61.5727612 C75.1815745,61.1128464 75.588499,60.7847162 76.0591064,60.7847162 L78.4774043,60.7847162 C78.8346806,60.7847162 79.1648157,60.9753264 79.3434446,61.284742 L80.5461474,63.3680276 L82.2141651,61.9293683 C82.8846491,61.3510783 83.9204732,61.8651718 83.8653506,62.7488741 L83.7035183,65.3433016 L84.0913077,65.5907779 L84.6124742,63.9296007 C84.6415295,63.8369893 84.6839132,63.7491014 84.7382919,63.6687021 L86.6775494,60.8014964 L87.1238542,59.0657062 L86.8861068,58.8598987 L85.4420301,60.7056169 C85.2524966,60.9478655 84.9620256,61.0894142 84.6544426,61.0894142 L81.8363252,61.0894142 C81.3852263,61.0894142 80.9899755,60.7873987 80.8714567,60.3521476 L80.1551141,57.7214344 L79.3343415,57.4158692 L76.6764584,59.5016411 C75.8905573,60.1183765 74.7856921,59.3284842 75.114998,58.3853189 L76.291011,55.0170991 C76.3769453,54.7709745 76.5555972,54.5681384 76.7888995,54.451811 L82.9373847,51.3860994 L84.6593553,47.6713631 C84.8622076,47.233758 85.3479276,47.00409 85.8136216,47.1229091 L84.1632151,44.9857542 L82.2599025,44.9857542 C81.8534414,44.9857542 81.4874188,44.7397301 81.3339364,44.3633609 L79.519511,44.9180993 C79.202397,45.0410783 78.844517,44.9944417 78.5695098,44.7943013 L75.4853372,42.5495501 L70.6735618,39.178621 L70.6735618,41.2452283 C70.6735618,41.7375073 70.3152851,42.1565624 69.8289886,42.2330757 L66.7445333,42.7183804 C66.2350419,42.7985432 65.7481583,42.4780714 65.6203145,41.978408 L64.8453366,38.9494925 L60.856723,38.278322 L58.627712,38.8479141 L58.627712,40.4512972 L59.9886177,42.3681552 C60.1545813,42.6019177 60.2122348,42.8956675 60.1469394,43.1748187 L59.8498669,44.4448629 L62.1030329,45.8448698 C62.3966876,46.0273324 62.5752646,46.3485333 62.5752646,46.6942581 L62.5752646,50.3217631 C62.5752646,50.5033475 62.5258216,50.681505 62.4322411,50.8371185 L61.2550258,52.7946917 L63.3950348,57.1756319 C63.5683018,57.5303372 63.5166815,57.95378 63.263274,58.2564711 L62.3420325,59.3568786 C62.0676768,59.6845918 61.6153775,59.801719 61.2164437,59.6483606 L58.3539366,58.5479531 C58.093299,58.4477586 57.8864249,58.2431525 57.7833633,57.9836352 L56.1001528,53.7451777 L53.9339932,53.7451777 C53.7901909,53.7451777 53.6480801,53.7141632 53.5173536,53.6542495 L48.4280689,51.3217631 L45.7712997,51.3217631 C45.4101864,51.3217631 45.0771241,51.1270724 44.8999435,50.8124142 L43.6843815,48.6536754 L42.9306748,48.6536754 C42.4516883,48.6536754 42.0399669,48.3140294 41.9489105,47.8437775 L41.4187356,45.1057387 C41.3782514,44.896662 41.4055706,44.6801209 41.4967145,44.4876507 L43.9071974,39.3973919 L46.0961825,35.9175919 C46.3776063,35.4719773 46.956575,35.3212743 47.4195462,35.5731261 L50.0280388,36.9921202 L52.3297856,36.2870351 L49.0622253,34.861041 C48.5089532,34.6195877 48.2941276,33.9466946 48.605137,33.4293138 L50.378881,30.4785959 L49.4021262,27.2712047 C49.3247566,27.0171444 49.3516274,26.7427422 49.4768124,26.508517 L50.5831149,24.4385883 C50.8039434,24.025411 51.2820177,23.8209263 51.7333313,23.9466112 L56.5392922,25.2850076 C56.770343,25.3493522 56.9705718,25.4945958 57.1034677,25.694254 L58.9418868,28.4562316 C59.0800578,28.663815 59.1356868,28.915532 59.0978626,29.16201 L58.6246213,32.2458409 C59.0198233,32.0359427 59.4009687,32.0495138 59.7039098,32.2391946 L62.7837421,34.1675719 L66.49114,34.1675719 L65.7618501,31.3981193 L61.2708481,29.9628658 C60.2615814,29.64032 60.3812109,28.1755267 61.4294388,28.0210164 L64.6528601,27.5458795 L64.6528601,25.9099528 L59.173222,25.9099528 C58.7434418,25.9099528 58.3617275,25.6353408 58.2250989,25.2278563 L57.3405645,22.5898003 L52.061986,21.407025 C51.8805088,21.3663613 51.7139668,21.2758957 51.5810728,21.145793 L49.5850107,19.1916575 L46.476745,19.72671 L45.3897734,19.7412045 L45.7727983,23.091375 L47.0402537,24.7301002 L48.7377913,26.2306373 C49.0215039,26.4814248 49.1392274,26.870951 49.0419051,27.2368957 L47.9080935,31.5001779 C47.6833151,32.3453744 46.5583901,32.5151569 46.094179,31.773948 L44.0101946,28.4464367 L41.1494357,25.2824458 L40.5213126,26.6625828 C40.4735747,26.7674742 40.408065,26.8633245 40.3276766,26.9459006 L39.1708278,28.134232 L39.7524406,30.3598342 C39.9180403,30.9935187 39.4398969,31.6126717 38.7849319,31.6126717 L34.8936478,31.6126717 C34.2317208,31.6126717 33.7524315,30.9811451 33.9305206,30.3436252 L34.8851402,26.9262977 L34.0323716,21.8911982 L30.1674315,21.4239943 C29.8921489,21.3907174 29.6430418,21.244633 29.4796063,21.0206314 L27.6492398,18.5119659 L25.6010787,17.5398571 L23.9687754,19.8321873 L23.9687754,21.3292163 L26.8967427,21.8915482 C27.367695,21.9819971 27.7081343,22.3940414 27.7081343,22.8736005 L27.7081343,24.9099528 C27.7081343,25.1202079 27.6418626,25.3251139 27.5187383,25.4955476 L26.5518567,26.8339439 C26.2700015,27.2240993 25.7501959,27.3581165 25.3148345,27.1528752 L21.0493645,25.1420163 C20.932178,25.0867713 20.826843,25.0092815 20.739216,24.913855 L19.1819856,23.2180187 L14.5262113,23.8641086 C14.1756995,23.9127497 13.825581,23.7725207 13.6055555,23.4953688 L11.9148661,21.3657165 L2.44674928,33.7125864 C3.01626097,34.1684478 3.30351894,34.610685 3.30351894,35.1675719 C3.30351894,35.2865134 3.41746249,35.8237625 3.63312874,36.6844094 L4.41642718,36.341166 C5.05263903,36.0623763 5.77230099,36.5011831 5.81582139,37.1944328 L6.27949962,44.5805051 L7.33201771,46.1331428 C7.58559891,46.5072169 7.55677819,47.0048746 7.26170978,47.3471749 L5.81778609,49.0222287 L5.81778609,52.4811145 L6.74464171,54.1137287 C6.9378914,54.4541293 6.9147675,54.8759854 6.68546954,55.1932241 L5.01182277,57.5087512 L7.11980156,61.6866182 L10.1811183,61.6866182 L23.9071673,64.3312294 L38.0548855,65.4115031 L44.1813811,64.8730743 C44.3176728,64.8610963 44.4549726,64.8772132 44.5847855,64.9204277 L48.1534755,66.10844 L52.1115112,65.4292579 C52.3324641,65.3913433 52.5597485,65.4287728 52.7568754,65.5355375 L61.2903162,70.1572798 C61.5260869,70.2849741 61.7007009,70.5020018 61.7749598,70.7596436 L62.9797324,74.9396063 C63.0205385,75.0811832 63.029555,75.2300282 63.006137,75.3754956 L62.9404637,75.7834441 L65.5891065,73.9126491 Z M89.1046164,53.8220579 L91.5114665,52.6601036 L91.68544,52.595254 L93.642273,52.0666529 L93.4657511,51.5963078 L90.7815373,49.7846372 L88.7981919,50.6342605 L89.1046164,53.8220579 Z M45.5673416,12.3945109 L45.6048449,12.2108588 L46.4313998,9.49364005 L45.6350649,7.53299776 C45.5581171,7.34354593 45.5410973,7.13505843 45.5862996,6.93563497 L46.6859208,2.08432085 L43.9169908,2.08432085 L39.9563671,6.40022646 L40.4929881,9.85210737 C40.605192,10.5738731 39.9308714,11.1684955 39.2288166,10.9668659 L36.3717219,10.1463107 L33.9211911,10.9257944 L29.1691548,12.9490856 L30.5088409,14.9514905 L35.7509722,16.3100593 L40.4812917,16.8069697 L45.0908096,16.8069697 L45.5673416,12.3945109 Z"/></svg>