<svg xmlns:dc="http://purl.org/dc/elements/1.1/" xmlns:cc="http://creativecommons.org/ns#" xmlns:rdf="http://www.w3.org/1999/02/22-rdf-syntax-ns#" xmlns:svg="http://www.w3.org/2000/svg" xmlns="http://www.w3.org/2000/svg" xmlns:sodipodi="http://sodipodi.sourceforge.net/DTD/sodipodi-0.dtd" xmlns:inkscape="http://www.inkscape.org/namespaces/inkscape" viewBox="0 0 100 125" version="1.1" x="0px" y="0px"><g transform="translate(0,-952.36216)"><path style="color:#000000;font-style:normal;font-variant:normal;font-weight:normal;font-stretch:normal;font-size:medium;line-height:normal;font-family:sans-serif;text-indent:0;text-align:start;text-decoration:none;text-decoration-line:none;text-decoration-style:solid;text-decoration-color:#000000;letter-spacing:normal;word-spacing:normal;text-transform:none;direction:ltr;block-progression:tb;writing-mode:lr-tb;baseline-shift:baseline;text-anchor:start;white-space:normal;clip-rule:nonzero;display:inline;overflow:visible;visibility:visible;opacity:1;isolation:auto;mix-blend-mode:normal;color-interpolation:sRGB;color-interpolation-filters:linearRGB;solid-color:#000000;solid-opacity:1;fill:#000000;fill-opacity:1;fill-rule:evenodd;stroke:none;stroke-width:8;stroke-linecap:round;stroke-linejoin:round;stroke-miterlimit:4;stroke-dasharray:none;stroke-dashoffset:0;stroke-opacity:1;color-rendering:auto;image-rendering:auto;shape-rendering:auto;text-rendering:auto;enable-background:accumulate" d="m 53.723968,957.36139 a 0.7410006,0.7410006 0 0 0 -0.60091,0.3491 l -1.85594,2.9854 a 0.7410006,0.7410006 0 0 0 -0.11106,0.4211 l 0.31981,7.9939 -2.56973,15.7378 -1.29011,7.4198 a 0.7410006,0.7410006 0 0 0 -0.0112,0.127 l 0,5.6459 -4.12683,8.88901 a 0.7410006,0.7410006 0 0 0 -0.009,0.6042 l 1.83278,4.2762 -0.57306,2.0061 a 0.7410006,0.7410006 0 0 0 -0.0286,0.2036 l 0,4.196 a 0.7410006,0.7410006 0 0 0 0.0192,0.1668 l 0.9135,3.9597 -1.71014,3.9904 -2.5889,0.8632 a 0.7410006,0.7410006 0 0 0 -0.25795,1.2565 l 2.18696,1.9445 -3.07441,2.0495 a 0.7410006,0.7410006 0 0 0 -0.3285,0.6603 l 0.32271,5.4867 a 0.7410006,0.7410006 0 0 0 0.44789,0.6375 l 2.04586,0.8769 1.4909,2.3853 a 0.7410006,0.7410006 0 0 0 0.005,0.01 l 2.90473,4.5187 a 0.7410006,0.7410006 0 0 0 0.80316,0.3183 l 2.58202,-0.6458 a 0.7410006,0.7410006 0 0 0 0.34406,-0.1946 l 2.90509,-2.9051 a 0.7410006,0.7410006 0 0 0 -0.18125,-1.1808 l -6.8807,-3.59 0.78723,-2.6233 3.54401,-9.9884 a 0.7410006,0.7410006 0 0 0 -0.013,-0.53 l -2.17394,-5.2794 2.20577,-11.0285 3.85731,-11.25001 a 0.7410006,0.7410006 0 0 0 0.0213,-0.4048 l -1.56361,-6.8807 3.1464,-8.1817 a 0.7410006,0.7410006 0 0 0 0.0496,-0.2659 l 0,-5.7982 2.49267,-2.1997 a 0.7410006,0.7410006 0 0 0 0.21852,-0.339 l 0.88745,-2.9047 a 0.7410006,0.7410006 0 0 0 -0.70837,-0.9576 l -1.62874,0 -1.64212,-5.4256 0.44608,-2.1559 a 0.7410006,0.7410006 0 0 0 -0.32814,-0.7753 l -0.66097,-0.4204 -1.12876,-3.5367 a 0.7410006,0.7410006 0 0 0 -0.73405,-0.5152 z m -0.18993,2.4945 0.72247,2.2636 a 0.7410006,0.7410006 0 0 0 0.30824,0.3998 l 0.45621,0.2901 -0.3806,1.8393 a 0.7410006,0.7410006 0 0 0 0.0163,0.3651 l 1.85629,6.1325 a 0.7410006,0.7410006 0 0 0 0.70909,0.526 l 1.1776,0 -0.53399,1.7471 -2.58637,2.2821 a 0.7410006,0.7410006 0 0 0 -0.25071,0.5557 l 0,5.995 -3.17825,8.2635 a 0.7410006,0.7410006 0 0 0 -0.0307,0.4301 l 1.56688,6.8956 -3.80485,11.09761 a 0.7410006,0.7410006 0 0 0 -0.0257,0.095 l -2.25932,11.2969 a 0.7410006,0.7410006 0 0 0 0.0416,0.4273 l 2.15114,5.2245 -3.45536,9.7384 a 0.7410006,0.7410006 0 0 0 -0.0116,0.035 l -0.96848,3.2278 a 0.7410006,0.7410006 0 0 0 0.3672,0.8697 l 6.52833,3.4062 -2.04587,2.0459 -1.86751,0.467 -2.61458,-4.0678 -1.61174,-2.5781 a 0.7410006,0.7410006 0 0 0 -0.33609,-0.2883 l -1.83857,-0.788 -0.27097,-4.6055 3.5194,-2.3465 a 0.7410006,0.7410006 0 0 0 0.0814,-1.1703 l -1.94674,-1.7304 1.68879,-0.5633 a 0.7410006,0.7410006 0 0 0 0.4468,-0.411 l 1.93661,-4.5186 a 0.7410006,0.7410006 0 0 0 0.0409,-0.4584 l -0.94931,-4.1138 0,-4.0078 0.6172,-2.1595 a 0.7410006,0.7410006 0 0 0 -0.0315,-0.4956 l -1.80637,-4.2148 4.05664,-8.73731 a 0.7410006,0.7410006 0 0 0 0.0687,-0.3122 l 0,-5.7458 1.28035,-7.3605 a 0.7410006,0.7410006 0 0 0 10e-4,-0.01 l 2.58239,-15.8152 a 0.7410006,0.7410006 0 0 0 0.009,-0.1491 l -0.31367,-7.8415 0.88817,-1.4294 z"/></g></svg>