<svg xmlns="http://www.w3.org/2000/svg" xmlns:xlink="http://www.w3.org/1999/xlink" version="1.1" x="0px" y="0px" viewBox="0 0 100 125" style="enable-background:new 0 0 100 100;" xml:space="preserve"><g><g><path d="M59.5,87.38l2.17-5.4l0.62-3.52l-0.24-1.2l-1.09,1.09l-2.18-0.73l-1.33-1.41l-1.91-1.07l-2.7-0.83l-0.87,0.71l-1.65,2.18    l-2.11,1.02l-2.15,1.58l-1.78-0.82l-1.12-1.41l-0.72-1.66l-0.32-1.59l-1.53-2.86l-0.22-1.59l1.87-1.7l0.77-2.13l-2.6-1.39    l-1.9-2.47l-1.13-0.13l-1.5,1.94l-2.46,0.85l-8.19-0.05l-7.56-3.55l-3.04-3.14l-1.81-1.36l-1.65-3.49l1.19-1.72l-0.29-2.26    l-1.54-3.71l-1.98-0.53l0.92-2.97l-0.62-0.9l-1.81-0.64v-2.35l1.54-2.9l3.93,0.67l1.81,0.67l2.28-2.1l1.77-0.99l-0.53-1.68    l2.96-2.52l1.12,1.51l0.57-0.26v-2.32l1.49-2.29l2.59-0.04l0.51-0.68l3.21-2.11l1.8,1.68l0.49,1.54h1.04l1.73,1.48l0.11,2.34    l0.65,2.57l1.4,2.56l2.46-0.97l2.59-1.94l2.72,0.6l0.68,2.18l2.95,1.5l2.23,1.25l2.73,0.82l2.59-0.91l2.66-1.32h1.68l0.55-1.95    l1.07-2.37l3.52-0.37l1.36-0.74l1.38-2.28L70.91,28l0.48-0.86l-3.9-0.5l-0.93-2.09l0.74-1.48l3.58-0.9l0.34-3.81l0-3.75l2.44-1.55    l5.49,1.14l2.43,3.3l2.56,3.12l1.47-0.89l1.96,0.38l1.04,0.79l1.94-1.85l1.9,0.59l1.16,2.75l-2.64,1.71l-1.83,3.44l0.44,2.66    l-1.55,3.96L85.48,36l-3.94,3.22l-2.01,2.64l-1.94,0.13l0.17-2.01l0.28-1.22l-2.02-0.18l-0.35,1.95l-1.43,1.04l0.61,1.74l0.1,1.96    l3.05-2.81l2.57,2.14l-2.18,1.17l-0.9,2.29l0.42,2.56l2.6,1.86l0.92,2.39l-0.71,1.89l2.28,4.52l-2.58,2.6l-0.05,2.19l0.07,1.69    l-3.18,3.34l-0.22,2.3l-3.69,1.56l-4.45,1.03l-2.68,1l-1.15,1.32l0.15,3.74l-0.12,2.97l-1.34,0.75L59.5,87.38z M62.68,75.24    l0.64,3.21l-0.69,3.86l-1.34,3.33l2.04-0.77l0.78-0.45l0.1-2.38l-0.16-4.1l1.58-1.81l2.98-1.11l4.43-1.02l3.05-1.3l0.19-2.05    l3.13-3.29l-0.05-1.29l0.06-2.62l2.36-2.37l-2.16-4.27l0.74-1.94l-0.67-1.75l-2.7-1.92l-0.53-3.24l1.13-2.89l1.2-0.65l-0.76-0.63    l-3.98,3.66l-0.2-4.01l-0.81-2.23l1.71-1.25l0.45-2.46l4.07,0.36l-0.53,2.27l-0.06,0.78l0.33-0.02l1.85-2.41l4.01-3.28l2.34-1.67    l1.34-3.42l-0.46-2.73l2.12-3.97l2.15-1.4l-0.65-1.55l-0.89-0.28l-2.13,2.03l-1.54-1.16l-1.35-0.26l-1.89,1.14l-3.12-3.81    l-2.22-3.01l-4.72-0.98l-1.63,1.04v3.24l-0.4,4.56l-3.82,0.96l-0.33,0.65l0.51,1.14l4.8,0.61l-1.38,2.47l-2.26,0.81L68,31.83    l-1.87,0.98l-3.05,0.32l-0.81,1.77l-0.72,2.61h-2.21l-2.51,1.24l-2.95,1.04l-3.19-0.98l-2.26-1.27l-3.31-1.68l-0.63-2.03    l-1.7-0.38l-2.39,1.77l-3.35,1.32l-1.9-3.51l-0.68-2.73l-0.1-2l-1.12-0.96h-1.4l-0.63-1.98l-1.04-0.97l-2.47,1.62l-0.61,0.89    l-2.58,0.04l-1.04,1.6v2.67l-1.89,0.85l-0.96-1.3l-1.63,1.39L19.57,34l-2.43,1.36l-2.59,2.41l-2.29-0.87l-3.13-0.52l-1.09,2.04    v1.4l1.45,0.51l1.08,1.57l-0.75,2.44l1.45,0.38l1.79,4.35l0.34,2.71l-1.08,1.56l1.3,2.75l1.67,1.26l3.03,3.12l7.23,3.36h7.78    l1.93-0.7l1.66-2.15l2.11,0.24l2.09,2.72l3.11,1.6l-1.15,3.19l-1.66,1.51l0.14,0.98l1.52,2.82l0.33,1.61l0.64,1.45l0.86,1.07    l1.03,0.48l1.76-1.28l1.97-0.96l1.62-2.12l1.33-1.09l3.36,1.04l2.14,1.23l1.21,1.29l1.36,0.46L62.68,75.24z"/></g><g><path d="M81.16,81.34l-2.32-0.98l0.39-4.58l0-1.72l1.5-0.9l2.66-2.12v3.83l-1.29,2.51L81.16,81.34z M79.9,79.72l0.56,0.24    l0.72-2.98l1.21-2.35v-1.51l-1.09,0.87l-1.07,0.64v1.2L79.9,79.72z"/></g></g></svg>