<svg xmlns="http://www.w3.org/2000/svg" xmlns:xlink="http://www.w3.org/1999/xlink" xmlns:serif="http://www.serif.com/" viewBox="0 0 100 125" version="1.1" xml:space="preserve" style="" x="0px" y="0px" fill-rule="evenodd" clip-rule="evenodd" stroke-linejoin="round" stroke-miterlimit="2"><g transform="matrix(0.930332,-2.48853e-33,-1.26139e-33,0.930332,3.5115,1.99347)"><g><path d="M59.639,3.727L63.136,6.919C63.602,7.344 63.867,7.946 63.866,8.577C63.865,9.207 63.598,9.808 63.131,10.232L55.544,17.113L51.728,22.581L57.107,33.299L66.521,34.038C67.116,34.084 67.669,34.367 68.055,34.823C68.055,34.823 71.085,38.402 71.085,38.402L80.788,38.178C81.949,38.151 82.938,39.016 83.066,40.17L85.741,64.362C85.87,65.526 85.08,66.592 83.93,66.809L75.057,68.482L69.369,98.242C69.224,98.998 68.701,99.627 67.984,99.908C67.266,100.188 66.455,100.079 65.836,99.621L61.003,96.04C60.348,95.555 60.008,94.752 60.116,93.944L60.668,89.82L49.653,90.055C48.936,90.071 48.255,89.742 47.821,89.17L40.028,78.904L15.493,67.678C14.863,67.39 14.401,66.826 14.244,66.152C14.086,65.477 14.249,64.767 14.686,64.23L24.264,52.44L23.895,39.053L20.94,35.354C20.23,34.465 20.3,33.184 21.103,32.377L32.282,21.142L34.879,14.433C35.125,13.798 35.648,13.308 36.299,13.105L46.971,9.764L56.935,3.487C57.788,2.95 58.894,3.048 59.639,3.727ZM57.879,8.185L49.112,13.709C48.948,13.812 48.772,13.893 48.587,13.951L38.666,17.057L36.289,23.197C36.177,23.486 36.006,23.749 35.788,23.968L25.687,34.12L27.863,36.844C28.167,37.225 28.338,37.694 28.352,38.18L28.764,53.147C28.779,53.682 28.601,54.205 28.263,54.62L19.986,64.809L42.403,75.065C42.739,75.219 43.032,75.453 43.255,75.748L50.699,85.553L63.186,85.287C63.84,85.273 64.467,85.545 64.903,86.033C65.339,86.52 65.54,87.174 65.453,87.822L64.731,93.228L65.639,93.901L70.944,66.143C71.116,65.239 71.824,64.533 72.728,64.363L81.061,62.792L78.84,42.703L70.12,42.905C69.443,42.92 68.796,42.629 68.359,42.113C68.359,42.113 65.24,38.43 65.24,38.43L55.498,37.665C54.716,37.604 54.023,37.138 53.671,36.437L47.127,23.398C46.758,22.664 46.821,21.786 47.292,21.112L52.016,14.343C52.112,14.205 52.224,14.079 52.348,13.966L58.299,8.568L57.879,8.185Z"/></g></g></svg>