<svg xmlns:dc="http://purl.org/dc/elements/1.1/" xmlns:cc="http://creativecommons.org/ns#" xmlns:rdf="http://www.w3.org/1999/02/22-rdf-syntax-ns#" xmlns:svg="http://www.w3.org/2000/svg" xmlns="http://www.w3.org/2000/svg" xmlns:sodipodi="http://sodipodi.sourceforge.net/DTD/sodipodi-0.dtd" xmlns:inkscape="http://www.inkscape.org/namespaces/inkscape" viewBox="0 0 100 125" version="1.1" x="0px" y="0px"><g transform="translate(0,-952.36216)"><path style="color:#000000;font-style:normal;font-variant:normal;font-weight:normal;font-stretch:normal;font-size:medium;line-height:normal;font-family:sans-serif;text-indent:0;text-align:start;text-decoration:none;text-decoration-line:none;text-decoration-style:solid;text-decoration-color:#000000;letter-spacing:normal;word-spacing:normal;text-transform:none;direction:ltr;block-progression:tb;writing-mode:lr-tb;baseline-shift:baseline;text-anchor:start;white-space:normal;clip-rule:nonzero;display:inline;overflow:visible;visibility:visible;opacity:1;isolation:auto;mix-blend-mode:normal;color-interpolation:sRGB;color-interpolation-filters:linearRGB;solid-color:#000000;solid-opacity:1;fill:#000000;fill-opacity:1;fill-rule:nonzero;stroke:none;stroke-width:2.26481652px;stroke-linecap:butt;stroke-linejoin:miter;stroke-miterlimit:4;stroke-dasharray:none;stroke-dashoffset:0;stroke-opacity:1;color-rendering:auto;image-rendering:auto;shape-rendering:auto;text-rendering:auto;enable-background:accumulate" d="m 78.941356,970.58097 -4.66145,0.6382 -1.160534,1.3615 1.589772,1.3275 -0.0035,0.036 -0.570049,-0.2816 -1.124202,1.843 -0.848256,0.5712 0,0.9221 -0.372465,0 -0.927746,-2.0156 -1.661315,2.9376 -0.865291,2.0531 0.07949,0.068 -4.090268,-1.3468 2.163228,4.8295 -0.890274,0.1351 -1.324054,2.052 0.5462,2.178 -1.928167,-0.7529 -0.868699,1.5444 -0.133996,-0.08 -1.127609,-2.0327 -1.412625,-0.7472 -0.02273,-0.064 4.05393,0.1908 2.315394,-2.9229 -2.85478,-2.1485 -4.888564,-1.8509 -2.273375,-0.1828 1.829375,-0.6575 -4.566066,-2.1826 -2.733277,1.818 -0.05791,0.064 c 0,0 -0.417599,0.4731 -0.889135,0.9857 -0.235771,0.2563 -0.484594,0.5227 -0.697231,0.7404 -0.212638,0.2176 -0.414788,0.4016 -0.444003,0.4235 l -0.0045,0 -0.0045,0 c -0.0068,0.01 -0.321646,0.2052 -0.681332,0.4065 -0.359686,0.2014 -0.804053,0.4405 -1.235483,0.67 -0.86286,0.459 -1.672671,0.8767 -1.672671,0.8767 l -0.190773,0.098 -0.09539,0.1919 c 0,0 -0.335681,0.6667 -0.738111,1.4138 -0.40243,0.7472 -0.921155,1.6216 -1.086725,1.8203 -0.233317,0.2792 -0.398125,0.6127 -0.591624,1.0209 -0.19366,0.4085 -0.390571,0.873 -0.568912,1.3149 -0.277752,0.6883 -0.408807,1.06 -0.498509,1.3071 l -1.386511,0.2112 -0.958408,1.667 -2.553861,1.2888 -2.742363,1.9884 -0.497373,4.8885 0.648402,2.56303 1.643147,1.3467 2.013337,-0.428 1.535269,-1.1458 c 0.0885,0.4148 0.118678,0.657 0.255499,1.0685 3.27e-4,0 8.14e-4,0 0.0012,0 1.38e-4,5e-4 -1.37e-4,0 0,0 0.230372,0.7027 0.612681,1.5654 0.652944,1.6568 l 0.437188,2.2564 0.16352,2.4585 3.419154,-1.0311 1.676077,-0.8449 0.321362,-1.5432 -0.409935,-2.9309 2.01788,-1.2082 0.967492,-1.76013 -1.31043,-1.7419 -0.490559,-0.41 0.0863,-3.1284 1.027676,-0.084 2.9831,-3.3521 0.314551,-1.8067 0.801698,-0.5121 0.870971,0.066 0.311144,0.6269 -3.234058,3.9914 -0.111286,3.627 c -0.08779,0.1222 -0.204834,0.2705 -0.366784,0.5848 -0.108322,0.2102 -0.21641,0.4247 -0.248684,0.7313 -0.01616,0.1533 -0.0143,0.3532 0.10674,0.5701 0.12106,0.2168 0.378767,0.3785 0.591624,0.4201 l -0.0035,0 c 0.0012,2e-4 0.543322,0.2533 0.931153,0.5065 0.387831,0.2532 0.711993,0.49513 0.711993,0.49513 l 0.285027,0.2135 -0.180555,0.053 0.834634,2.4641 0.70972,0.7199 -0.190776,0.5814 -0.541659,-0.6279 -1.557976,0 -1.554575,2.4096 0.413343,3.3386 -1.695385,0.771 -1.184383,-0.7574 -3.790479,1.139 -0.655215,0.5904 -0.817599,-1.2673 -3.042149,0.4293 -0.272533,-0.6893 -0.609792,-1.0095 0,-0.4417 1.528455,-1.5296 -0.358835,-1.3309 c 0.116647,-0.1726 0.257544,-0.3618 0.454221,-0.7551 0.135176,-0.2704 0.264314,-0.5331 0.297516,-0.888 0.0166,-0.1775 0.01358,-0.419 -0.161249,-0.6621 -0.174828,-0.243 -0.500534,-0.3565 -0.732432,-0.3565 -0.399213,0 -0.705115,0.1379 -1.025405,0.2941 -0.320291,0.1562 -0.637671,0.3501 -0.926613,0.5416 -0.577883,0.3831 -1.04698,0.7631 -1.04698,0.7631 l -0.207807,0.1681 -0.631368,5.2383 0.872105,0.637 0.04883,0.2828 -2.952441,-0.091 -1.631791,0.8245 0,0.7017 -0.324769,0.035 -0.493966,-0.2748 -1.480762,1.6295 -3.070538,1.248 -0.995882,1.4331 -2.135977,0.7153 -2.325615,-1.8498 -0.252093,2.0304 -0.145351,-0.072 -1.894103,-0.3758 -1.839598,0.4043 0.701772,2.3017 1.735127,1.6273 0.111284,1.8009 0.631368,0.544 -1.745347,4.0596 -6.082027,-2.4437 -1.029948,-1.2128 -4.307156,0.6325 1.033354,1.9111 -1.535269,4.28 -2.836614,2.7594 0.981119,0 -0.223705,0.3849 0.917528,0.31 -1.016321,2.3074 3.315818,1.0209 1.277499,3.3624 2.94222,-0.9573 3.335122,1.332 1.691976,-1.533 1.57842,0 0.851666,-1.6874 0.287295,-1.0311 2.283599,-2.706 3.282887,-0.5224 0.177147,-2.103 0.99588,-0.6995 2.586793,1.3593 5.43249,-1.8033 0.345209,0.6972 0.990203,3.6383 6.90644,5.1782 0.189637,5.0827 3.576996,-3.3192 -0.350887,-1.2139 2.691263,1.2558 -1.758973,-3.8154 -2.557268,-2.2257 -1.325191,-0.5825 -2.020151,-3.4237 -1.460323,-1.0186 -0.214619,-1.9145 1.150316,-0.1454 0,2.2268 1.322921,-0.662 2.03037,4.0709 3.932424,1.6602 0,3.6122 3.277206,3.7599 1.504615,3.1784 3.05691,1.106 -0.553014,-3.1875 2.489135,-0.5258 -1.984953,-3.3691 -0.215753,-1.6023 2.554996,-0.3861 3.594028,-0.7767 3.378275,0 -2.852512,-3.4703 0.85053,-2.1314 0,-1.6522 0.650672,-0.3964 0.885734,-2.0621 1.144638,-1.7749 0.480339,-0.3929 0.266852,0.6076 1.483039,0 -1.026544,0.2225 1.871393,3.5929 1.640878,-0.427 1.908865,-2.7412 -0.116961,-1.6716 -0.465576,-0.5689 0.145351,-0.4894 1.629517,-0.6995 0.545066,0.7756 0.03634,1.7635 -1.343363,0.7881 5.623267,2.4766 7.861433,0.343 1.99858,-0.6586 6.29778,0.6574 -4.58877,-3.745 -1.35472,-3.4714 -0.47579,1.2888 -0.41221,-0.6381 0,-1.9532 1.67381,-0.344 0,-1.7647 2.34151,-3.049 -0.66316,-1.5103 -0.57573,-0.4712 -0.11015,-1.8975 -1.77714,-1.5296 -0.74265,-1.8351 3.82454,-2.7548 5.80609,-1.2242 1.64769,-0.997 -0.74947,-2.5731 -1.63179,0.1612 -0.73584,0 -0.1056,-0.7506 -1.66359,-0.1101 -0.0681,-0.68363 -0.89709,-1.8101 -1.54322,-1.1628 -1.55912,2.0213 -0.0704,0.1453 -0.32363,0 -1.10944,-0.5837 1.3831,-1.1423 0,-2.7878 -1.92816,-0.2373 -0.0943,-2.58 -2.99219,-6.7793 -3.010351,-4.4139 1.190051,-5.1906 -0.2589,-2.6243 -2.568622,-2.0337 z m -0.377005,1.3809 1.689704,1.3376 0.183962,1.8555 -1.27182,5.5404 3.266993,4.7909 2.84115,6.4375 0.12605,3.4498 1.88729,0.2316 0,1.0016 -2.43122,2.0076 3.14775,1.65683 1.47282,0 0.37246,-0.76533 0.68133,-0.8835 0.25437,0.1919 0.6518,1.31503 0.15444,1.5557 1.70901,0.1124 0.11583,0.8244 1.94633,0 0.60752,-0.06 0.16126,0.5519 -0.59163,0.3577 -5.86059,1.2355 -4.88856,3.5225 1.25138,3.0876 1.59545,1.3739 0.11129,1.9169 0.77785,0.637 0.22257,0.5076 -2.13825,2.7855 0,1.139 -1.67381,0.3441 0,3.4135 2.04968,3.1772 0.1885,-0.5087 0.2203,0.5655 1.44215,1.1776 -2.19502,-0.2294 -2.03719,0.6711 -7.374285,-0.3213 -3.255634,-1.4343 -0.05448,-2.6333 0.626823,0 0.249823,-3.0365 -5.448386,2.3381 -0.520089,1.7499 0.642724,0.7847 0.05564,0.7903 -1.366072,1.96 -0.154438,0.041 -0.590486,-1.1333 0.943642,-0.2044 -0.916391,-2.2552 -1.588639,0 -0.618875,-1.4104 -1.981546,1.625 -1.31724,2.0406 -0.763092,1.7771 -0.924345,0.5633 0,2.1382 -1.044707,2.6186 1.577284,1.9191 -0.732435,0 -3.690547,0.7983 -3.795025,0.5735 0.423564,3.1489 1.190058,2.0213 -1.939522,0.4088 0.381546,2.2041 -0.413343,-0.1499 -1.350176,-2.8526 -3.072807,-3.5247 0,-3.9926 -4.287852,-1.8101 -2.400562,-4.8148 -0.597301,0.2987 0,-1.5898 -3.919933,0.4951 0.425833,3.7962 1.714686,1.1969 2.08942,3.5418 1.530727,0.6722 2.192755,1.9089 0.136266,0.2952 -2.059895,-0.9607 0.930019,3.2182 -0.877783,0.8142 -0.106742,-2.8412 -7.047249,-5.2825 -0.905036,-3.3272 -0.910715,-1.8373 -5.987776,1.9871 -2.802548,-1.4716 -2.156417,1.5148 -0.141944,1.6886 -2.748041,0.4372 -2.785514,3.2987 -0.328175,1.1844 -0.428104,0.8472 -1.276363,0 -1.459187,1.3229 -3.014896,-1.2037 -0.225975,0.074 -1.975865,0.6427 -1.060607,-2.7912 -2.516388,-0.7756 1.000423,-2.2699 -0.755143,-0.2555 0.56437,-0.9698 -0.02839,0 0.731297,-0.7109 1.837326,-5.1213 -0.417884,-0.7722 1.721501,-0.2532 0.767634,0.9039 7.577552,3.0444 2.635622,-6.1297 -0.943646,-0.8108 -0.110149,-1.768 -1.858902,-1.7442 -0.183959,-0.6019 0.178281,-0.038 1.453509,0.2885 1.651096,0.8142 0.190773,-1.5387 1.046981,0.8335 3.229516,-1.0811 1.021998,-1.4716 2.985372,-1.2128 0.979984,-1.0788 -0.0511,-0.029 1.914544,-0.21 0,-1.0709 0.608657,-0.3077 4.233346,0.1295 -0.319091,-1.8294 0.06018,0.099 0.613199,1.5512 3.235193,-0.4566 1.200281,1.859 1.584098,-1.4285 2.928594,-0.879 1.277498,0.8176 3.227247,-1.4683 -0.47353,-3.8245 0.907309,-1.4047 0.237329,0 0.775587,0.8982 1.234349,0 0.827814,-2.5209 -1.061742,-1.0765 -0.298649,-0.8823 3.517945,-1.0448 0.02611,-0.01 c 0,0 0.495356,-0.1936 1.04244,-0.38603 0.273539,-0.096 0.559921,-0.1918 0.792616,-0.2601 0.232695,-0.068 0.470414,-0.097 0.386093,-0.097 0.03453,0 0.06166,-6e-4 0.102199,0 0.02029,0 0.03924,-4e-4 0.09652,-0.011 0.0143,0 0.03081,-0.01 0.05448,-0.014 0.02372,-0.01 0.09956,-0.036 0.09993,-0.036 3.66e-4,-10e-5 0.200822,-0.1429 0.200991,-0.143 8.7e-5,-10e-5 0.135095,-0.2078 0.13513,-0.2079 4.1e-5,0 0.0443,-0.3201 0.0443,-0.3202 -6e-6,-10e-5 -0.08851,-0.2645 -0.08857,-0.2646 -5.8e-5,-10e-5 -0.112316,-0.1407 -0.11242,-0.1408 -1.05e-4,-10e-5 -0.08501,-0.069 -0.08516,-0.069 -1.52e-4,-10e-5 -0.04436,-0.027 -0.06132,-0.036 -0.06796,-0.036 -0.0975,-0.043 -0.121508,-0.05 -0.04802,-0.014 -0.06576,-0.016 -0.08403,-0.019 -0.03651,-0.01 -0.05986,-0.01 -0.08744,-0.014 -0.110304,-0.014 -0.262027,-0.027 -0.432646,-0.041 -0.174311,-0.014 -0.232846,-0.018 -0.374732,-0.028 l -0.792616,-1.4421 -2.884309,1.2389 -2.677637,0.9947 c -0.141525,-0.102 -0.216259,-0.1622 -0.479205,-0.3338 -0.290742,-0.1899 -0.621462,-0.3276 -0.947048,-0.4724 0.01122,-0.026 0.0067,-0.023 0.02041,-0.05 0.146392,-0.2841 0.375872,-0.5984 0.375872,-0.5984 l 0.123775,-0.1658 0.110147,-3.5668 3.486149,-4.3026 -1.018591,-2.0565 -2.057622,-0.1556 -1.660181,1.0629 -0.349749,2.0077 -2.382394,2.6788 -1.679484,0.1374 -0.135131,4.9442 0.863021,0.7222 0.70745,0.9402 -0.386088,0.70183 -2.460746,1.474 0.499644,3.5679 -0.145351,0.6972 -1.007236,0.5075 -1.723772,0.5202 -0.05905,-0.8892 -0.478068,-2.463 -0.02952,-0.067 c 0,0 -0.440622,-1.0121 -0.641589,-1.6261 l 0,0 -0.0012,0 c -0.187587,-0.5628 -0.432647,-1.8215 -0.432647,-1.8215 l -0.164655,-0.87663 -1.277498,0.67343 -1.722636,1.2865 -1.111707,0.2362 -0.818735,-0.6711 -0.483746,-1.91683 0.413342,-4.071 2.180264,-1.5806 2.811632,-1.4184 0.838038,-1.4591 1.527321,-0.2328 0.131724,-0.3702 c 0,0 0.276368,-0.774 0.621148,-1.6284 0.17239,-0.4272 0.362721,-0.8732 0.538253,-1.2434 0.175531,-0.3703 0.362785,-0.6825 0.412206,-0.7416 l 0,0 c 0.388217,-0.4659 0.822615,-1.2718 1.235483,-2.0383 0.357774,-0.6643 0.57919,-1.1066 0.654079,-1.2548 0.151864,-0.078 0.725143,-0.3742 1.501202,-0.787 0.43617,-0.232 0.887519,-0.4753 1.261601,-0.6847 0.373129,-0.2089 0.629347,-0.348 0.843717,-0.5144 0.189636,-0.1433 0.362825,-0.32 0.588217,-0.5507 0.228085,-0.2335 0.483379,-0.5067 0.724482,-0.7688 0.449559,-0.4887 0.793918,-0.878 0.845989,-0.9368 l 1.972458,-1.3116 1.045847,0.4996 -0.999288,0.3589 1.487574,1.7044 3.078486,0.2476 4.537675,1.7181 1.626116,1.2241 -1.057201,1.3343 -5.34846,-0.2521 0.863018,2.3983 1.517103,0.8028 1.111708,2.0043 3.168197,1.8691 1.2105,-1.9361 1.428526,0.5575 -1.028811,-4.0993 0.692684,-1.0731 2.014476,-0.3078 -0.811924,-1.8134 0.354296,0.2907 1.737397,-0.9743 0,-0.5338 1.228669,-1.0924 -0.983392,-0.8425 0.463309,-1.097 0.356563,-0.6302 0.204398,0.444 2.532286,0 0,-1.5387 0.505322,-0.3395 0.648404,-1.0618 1.226396,0.6053 0.218026,-2.647 -1.061742,-0.8869 3.548603,-0.486 z m -9.896351,8.2963 0.236195,0.2021 -0.543932,0.4838 0,0.352 -0.280481,0.1579 -0.325906,-0.2669 0.914124,-0.9289 z m -12.269665,18.1768 0.204404,0.3725 c -0.378732,0.1386 -0.782336,0.2883 -0.797162,0.2941 l -4.562653,1.35363 3.338525,-1.24003 1.816886,-0.7802 z M 37.30286,1004.332 c -0.128823,0.2076 -0.302057,0.5007 -0.302057,0.5007 l -0.177146,0.2533 0.312277,1.1605 -1.286583,1.2866 0.291838,-2.4142 c 0.133687,-0.1051 0.335831,-0.2712 0.740381,-0.5394 0.140284,-0.093 0.278694,-0.1642 0.42129,-0.2475 z m -1.542082,3.938 0,0.7064 0.145351,0.2407 -0.238467,-0.1748 0.09312,-0.7723 z"/><path style="color:#000000;font-style:normal;font-variant:normal;font-weight:normal;font-stretch:normal;font-size:medium;line-height:normal;font-family:sans-serif;text-indent:0;text-align:start;text-decoration:none;text-decoration-line:none;text-decoration-style:solid;text-decoration-color:#000000;letter-spacing:normal;word-spacing:normal;text-transform:none;direction:ltr;block-progression:tb;writing-mode:lr-tb;baseline-shift:baseline;text-anchor:start;white-space:normal;clip-rule:nonzero;display:inline;overflow:visible;visibility:visible;opacity:1;isolation:auto;mix-blend-mode:normal;color-interpolation:sRGB;color-interpolation-filters:linearRGB;solid-color:#000000;solid-opacity:1;fill:#000000;fill-opacity:1;fill-rule:nonzero;stroke:none;stroke-width:2.26481652px;stroke-linecap:butt;stroke-linejoin:miter;stroke-miterlimit:4;stroke-dasharray:none;stroke-dashoffset:0;stroke-opacity:1;color-rendering:auto;image-rendering:auto;shape-rendering:auto;text-rendering:auto;enable-background:accumulate" d="m 14.498663,999.68407 -1.417171,0.61093 0.06586,0.6087 -0.208942,0.016 -1.05493,-0.1215 -0.438323,0.9777 -1.294532,0.8483 1.367207,1.1457 -0.601843,0.2544 -1.805532,1.4137 0.323634,1.566 0.457628,0.066 4.964642,0.7154 0.129453,-0.6019 c 0,0 0.176088,-0.8202 0.389495,-1.6318 0.106704,-0.4058 0.22438,-0.8104 0.323633,-1.0867 0.03181,-0.089 0.05155,-0.1281 0.07495,-0.1805 0.188941,-0.048 0.40099,-0.077 0.575726,-0.1386 0.295748,-0.1052 0.546201,-0.2089 0.546201,-0.2089 l 0.354293,-0.1465 0.33953,-2.7753 -1.720364,-0.7518 -1.370614,-0.57913 z m 0.0057,1.43193 0.844852,0.3566 0.814192,0.3555 -0.126046,1.0276 c -0.06038,0.023 -0.05943,0.026 -0.128318,0.05 -0.258038,0.092 -0.643821,0.159 -0.53371,0.159 -0.304876,0 -0.460708,0.1552 -0.545066,0.2453 -0.08436,0.09 -0.126203,0.1635 -0.166927,0.2373 -0.08145,0.1476 -0.142116,0.299 -0.204399,0.4724 -0.124566,0.3467 -0.244834,0.772 -0.356564,1.1969 -0.14423,0.5485 -0.189761,0.7739 -0.261177,1.0912 l -3.130723,-0.4508 0.878919,-0.6881 2.425543,-1.0254 -1.66018,-1.3899 0.133996,-0.088 0.200993,-0.4497 0.224839,0.026 1.686298,-0.1317 -0.106742,-0.9902 0.01022,-0.01 z"/><path style="color:#000000;font-style:normal;font-variant:normal;font-weight:normal;font-stretch:normal;font-size:medium;line-height:normal;font-family:sans-serif;text-indent:0;text-align:start;text-decoration:none;text-decoration-line:none;text-decoration-style:solid;text-decoration-color:#000000;letter-spacing:normal;word-spacing:normal;text-transform:none;direction:ltr;block-progression:tb;writing-mode:lr-tb;baseline-shift:baseline;text-anchor:start;white-space:normal;clip-rule:nonzero;display:inline;overflow:visible;visibility:visible;opacity:1;isolation:auto;mix-blend-mode:normal;color-interpolation:sRGB;color-interpolation-filters:linearRGB;solid-color:#000000;solid-opacity:1;fill:#000000;fill-opacity:1;fill-rule:nonzero;stroke:none;stroke-width:2.26481652px;stroke-linecap:butt;stroke-linejoin:miter;stroke-miterlimit:4;stroke-dasharray:none;stroke-dashoffset:0;stroke-opacity:1;color-rendering:auto;image-rendering:auto;shape-rendering:auto;text-rendering:auto;enable-background:accumulate" d="m 22.625824,994.45377 -0.683604,1.4467 -1.153722,-0.1056 -0.0511,0.6654 -0.06586,0.8449 -0.875512,0.7846 0.401986,0.896 -0.426968,1.04923 0.65635,0.3941 -0.417884,0.5541 0.113555,2.1848 0.951595,0.176 -0.225976,0.4997 0.384953,1.1855 0.07267,0.235 -1.672671,0.1159 -0.559827,1.0299 0,0.4134 -2.133707,1.2173 1.542083,1.3456 -0.588217,0.027 -2.692399,2.228 3.851799,0.6847 0.92207,-0.5326 3.385087,1.005 3.282887,-0.8313 -0.927748,-0.8164 1.43307,-1.6966 -0.744924,-1.6476 -0.845988,-0.3566 0.139673,-0.6734 -0.09425,-1.8293 -0.415613,-1.3377 -0.546202,-1.9543 -0.109013,-0.4917 0.423561,-0.6643 1.488712,-2.49823 -1.848682,-0.4781 1.288853,-2.1167 -3.259039,-0.9527 z m 0.709721,1.5795 0.531439,0.1556 -1.319513,2.1655 1.866851,0.4826 -0.579133,0.9709 -0.70745,1.10833 0.236195,1.0595 0.560964,2.0077 0.371326,1.1968 0.07835,1.4944 -0.327039,1.5671 1.368342,0.5779 0.190774,0.4202 -0.870971,1.0311 -1.5171,0.4383 0.677926,0.5951 -0.507593,0.1283 -2.795734,-0.829 0.431511,-0.02 -0.692688,-1.3309 -1.129876,-0.9868 1.187789,-0.6779 0,-0.8426 0.05564,-0.101 2.610638,-0.1806 -0.567777,-1.8316 -0.230517,-0.7098 0.709721,-1.5681 -1.584098,-0.2919 -0.03406,-0.6688 1.009507,-1.3411 -0.943645,-0.56673 0.213484,-0.5257 -0.238466,-0.5315 0.553015,-0.4951 0.05451,-0.7063 0.741517,0.068 0.596166,-1.2616 z m -4.03803,14.63173 -0.486017,0.2804 -0.579133,-0.1033 0.162385,-0.134 0.902765,-0.043 z"/><path style="color:#000000;font-style:normal;font-variant:normal;font-weight:normal;font-stretch:normal;font-size:medium;line-height:normal;font-family:sans-serif;text-indent:0;text-align:start;text-decoration:none;text-decoration-line:none;text-decoration-style:solid;text-decoration-color:#000000;letter-spacing:normal;word-spacing:normal;text-transform:none;direction:ltr;block-progression:tb;writing-mode:lr-tb;baseline-shift:baseline;text-anchor:start;white-space:normal;clip-rule:nonzero;display:inline;overflow:visible;visibility:visible;opacity:1;isolation:auto;mix-blend-mode:normal;color-interpolation:sRGB;color-interpolation-filters:linearRGB;solid-color:#000000;solid-opacity:1;fill:#000000;fill-opacity:1;fill-rule:nonzero;stroke:none;stroke-width:2.26481652px;stroke-linecap:butt;stroke-linejoin:miter;stroke-miterlimit:4;stroke-dasharray:none;stroke-dashoffset:0;stroke-opacity:1;color-rendering:auto;image-rendering:auto;shape-rendering:auto;text-rendering:auto;enable-background:accumulate" d="m 16.698232,974.86547 -0.861886,1.9122 -0.252093,0.073 -1.561387,0.3986 -0.683603,-0.4133 1.195738,3.6031 -2.257481,0.7937 2.314259,0.8312 1.33314,2.1542 3.812056,0.3259 2.38807,-1.0833 0,-0.9607 -0.228246,-2.3813 -0.229383,-0.9141 -0.761957,-0.1192 -1.594317,-0.5746 -0.233925,0.268 -0.33953,-0.02 -0.669977,-1.265 -0.406529,0.3759 -0.962949,-3.0036 z m -0.421291,4.4638 -0.221433,1.5103 -0.342937,-1.0333 0.56437,-0.477 z m 1.427392,0.2907 0.215755,0.4088 0.587081,0.034 0,1.3661 1.202552,-1.3752 0.867563,0.3123 0.02044,0 0.211214,2.1939 0,0.048 -1.302481,0.5904 -2.809361,-0.2396 -0.960678,-1.55 0.455357,-0.1601 -0.06018,-0.1806 1.572742,-1.4512 z"/><path style="color:#000000;font-style:normal;font-variant:normal;font-weight:normal;font-stretch:normal;font-size:medium;line-height:normal;font-family:sans-serif;text-indent:0;text-align:start;text-decoration:none;text-decoration-line:none;text-decoration-style:solid;text-decoration-color:#000000;letter-spacing:normal;word-spacing:normal;text-transform:none;direction:ltr;block-progression:tb;writing-mode:lr-tb;baseline-shift:baseline;text-anchor:start;white-space:normal;clip-rule:nonzero;display:inline;overflow:visible;visibility:visible;opacity:1;isolation:auto;mix-blend-mode:normal;color-interpolation:sRGB;color-interpolation-filters:linearRGB;solid-color:#000000;solid-opacity:1;fill:#000000;fill-opacity:1;fill-rule:nonzero;stroke:none;stroke-width:2.26481652px;stroke-linecap:butt;stroke-linejoin:miter;stroke-miterlimit:4;stroke-dasharray:none;stroke-dashoffset:0;stroke-opacity:1;color-rendering:auto;image-rendering:auto;shape-rendering:auto;text-rendering:auto;enable-background:accumulate" d="m 67.339399,958.01041 -0.188503,1.16962 -0.282748,1.74762 -1.279774,1.12533 0.04314,0.83009 -1.680617,2.77984 1.23889,0.52236 -0.43946,2.471 0.790343,0 -0.208939,0.6733 0.567775,0.8665 c 0.01523,0.042 0.04012,0.1093 0.07949,0.2339 0.05006,0.1585 0.07949,0.4232 0.07949,0.2748 0,-0.1428 -0.0062,0.016 -0.03523,0.1363 -0.02907,0.1204 -0.07058,0.2752 -0.11242,0.4247 -0.08368,0.2988 -0.16806,0.5768 -0.16806,0.5768 l -0.208939,0.6859 2.710562,0.578 0.187369,-0.3918 c 0.08883,0.07 0.176717,0.138 0.269126,0.2135 0.279172,0.2282 0.52917,0.4429 0.52917,0.4429 l 0.314545,0.2691 3.85634,-1.6988 -3.67011,-1.5205 -0.105607,-0.6359 -0.09992,-1.96 -0.567776,-0.4474 0.05791,-0.1203 0.0568,-0.955 -0.09766,-0.1715 0.346348,-0.089 -0.889141,-2.42666 1.384241,-3.44982 -2.476646,-2.15528 z m 0.33272,3.96422 -0.650672,1.6193 0.562101,1.53413 -0.612067,0.15784 0.763092,1.33087 -0.01814,0.2998 -0.408797,0.8392 0.93342,0.7347 0.07268,1.4364 0.227114,1.365 c -0.266871,-0.06 -0.556846,-0.03 -0.696098,0.064 -0.134624,0.09 -0.1992,0.1776 -0.265719,0.2623 l -0.378139,-0.081 c 0.03628,-0.1315 0.07298,-0.2662 0.102199,-0.3873 0.03552,-0.1472 0.07268,-0.2038 0.07268,-0.4451 0,-0.3453 -0.0801,-0.48 -0.140804,-0.6722 -0.06071,-0.1923 -0.121508,-0.3543 -0.121508,-0.3543 l -0.025,-0.07 -0.314546,-0.4815 0.07608,-0.2453 0.345208,-1.5421 -0.873245,0 0.348616,-1.95882 -0.805105,-0.33952 1.101487,-1.82257 -0.03064,-0.5973 0.735842,-0.64613 z m 1.481899,9.63174 0.897089,0.3725 -0.283894,0.1249 c -0.09489,-0.08 -0.110002,-0.094 -0.233922,-0.1953 -0.125944,-0.1029 -0.255358,-0.2063 -0.379273,-0.3021 z"/><path style="color:#000000;font-style:normal;font-variant:normal;font-weight:normal;font-stretch:normal;font-size:medium;line-height:normal;font-family:sans-serif;text-indent:0;text-align:start;text-decoration:none;text-decoration-line:none;text-decoration-style:solid;text-decoration-color:#000000;letter-spacing:normal;word-spacing:normal;text-transform:none;direction:ltr;block-progression:tb;writing-mode:lr-tb;baseline-shift:baseline;text-anchor:start;white-space:normal;clip-rule:nonzero;display:inline;overflow:visible;visibility:visible;opacity:1;isolation:auto;mix-blend-mode:normal;color-interpolation:sRGB;color-interpolation-filters:linearRGB;solid-color:#000000;solid-opacity:1;fill:#000000;fill-opacity:1;fill-rule:nonzero;stroke:none;stroke-width:2.26481652px;stroke-linecap:butt;stroke-linejoin:miter;stroke-miterlimit:4;stroke-dasharray:none;stroke-dashoffset:0;stroke-opacity:1;color-rendering:auto;image-rendering:auto;shape-rendering:auto;text-rendering:auto;enable-background:accumulate" d="m 37.206338,1041.9699 -1.666993,0.6791 0.227111,0.6007 0.291837,0.7721 4.789767,2.7901 0.977712,-4.582 -4.619434,-0.26 z m 0.230518,1.3309 2.780972,0.1578 -0.278211,1.3002 -2.502761,-1.458 z"/><path style="color:#000000;font-style:normal;font-variant:normal;font-weight:normal;font-stretch:normal;font-size:medium;line-height:normal;font-family:sans-serif;text-indent:0;text-align:start;text-decoration:none;text-decoration-line:none;text-decoration-style:solid;text-decoration-color:#000000;letter-spacing:normal;word-spacing:normal;text-transform:none;direction:ltr;block-progression:tb;writing-mode:lr-tb;baseline-shift:baseline;text-anchor:start;white-space:normal;clip-rule:nonzero;display:inline;overflow:visible;visibility:visible;opacity:1;isolation:auto;mix-blend-mode:normal;color-interpolation:sRGB;color-interpolation-filters:linearRGB;solid-color:#000000;solid-opacity:1;fill:#000000;fill-opacity:1;fill-rule:nonzero;stroke:none;stroke-width:2.26481652px;stroke-linecap:butt;stroke-linejoin:miter;stroke-miterlimit:4;stroke-dasharray:none;stroke-dashoffset:0;stroke-opacity:1;color-rendering:auto;image-rendering:auto;shape-rendering:auto;text-rendering:auto;enable-background:accumulate" d="m 32.432469,1035.1135 -2.485728,0.6869 -0.02952,0.4679 -0.303193,4.7648 3.14662,-0.7506 0.831226,-2.8684 -1.159401,-2.3006 z m -0.690417,1.5568 0.440595,0.8743 -0.473526,1.6352 -0.667706,0.159 0.160114,-2.5198 0.540523,-0.1487 z"/><path style="color:#000000;font-style:normal;font-variant:normal;font-weight:normal;font-stretch:normal;font-size:medium;line-height:normal;font-family:sans-serif;text-indent:0;text-align:start;text-decoration:none;text-decoration-line:none;text-decoration-style:solid;text-decoration-color:#000000;letter-spacing:normal;word-spacing:normal;text-transform:none;direction:ltr;block-progression:tb;writing-mode:lr-tb;baseline-shift:baseline;text-anchor:start;white-space:normal;clip-rule:nonzero;display:inline;overflow:visible;visibility:visible;opacity:1;isolation:auto;mix-blend-mode:normal;color-interpolation:sRGB;color-interpolation-filters:linearRGB;solid-color:#000000;solid-opacity:1;fill:#000000;fill-opacity:1;fill-rule:nonzero;stroke:none;stroke-width:2.26481652px;stroke-linecap:butt;stroke-linejoin:miter;stroke-miterlimit:4;stroke-dasharray:none;stroke-dashoffset:0;stroke-opacity:1;color-rendering:auto;image-rendering:auto;shape-rendering:auto;text-rendering:auto;enable-background:accumulate" d="m 44.318314,960.84134 0.170332,0.79603 0.492831,2.30631 0.156707,0.67679 0.321361,0.95046 1.726042,3.38394 1.104895,-4.16407 1.38992,-0.73016 -0.392901,-2.1814 -2.302907,-1.0379 -2.66628,0 z m 1.628384,1.31725 0.755144,0 1.412629,0.63591 0.09879,0.54961 -1.046981,0.5496 -0.371326,1.39901 -0.119233,-0.23393 -0.269126,-0.79715 -0.139674,-0.60298 -0.320226,-1.50007 z"/><path style="color:#000000;font-style:normal;font-variant:normal;font-weight:normal;font-stretch:normal;font-size:medium;line-height:normal;font-family:sans-serif;text-indent:0;text-align:start;text-decoration:none;text-decoration-line:none;text-decoration-style:solid;text-decoration-color:#000000;letter-spacing:normal;word-spacing:normal;text-transform:none;direction:ltr;block-progression:tb;writing-mode:lr-tb;baseline-shift:baseline;text-anchor:start;white-space:normal;clip-rule:nonzero;display:inline;overflow:visible;visibility:visible;opacity:1;isolation:auto;mix-blend-mode:normal;color-interpolation:sRGB;color-interpolation-filters:linearRGB;solid-color:#000000;solid-opacity:1;fill:#000000;fill-opacity:1;fill-rule:nonzero;stroke:none;stroke-width:2.26481652px;stroke-linecap:butt;stroke-linejoin:miter;stroke-miterlimit:4;stroke-dasharray:none;stroke-dashoffset:0;stroke-opacity:1;color-rendering:auto;image-rendering:auto;shape-rendering:auto;text-rendering:auto;enable-background:accumulate" d="m 48.489204,957.36655 -0.247551,0.19758 -0.997016,0.79376 0.09652,1.36039 0.964086,0.63137 1.703331,0.99247 2.326748,-3.10233 -3.846119,-0.87324 z m 0.324767,1.42512 1.249111,0.28275 -0.404256,0.53939 -0.660893,-0.38495 -0.389494,-0.25437 -0.0012,-0.0181 0.206671,-0.16466 z"/></g></svg>