<svg xmlns="http://www.w3.org/2000/svg" viewBox="0 0 100 125" x="0px" y="0px"><path d="M54.98,88.09l-9.92-3.37-5.3-.02-10.88-3.43-1.47-3.36,4.65-18.01,2.3,.43-1.88-2.88v-4.47l-3.58-1.25-1.86-3.1,.19-2.6-2.45-3.49-8.62-4.4-3.47-.82-.44-4.62,3.02-1.5,6.66-1.71,8.78,1.79,.44-2.19-1.63-5.72,4.06-.24,2.4,2.95,5.44-1.15-.18-2.15,8.06-3.75-.19-5.49,6.06-1.67,10.98,9.46,11.53,4.16,1.07,2.67,5.58-.54,3.67,2.06-2.92,3.33-.96,9.83h-2.76v.95l-4.95,8.02,3.86-.48,3.25,10.15-3.64,1.82,.73,1.22,2.12,.42-.78,4.86,1.51,1.2h3.98l-.7,3.75-6.77,6.19-4.65,1.01-4.8-3.51-1.76,.88-4.66-1.12-5.41,2.97-.51,3.39,.88,3.3-4.08,.23Zm-15-4.37l5.32,.03,9.82,3.33,2.66-.15-.62-2.31,.61-4.09,6.18-3.39,4.69,1.12,1.98-.99,4.93,3.6,3.95-.86,6.32-5.78,.42-2.24h-3.13l-2.23-1.79,.72-4.49-1.61-.32-1.51-2.52,3.84-1.92-2.73-8.55-5.11,.64,5.9-9.56v-1.67h2.85l.91-9.25,2.32-2.65-2.32-1.3-6.01,.58-1.18-2.94-11.35-4.13-10.64-9.18-4.79,1.32,.19,5.36-8.02,3.73,.19,2.33-6.9,1.46-2.46-3.03-2.3,.14,1.36,4.75-.68,3.42-9.54-1.95-6.38,1.64-2.26,1.13,.31,3.23,2.94,.71,8.9,4.54,2.79,3.99-.19,2.64,1.51,2.52,3.9,1.37v4.88l2.99,4.59-3.68-.69-4.33,16.77,1.15,2.63,10.37,3.27Z"/></svg>