<svg xmlns="http://www.w3.org/2000/svg" viewBox="0 0 100 125" x="0px" y="0px"><path d="M50.01,93.38l-3.45-1.38-4.66,.17-.51-1.19-4.06-.45-6.97,1.16-2.76-1.38,1.42-10.03,2.95-5.01-10.55-2.99-2.15-4.12,.63-2.82-2.24-1.76v-2.83l1.57-2.83-3.25-6.5,2.15-6.11-1.07-4.28,5.84-1.33v-1.36l2.29-1.31v-3.9l1.43-6.92-1.78-1.62,.4-3.02,6.45-2.33,2.98,2.51,3.55-3.55-1.4-4.1-.36-7.53,10.29,2.35,.5,2.51,3.16,1.29,3.78-1.59-.86,4.54-1.22,.94,1.3,.08,10.17-5.57,2.76,.39,8.22,3.69,1.22,3.48,1.36,6.61-1.54,3.24,3.86,3.21-.51,2.71,1.63,2.45-.65,4.08,4.14,5.64-2.8,5.97-1.99-.99-.29-1.47h-.51l.14,1.4-15.12,9.01,2.33,2.47v2.26l10.86,9.38-.97,4.45h-1.9l-.15,2.25-4.69,2.81,1.76,2.64v4.77l-6.04-1.96-8.86,3.77-3.84-1.6-1.96,1.63Zm1.79-2.79l4.01,1.67,8.82-3.76,5.09,1.65v-3.09l-2.17-3.26,5.14-3.08,.18-2.66h2.03l.67-3.08-10.75-9.29v-2.32l-2.91-3.09,15.65-9.32-.19-1.87h2.44l.36,1.8,.63,.32,2.11-4.5-4.04-5.49,.66-4.11-1.64-2.46,.47-2.53-4-3.33,1.73-3.64-1.28-6.22-1.06-3.01-7.76-3.48-2.22-.3-10.13,5.56-4.26-.25,3.04-2.34,.44-2.33-2.44,1.03-4.04-1.65-.48-2.4-8.37-1.91,.29,6.15,1.55,4.48-4.64,4.64-3.24-2.73-5.34,1.93-.25,1.89,1.82,1.65-1.52,7.43v4.33l-2.29,1.31v1.58l-5.62,1.28,.89,3.58-2.11,6,3.3,6.59-1.7,3.06v2.08l2.35,1.85-.68,3.08,1.78,3.41,11.38,3.23-3.55,6.04-1.25,9.04,1.83,.91,6.78-1.13,4.78,.53,.47,1.1,4.18-.16,3.1,1.24,1.97-1.64Z"/></svg>