<svg xmlns="http://www.w3.org/2000/svg" xmlns:xlink="http://www.w3.org/1999/xlink" version="1.1" x="0px" y="0px" viewBox="0 0 100 125" enable-background="new 0 0 100 100" xml:space="preserve"><path d="M94.8984375,26.8007813c-0.0263672-0.0136719-2.7167969-1.3828125-2.4267578-3.4121094  c0.03125-0.2158203-0.0332031-0.4335938-0.1757813-0.5976563s-0.3486328-0.2587891-0.5664063-0.2587891h-1.1679688  l-0.8896484-0.8896484c-0.2099609-0.2099609-0.5214844-0.2763672-0.7978516-0.1708984l-2.3330078,0.8896484  c-0.6865234-0.1953125-2.3740234-0.4726563-3.9267578,1.4384766l-2.9365234,1.5283203  c-0.1523438,0.0791016-0.2724609,0.2080078-0.3417969,0.3642578l-0.7714844,1.7646484  c-0.6992188,0.4384766-2.234375,1.28125-3.28125,1.3613281c-0.2148438,0.0166016-0.4130859,0.125-0.5419922,0.2978516  l-1.1083984,1.4785156c-0.1396484,0.1855469-0.1845703,0.4248047-0.1230469,0.6484375  c0.0605469,0.2236328,0.2226563,0.40625,0.4365234,0.4951172c0.2958984,0.1230469,0.6191406,0.3066406,0.8251953,0.4599609  C74.4941406,32.3125,73.921875,32.4804688,72.78125,32.6142578l-1.1474609-0.6259766  c-0.1650391-0.0898438-0.3583984-0.1142578-0.5410156-0.0693359l-1.4765625,0.3691406l0.0566406-1.0263672  c0.3076172-0.5644531,1.0126953-2.0732422,0.4248047-3.1035156c-0.2529297-0.4472656-0.8261719-0.9873047-2.2421875-0.8144531  c-0.1210938,0.0146484-0.2373047,0.0595703-0.3369141,0.1298828l-2.4648438,1.7246094  c-0.2294922,0.1601563-0.3505859,0.4355469-0.3134766,0.7138672l0.2470703,1.8486328  c0.0058594,0.046875,0.0166016,0.0927734,0.03125,0.1376953l0.125,0.3730469l-0.6347656,0.8720703l-1.6689453,0.6865234  l-3.5029297-0.8974609L57.9814453,32.125c-0.1015625-0.0605469-0.2158203-0.0957031-0.3339844-0.1035156l-1.5410156-0.1035156  l-1.2871094-1.3837891c-0.1113281-0.1201172-0.2587891-0.2001953-0.4199219-0.2285156l-2.4013672-0.4169922  c-0.5166016-0.8476563-2.2763672-1.8818359-7.4355469-2.4130859c-0.1044922-0.0224609-0.2529297-0.1005859-0.2705078-0.1552734  c-0.0292969-0.0878906,0.0380859-0.4755859,0.6816406-1.1992188c0.1376953-0.1542969,0.2050781-0.3583984,0.1865234-0.5644531  s-0.1210938-0.3955078-0.2832031-0.5234375c-0.0615234-0.0478516-0.2294922-0.2451172-0.2128906-0.3554688  c0.0205078-0.1279297,0.3056641-0.4648438,1.2451172-0.8164063c0.3085938-0.1152344,0.5058594-0.4199219,0.4853516-0.7490234  l-0.1230469-1.9716797c-0.0166016-0.2519531-0.1582031-0.4794922-0.3769531-0.6044922l-2.421875-1.3828125l-0.8847656-1.4394531  c-0.0917969-0.1503906-0.234375-0.2636719-0.4013672-0.3193359l-2.3623047-0.7861328  c0.0195313-0.3916016-0.0175781-0.8964844-0.2294922-1.4072266c0.609375,0.3867188,1.1484375,0.7070313,1.3759766,0.7822266  c0.0771484,0.0263672,0.2011719,0.0458984,0.2822266,0.0458984c0.2324219,0,0.7763672,0,2.2607422-1.8027344  c0.1621094-0.1972656,0.2089844-0.4638672,0.1308594-0.7070313s-0.2783203-0.4306641-0.5244141-0.4960938  c-0.1738281-0.0458984-1.6835938-0.5107422-1.4130859-2.5830078c0.0214844-0.1669922-0.0136719-0.3359375-0.0996094-0.4804688  l-1.0517578-1.7646484l0.3740234-1.0498047c0.0751953-0.2089844,0.0527344-0.4404297-0.0595703-0.6318359  s-0.3046875-0.3232422-0.5234375-0.3603516l-2.6054688-0.4335938l-0.8095703-1.4160156  c-0.0419922-0.0722656-0.0947266-0.1376953-0.1572266-0.1923828c-0.0917969-0.0800781-0.4384766-0.3408203-1.0634766-0.3408203  c-0.9492188,0-2.0664063,0.5947266-3.3203125,1.7675781l-2.1894531,1.1474609L28.0566406,5.828125  c-0.0908203-0.0361328-0.1943359-0.0410156-0.2841797-0.0537109c-1.8632813,0.015625-5.0898438,0.234375-5.7792969,1.5205078  C21.8583984,7.546875,21.6923828,8.0625,22.0986328,8.6855469c0.0341797,0.0527344,0.0751953,0.1005859,0.1220703,0.1435547  c0.1572266,0.1435547,1.3710938,1.2431641,2.3173828,1.8242188l-0.0957031,1.671875  c-0.0185547,0.3339844,0.1845703,0.6396484,0.5,0.75l1.1005859,0.3876953v0.9472656  c0,0.1992188,0.0791016,0.3896484,0.2197266,0.5302734l2.2070313,2.2080078l-1.1630859,0.3671875  c-0.1328125,0.0419922-0.2509766,0.1191406-0.3417969,0.2246094l-2.3408203,2.7109375  c-0.0673828,0.0771484-0.1171875,0.1669922-0.1474609,0.2646484l-0.5898438,1.8671875l-2.0664063,0.1992188  c-0.2197266,0.0205078-0.4189453,0.1367188-0.5439453,0.3173828c-0.1259766,0.1816406-0.1660156,0.4082031-0.109375,0.6210938  l0.421875,1.5908203c-0.9472656,0.4726563-2.5546875,1.5898438-2.4453125,3.6777344  c0.0048828,0.0957031,0.0400391,0.1533203,0.0800781,0.2402344c-0.0019531,0.0009766-0.1826172,0.1738281-0.9550781,0.1738281  c-0.2255859,0-0.4804688-0.0146484-0.7607422-0.0439453l-0.8105469-1.3183594l-0.9521484-1.4277344  c-0.1416016-0.2988281-0.5371094-0.9716797-1.2412109-0.9716797c-0.9443359,0-1.3115234,1.1650391-1.4648438,1.7548828  l-1.1503906,1.6113281c-0.1259766,0.1767578-0.1699219,0.3994141-0.1191406,0.6103516l0.6982422,2.9072266l-0.4521484,1.9208984  c-0.0585938,0.2529297,0.0166016,0.5185547,0.2001953,0.7021484l2.3320313,2.3320313  c0.8310547,0.8603516,1.5888672,1.9648438,1.6689453,2.4091797c-0.0380859,0.0068359-0.0917969,0.0136719-0.1621094,0.0175781  l-1.2910156-0.8613281c-0.2402344-0.1601563-0.5488281-0.1689453-0.7958984-0.0224609l-1.6796875,0.9882813l-0.8242188-0.5771484  c-0.109375-0.0791016-1.0908203-0.7763672-2.0908203-0.7763672c-0.4658203,0-1.5605469,0.1708984-1.8945313,1.7128906  l-1.03125,1.6044922c-0.1943359,0.3027344-0.1464844,0.7001953,0.1132813,0.9482422l2.5869141,2.4648438  c0.1396484,0.1328125,0.3251953,0.2070313,0.5175781,0.2070313h1.7255859c0.2636719,0,0.5078125-0.1386719,0.6435547-0.3642578  l0.5205078-0.8681641h1.9501953c0.0810547,0.0244141,0.1953125,0.0693359,0.2148438,0.0712891  c0,0.0019531-0.015625,0.2070313-0.4335938,0.6464844h-0.9238281c-0.2558594,0-0.4951172,0.1308594-0.6328125,0.3466797  l-0.6416016,1.0087891H9.4091797c-0.1025391-0.0263672-0.2392578-0.0507813-0.3964844-0.0507813  c-0.2949219,0-1.2783203,0.109375-1.5615234,1.5175781c-0.0195313,0.0976563-0.0195313,0.1972656,0,0.2949219l0.2470703,1.2304688  c0.0488281,0.2412109,0.2119141,0.4423828,0.4365234,0.5410156l2.6748047,1.1601563l1.6025391,1.9541016  c0.0742188,0.0898438,0.1679688,0.1611328,0.2734375,0.2089844l2.4785156,1.1083984  c0.2158203,0.0976563,0.4619141,0.0869141,0.6699219-0.0283203l2.4501953-1.3554688  c0.1689453-0.09375,0.2949219-0.2480469,0.3525391-0.4326172l0.6162109-1.9707031  c0.0410156-0.1328125,0.0449219-0.2744141,0.0107422-0.4091797l-0.5214844-2.0449219  c0.1640625-0.0957031,0.4794922-0.2050781,1.0136719-0.2216797l1.3857422,0.5458984v1.5556641l-0.7382813,2.6103516  c-0.0517578,0.1835938-0.0322266,0.3798828,0.0556641,0.5498047l0.5859375,1.1298828l-1.5693359,2.9804688  c-0.109375,0.2080078-0.1162109,0.4541016-0.0166016,0.6669922l0.7529297,1.6113281L19.65625,61.921875  c-0.0302734,0.1269531-0.0273438,0.2597656,0.0097656,0.3857422l0.6005859,2.0400391l0.3652344,2.6787109l0.5205078,3.0810547  c0.0205078,0.1230469,0.0722656,0.2402344,0.1494141,0.3378906l1.2910156,1.6445313v1.5888672  c0,0.15625,0.0488281,0.3085938,0.1396484,0.4365234l0.4765625,0.6660156v1.8544922  c0,0.1376953,0.0380859,0.2734375,0.1103516,0.3916016l1.2109375,1.9814453  c-0.1191406,0.8779297-0.2939453,3.3945313,1.4433594,4.2822266l1.5478516,1.6513672V88.21875  c0,0.1513672,0.0458984,0.2998047,0.1318359,0.4248047l1.2753906,1.8554688l0.4609375,1.9580078  c0.0351563,0.1484375,0.1152344,0.2832031,0.2285156,0.3857422l1.0830078,0.9746094  c0.2939453,0.8574219,0.9902344,2.4121094,2.1796875,2.4121094c0.8271484,0,1.3320313-0.7382813,1.5908203-1.2285156  l1.2900391-0.3974609c0.1962891-0.0605469,0.3583984-0.1982422,0.4501953-0.3818359l0.515625-1.0302734  c0.0175781,0,0.0361328,0,0.0546875,0c1.1259766,0,2.0917969-0.3798828,2.7216797-1.0693359  c0.6904297-0.7568359,0.9765625-1.84375,0.8339844-3.3212891c0.0009766-0.0966797,0.2685547-0.5214844,1.5019531-0.8310547  c0.0996094-0.0185547,0.9814453-0.2080078,1.3466797-1.0986328c0.3300781-0.8046875,0.0986328-1.7988281-0.7080078-3.0332031  l0.1835938-1.6494141l1.2568359-1.0791016c0.4589844-0.0107422,0.859375-0.2275391,1.1044922-0.6005859  c0.5136719-0.7822266,0.3222656-2.1181641-0.6210938-4.3242188l-0.3662109-2.5458984l-0.6621094-2.9765625l0.7841797-0.9824219  h0.9941406c0.2949219,0,0.5615234-0.1728516,0.6835938-0.4404297l0.7177734-1.5859375l1.8798828-0.5214844  c0.2128906-0.0585938,0.3886719-0.2080078,0.4804688-0.4082031l0.6552734-1.4199219  c0.734375-0.5214844,3.6376953-2.6162109,5.1357422-4.1777344l1.8300781-0.7529297  c0.5908203-0.0507813,2.5634766-0.3945313,3.90625-2.6884766c0.53125-0.140625,1.671875-0.4248047,2.5283203-0.5107422  c0.1181641-0.0117188,0.2304688-0.0507813,0.3300781-0.1142578l3.0810547-1.9716797  c0.2978516-0.1904297,0.421875-0.5634766,0.2978516-0.8955078l-0.7392578-1.9707031  c-0.0253906-0.0673828-0.0625-0.1347656-0.1064453-0.1923828c-0.1914063-0.2519531-0.5576172-0.9267578-0.3984375-1.2910156  c0.1269531-0.2919922,0.6660156-0.5058594,1.4794922-0.5878906c0.0566406-0.0058594,0.1386719-0.0273438,0.1933594-0.0458984  c0,0,0.0693359-0.0234375,0.1728516-0.0234375c0.4599609,0,0.8847656,0.4648438,1.1953125,1.3076172  c0.1230469,0.3330078,0.4570313,0.5332031,0.8105469,0.4833984L71.0117188,51.625  c0.3691406-0.0527344,0.6435547-0.3691406,0.6435547-0.7421875v-1.3525391l0.4521484-1.3125  c0.0576172-0.1669922,0.0546875-0.3496094-0.0097656-0.5146484l-1.2246094-3.1621094L71.5527344,43.375  c0.1923828-0.3291016,0.1074219-0.7490234-0.1972656-0.9775391l-1.9716797-1.4785156  c-0.0722656-0.0537109-0.1523438-0.0947266-0.2382813-0.1201172l-1.4277344-0.4199219l0.2246094-1.0439453  c0.0458984-0.2148438-0.0058594-0.4414063-0.1396484-0.6152344c-0.2314453-0.3007813-0.4482422-0.6875-0.5351563-0.9355469  c0.2119141,0.0048828,0.5957031,0.0605469,1.1943359,0.2529297l2.6230469,1.2060547  c0.0449219,0.0205078,0.0908203,0.0361328,0.1386719,0.0478516l3.0800781,0.7392578  c0.15625,0.0361328,0.3203125,0.0234375,0.4707031-0.0400391l1.625-0.6962891  c0.2529297-0.0292969,1.0048828-0.0585938,1.3183594-0.0185547c-0.1210938,0.1367188-0.3183594,0.328125-0.6376953,0.5830078  l-1.8398438,0.5742188c-0.3056641,0.0957031-0.5166016,0.3740234-0.5263672,0.6943359l-0.1230469,4.2900391  c-0.0029297,0.1279297,0.0253906,0.2539063,0.0849609,0.3671875l1.2324219,2.3691406  c0.1191406,0.2304688,0.3496094,0.3828125,0.6083984,0.4023438c0.2568359,0.0136719,0.5078125-0.0966797,0.6621094-0.3046875  l1.3095703-1.7900391l0.6806641,1.5458984c0.1445313,1.0273438,0.9951172,2.7636719,3.3554688,2.7636719  c0.3613281,0,0.7509766-0.0419922,1.1572266-0.125c0.2275391-0.0136719,0.7382813-0.1054688,1.0839844-0.6318359  c0.4746094-0.7226563,0.3789063-1.8623047-0.3046875-3.5673828l0.4326172-0.5380859  C85,45.7753906,85.0585938,45.609375,85.0585938,45.4384766v-1.1621094l1.3408203-0.1650391  c0.1474609-0.0175781,0.2871094-0.0800781,0.3994141-0.1777344l1.8486328-1.6025391  c0.2636719-0.2285156,0.3349609-0.6083984,0.171875-0.9169922l-1-1.8886719l0.2119141-1.8046875L88.8632813,34.75  c0.375-0.8320313,0.9501953-1.6845703,1.2119141-1.8525391c0.0205078,0.0136719,0.0410156,0.0263672,0.0625,0.0380859  l1.3554688,0.7392578c0.2197266,0.1201172,0.4824219,0.1220703,0.7041016,0.0078125l1.7246094-0.8916016  c0.3125-0.1611328,0.4707031-0.5185547,0.3798828-0.859375c-0.1044922-0.3925781-0.1455078-1.0771484,0.0244141-1.2988281  c0.0146484-0.0195313,0.0546875-0.0703125,0.2373047-0.0703125c0.4140625,0,0.75-0.3359375,0.75-0.75v-2.3408203  C95.3134766,27.1875,95.1533203,26.9277344,94.8984375,26.8007813z M93.8134766,29.2011719  c-0.3203125,0.1308594-0.5361328,0.3349609-0.6767578,0.5175781c-0.4580078,0.5966797-0.4658203,1.4248047-0.3974609,1.9951172  l-0.8769531,0.453125l-0.9462891-0.515625C90.6796875,31.4697266,90.40625,31.375,90.1201172,31.375  c-1.2734375,0-2.2773438,1.9707031-2.6503906,2.8183594c-0.0146484,0.0322266-0.0263672,0.0654297-0.0361328,0.0996094  l-0.8632813,3.0800781c-0.0097656,0.0371094-0.0175781,0.0761719-0.0224609,0.1142578l-0.2460938,2.0947266  c-0.0175781,0.1513672,0.0107422,0.3046875,0.0820313,0.4384766l0.8300781,1.5683594l-1.2246094,1.0615234l-1.7724609,0.21875  c-0.3759766,0.0458984-0.6582031,0.3652344-0.6582031,0.7441406v1.5615234l-0.546875,0.6796875  c-0.1738281,0.2167969-0.2138672,0.5126953-0.1035156,0.7675781c0.7548828,1.7421875,0.6650391,2.375,0.6191406,2.5283203  c-0.0292969,0.0029297-0.0585938,0.0078125-0.0878906,0.0136719c-0.3300781,0.0703125-0.6376953,0.1064453-0.9150391,0.1064453  c-1.6318359,0-1.8505859-1.2783203-1.8769531-1.5283203c-0.0068359-0.0810547-0.0273438-0.1611328-0.0605469-0.2363281  l-1.2490234-2.8388672c-0.1083984-0.2460938-0.3388672-0.4150391-0.6054688-0.4433594  c-0.2675781-0.0371094-0.5273438,0.0859375-0.6865234,0.3017578l-1.3642578,1.8652344l-0.5859375-1.125l0.1025391-3.5605469  l1.4609375-0.4560547c0.0859375-0.0263672,0.1660156-0.0683594,0.2373047-0.1240234  c0.8359375-0.6503906,1.7548828-1.5126953,1.4433594-2.421875c-0.328125-0.9560547-1.6845703-0.9560547-2.1308594-0.9560547  c-0.5751953,0-1.0849609,0.0683594-1.1064453,0.0712891c-0.0673828,0.0087891-0.1328125,0.0273438-0.1953125,0.0537109  l-1.4951172,0.6416016l-2.7675781-0.6640625l-2.6347656-1.2070313c-0.7353516-0.2412109-1.3173828-0.359375-1.7792969-0.359375  c-0.8857422,0-1.2402344,0.453125-1.3720703,0.7236328c-0.3759766,0.765625,0.1464844,1.7539063,0.546875,2.3408203  l-0.2998047,1.3974609c-0.0820313,0.3837891,0.1455078,0.765625,0.5214844,0.8769531l1.9648438,0.578125l1.3291016,0.9960938  l-0.5253906,0.9013672c-0.1152344,0.1972656-0.1347656,0.4365234-0.0517578,0.6484375l1.2558594,3.2421875l-0.4033203,1.171875  c-0.0273438,0.078125-0.0410156,0.1611328-0.0410156,0.2441406v0.828125l-0.5136719,0.0732422  c-0.7363281-1.4853516-1.7714844-1.7246094-2.3613281-1.7246094c-0.2636719,0-0.4726563,0.046875-0.6035156,0.0859375  c-1.3828125,0.1552734-2.2646484,0.6523438-2.6201172,1.4794922c-0.484375,1.125,0.2558594,2.3300781,0.5146484,2.6982422  l0.4902344,1.3066406l-2.4228516,1.5507813c-1.2587891,0.1523438-2.8369141,0.6005859-2.90625,0.6210938  c-0.1972656,0.0556641-0.3632813,0.1904297-0.4580078,0.3730469c-1.1123047,2.1230469-2.84375,2.1835938-2.9091797,2.1855469  c-0.0976563,0-0.1953125,0.0195313-0.2851563,0.0566406l-2.0947266,0.8623047  c-0.1005859,0.0410156-0.1904297,0.1035156-0.2646484,0.1835938c-1.5283203,1.6464844-5.1416016,4.1826172-5.1777344,4.2080078  c-0.109375,0.0761719-0.1953125,0.1796875-0.2509766,0.2998047l-0.59375,1.2871094l-1.8837891,0.5224609  c-0.2148438,0.0595703-0.3916016,0.2109375-0.4833984,0.4130859l-0.6621094,1.4648438H43.796875  c-0.2285156,0-0.4443359,0.1035156-0.5859375,0.2822266l-1.2324219,1.5449219  c-0.1416016,0.1777344-0.1953125,0.4091797-0.1464844,0.6308594l0.7294922,3.2705078l0.3701172,2.5878906  c0.0087891,0.0654297,0.0273438,0.1298828,0.0537109,0.1914063c0.8212891,1.8984375,0.8388672,2.6591797,0.8056641,2.9033203  c-0.2158203-0.0341797-0.4375,0.0273438-0.6054688,0.171875l-1.7246094,1.4794922  c-0.1445313,0.1240234-0.2363281,0.2978516-0.2568359,0.4863281l-0.2470703,2.2177734  c-0.0205078,0.1806641,0.0253906,0.3623047,0.1298828,0.5117188c0.6728516,0.9677734,0.8105469,1.5830078,0.7148438,1.8369141  c-0.0585938,0.1542969-0.2470703,0.2021484-0.28125,0.2099609c-1.2666016,0.3164063-2.0976563,0.8222656-2.4726563,1.5039063  c-0.21875,0.3984375-0.2412109,0.7958984-0.1826172,1.0722656c0.0761719,0.9228516-0.0820313,1.6054688-0.46875,2.0292969  c-0.4619141,0.5058594-1.2089844,0.5810547-1.6142578,0.5810547c-0.2128906,0-0.3603516-0.0205078-0.3789063-0.0234375  c-0.3242188-0.0527344-0.6464844,0.109375-0.7939453,0.4052734l-0.5957031,1.1914063L33.71875,93.6630859  c-0.2041016,0.0625-0.3720703,0.2099609-0.4609375,0.4042969c-0.1777344,0.3867188-0.3154297,0.5576172-0.3876953,0.6289063  c-0.2324219-0.1933594-0.5996094-0.8828125-0.8027344-1.5273438c-0.0400391-0.1279297-0.1142578-0.2431641-0.2138672-0.3330078  l-1.0576172-0.9511719l-0.4384766-1.8662109c-0.0214844-0.0908203-0.0595703-0.1767578-0.1123047-0.2529297l-1.2236328-1.7802734  v-3.3398438c0-0.1904297-0.0722656-0.3740234-0.203125-0.5126953l-1.8486328-1.9716797  c-0.0703125-0.0761719-0.15625-0.1357422-0.2509766-0.1767578c-0.9443359-0.4042969-0.7949219-2.3388672-0.6689453-2.9853516  c0.0361328-0.1835938,0.0029297-0.3759766-0.0957031-0.5371094l-1.2451172-2.0371094v-1.8837891  c0-0.15625-0.0488281-0.3085938-0.1396484-0.4365234l-0.4765625-0.6660156v-1.6083984  c0-0.1679688-0.0566406-0.3310547-0.1601563-0.4628906l-1.3330078-1.6982422l-0.4853516-2.8691406l-0.3691406-2.7109375  c-0.0048828-0.0371094-0.0126953-0.0742188-0.0234375-0.1103516l-0.5605469-1.9033203l0.5703125-2.3925781  c0.0390625-0.1650391,0.0214844-0.3378906-0.0498047-0.4912109l-0.7060547-1.5107422l1.5791016-2.9980469  c0.1152344-0.2167969,0.1162109-0.4765625,0.0029297-0.6953125l-0.6298828-1.2148438l0.6855469-2.4248047  c0.0185547-0.0664063,0.0283203-0.1347656,0.0283203-0.2041016v-2.1699219c0-0.3085938-0.1884766-0.5849609-0.4755859-0.6982422  l-1.9990234-0.7871094c-0.0869141-0.0341797-0.1806641-0.0517578-0.2744141-0.0517578c-2.1660156,0-2.6181641,1.09375-2.6875,1.3125  c-0.0410156,0.1328125-0.0449219,0.2744141-0.0107422,0.4101563l0.5634766,2.2109375l-0.4628906,1.4804688l-1.859375,1.0283203  l-1.9755859-0.8828125l-1.6054688-1.9580078c-0.0761719-0.0917969-0.171875-0.1650391-0.28125-0.2128906l-2.4814453-1.0761719  l-0.1376953-0.6835938c0.0332031-0.1152344,0.0644531-0.1669922,0.0615234-0.1835938  c0.0888672,0.0361328,0.1845703,0.0546875,0.2802734,0.0546875h3.203125c0.2558594,0,0.4951172-0.1308594,0.6328125-0.3466797  l0.6416016-1.0087891H14.59375c0.1904297,0,0.3740234-0.0722656,0.5126953-0.203125  c0.3378906-0.3164063,1.3671875-1.28125,1.0576172-2.3427734c-0.2675781-0.9160156-1.3134766-1.1367188-1.4326172-1.1591797  c-0.0449219-0.0087891-0.0917969-0.0126953-0.1376953-0.0126953h-2.4638672c-0.2636719,0-0.5078125,0.1386719-0.6435547,0.3642578  l-0.5205078,0.8681641H9.9648438L8.0439453,42.265625l0.7734375-1.2041016  c0.0546875-0.0839844,0.0908203-0.1787109,0.1083984-0.2773438c0.1083984-0.6259766,0.3203125-0.6259766,0.4472656-0.6259766  c0.3867188,0,0.9453125,0.2998047,1.2177734,0.4960938l1.2324219,0.8623047  c0.2392578,0.1679688,0.5576172,0.1806641,0.8095703,0.0322266l1.6894531-0.9941406l1.0878906,0.7255859  c0.1142578,0.0761719,0.2470703,0.1191406,0.3847656,0.125l0.1669922,0.0039063  c1.0595703,0,1.4833984-0.4736328,1.6513672-0.8710938c0.5439453-1.2841797-1.2080078-3.2958984-1.9960938-4.109375  l-2.0458984-2.0458984l0.3974609-1.6875c0.0263672-0.1142578,0.0263672-0.2333984-0.0009766-0.3466797l-0.6591797-2.7480469  l1.0332031-1.4472656c0.0546875-0.0761719,0.0947266-0.1621094,0.1171875-0.2539063  c0.0351563-0.140625,0.0693359-0.2597656,0.1005859-0.359375l0.875,1.3095703l0.9853516,1.6025391  c0.1171875,0.1914063,0.3144531,0.3193359,0.5361328,0.3505859c1.9072266,0.2587891,3.0292969,0.0166016,3.5263672-0.7587891  c0.2685547-0.4199219,0.2597656-0.8945313,0.15625-1.2353516c-0.0058594-1.6503906,1.9853516-2.3203125,2.0693359-2.3476563  c0.3808594-0.1220703,0.5996094-0.5205078,0.4970703-0.9072266L22.84375,24.1904297l1.6796875-0.1621094  C24.8232422,24,25.0771484,23.7949219,25.1669922,23.5078125l0.6933594-2.1933594l2.1005859-2.4326172l2.1376953-0.6757813  c0.25-0.078125,0.4404297-0.2822266,0.5029297-0.5371094c0.0625-0.2539063-0.0126953-0.5224609-0.1982422-0.7080078  l-2.8603516-2.8613281v-1.1679688c0-0.3183594-0.2011719-0.6015625-0.5009766-0.7070313l-1.0693359-0.3769531l0.0908203-1.5839844  c0.0175781-0.3154297-0.1630859-0.6083984-0.4541016-0.7324219c-0.4863281-0.2080078-1.5048828-1.0351563-2.1650391-1.6191406  c0.5673828-0.3212891,2.4003906-0.6064453,4.1943359-0.6357422l2.3261719,0.9296875  c0.2041016,0.0820313,0.4316406,0.0703125,0.6259766-0.0322266l2.5869141-1.3554688  c0.0615234-0.0322266,0.1181641-0.0722656,0.1689453-0.1201172c1.4433594-1.3710938,2.1787109-1.4453125,2.4101563-1.4257813  l0.8583984,1.5009766c0.1123047,0.1953125,0.3056641,0.3310547,0.5283203,0.3681641l2.0722656,0.3447266l-0.1914063,0.5371094  c-0.0751953,0.2109375-0.0527344,0.4433594,0.0615234,0.6357422l1.1044922,1.8544922  c-0.1474609,1.7988281,0.671875,2.8984375,1.5214844,3.4814453c-0.1826172,0.1894531-0.3496094,0.3486328-0.4755859,0.4521484  c-0.4365234-0.25-1.3271484-0.8212891-2.0742188-1.3212891c-0.3251953-0.2158203-0.7636719-0.1494141-1.0068359,0.1601563  l-0.6162109,0.7832031c-0.1259766,0.1601563-0.1806641,0.3652344-0.1533203,0.5664063  c0.0283203,0.2021484,0.1367188,0.3837891,0.3017578,0.5039063c0.8779297,0.6386719,0.6171875,1.6533203,0.5869141,1.7607422  c-0.1201172,0.3896484,0.0927734,0.8037109,0.4794922,0.9326172l2.6992188,0.8984375l0.8427734,1.3701172  c0.0654297,0.1074219,0.1572266,0.1962891,0.2666016,0.2587891l2.2363281,1.2773438l0.0644531,1.0351563  c-1.0175781,0.4716797-1.5693359,1.0556641-1.6816406,1.7753906c-0.0732422,0.4765625,0.0742188,0.8818359,0.2597656,1.1826172  c-0.6015625,0.8203125-0.7871094,1.5361328-0.5693359,2.1748047c0.3125,0.9130859,1.2919922,1.1220703,1.4638672,1.1513672  c5.2988281,0.5478516,6.2421875,1.5527344,6.359375,1.7119141c0.0498047,0.3105469,0.2910156,0.5654297,0.6123047,0.6220703  l2.5859375,0.4492188l1.3173828,1.4169922c0.1298828,0.1396484,0.3085938,0.2246094,0.4990234,0.2373047l1.6582031,0.1113281  l1.2939453,0.7714844c0.0615234,0.0361328,0.1279297,0.0644531,0.1982422,0.0820313l3.8496094,0.9853516  c0.1552734,0.0410156,0.3222656,0.0292969,0.4707031-0.0332031l2.0947266-0.8623047  c0.1289063-0.0527344,0.2392578-0.1396484,0.3212891-0.2519531l0.9863281-1.3554688  c0.1425781-0.1962891,0.1816406-0.4482422,0.1054688-0.6787109l-0.2236328-0.671875l-0.1777344-1.3261719l1.9306641-1.3505859  c0.3427734-0.0166016,0.5527344,0.0439453,0.5771484,0.0859375c0.1337891,0.2353516-0.1123047,1.0917969-0.5068359,1.7636719  c-0.0605469,0.1025391-0.0966797,0.2197266-0.1035156,0.3388672l-0.1230469,2.2177734  c-0.0126953,0.2382813,0.0878906,0.46875,0.2714844,0.6201172c0.1835938,0.1523438,0.4306641,0.2070313,0.6591797,0.1494141  l2.1796875-0.5449219l1.0986328,0.5986328c0.1337891,0.0732422,0.2871094,0.1044922,0.4384766,0.0878906  c2.5117188-0.2675781,3.5917969-0.7607422,3.7265625-1.7021484c0.1025391-0.7177734-0.4785156-1.2744141-1.0703125-1.6464844  L75.75,30.2705078c1.7158203-0.2841797,3.7363281-1.6210938,3.8271484-1.6816406  c0.1191406-0.0800781,0.2138672-0.1923828,0.2714844-0.3232422l0.7558594-1.7294922l2.8447266-1.4804688  c0.0976563-0.0507813,0.1835938-0.1220703,0.25-0.2089844c0.5654297-0.7392578,1.2099609-1.1132813,1.9160156-1.1132813  c0.3671875,0,0.6201172,0.1054688,0.6210938,0.1054688c0.1855469,0.0859375,0.3945313,0.0927734,0.5849609,0.0214844  l2.1337891-0.8134766l0.765625,0.765625c0.140625,0.140625,0.3310547,0.2197266,0.5302734,0.2197266h0.7128906  c0.1806641,2.0136719,2.0087891,3.3583984,2.8496094,3.875V29.2011719z"/></svg>