<svg xmlns="http://www.w3.org/2000/svg" viewBox="0 0 83.23 124.39999999999999" x="0px" y="0px"><title>Italy</title><g data-name="Capa 2"><g data-name="Capa 1"><path d="M57.91,99.52l-4.19-.68-1-1.35-1.47-1.73-2.8-.48L43.31,92,39.7,91l-2.29-1.62,0-2.36,2.42-3.46,2.9,1.09,3.4-.28,4.14.75,3.68-.44,2.52-1.25,1.31.39.78-.76,2.59-.59.41,4.78-1.86,1.28-.75,2.76,1.19,1.33.38,2,.48.7-1.74,1.76Zm-3.34-2.06,2.52.41,1-1.78,1-1,0-.06,0-.19-.3-1.55-1.45-1.62,1.11-4.08L60,86.54l-.19-2.2-.49.12-1.12,1.09-1.58-.49-2.36,1.13-4,.47L46,85.91l-3.55.3-2.12-.81-1.48,2.11,0,1.11,1.56,1.11,3.55,1,5,3.15,3,.53,1.86,2.18Z"/><path d="M10.3,77.84l-1-2.25-1.2-1.82.95-4.34V68.15l.55-.35-.12-.21-.64-1.46.19-3.35L7.41,61l1.14-4,3.11.45,1.3-.62,1.79-1.5,2.15-.71L19.26,56,19,58l1.29,2.1.6,1.93-.76,1.6L17.08,75.78,14.79,75l-.54,1.74Zm-.56-4.36.95,1.46.47,1.1,1.9-.53.75-2.45,2.22.77L18.79,63l.54-1.13-.4-1.28-1.44-2.29.17-1.51-.93-.55-1.23.41-1.81,1.49-1.8.85-2.26-.33-.55,1.91,1.51,1.64-.2,3.62.48,1.09.83,1.35L10.58,69v.6Z"/><path d="M65.61,87.24l-3.29-.81-.25-2.94,1.84-2.32-.36-1.54,1.93-1.34L66,76.78l-1.67-4.21-.83-1.17-.76-3.18h0L62,67.15l-1.25.39-1.62-.45-3.32-2.18.78-1.48-1-1.69-3.84.87.12-2.19-1.68.17L48,56.47l-1.2.14-1.75-.67-2,.59L42,55l-2.07-.81L32.56,46l-.9-.54-2.85-.14.46-1.92-2.64-2.22v-.91L25.44,40l-1.77-7.75-1.18-2.74-1.14.2L17.42,27l-.08,0L14.44,26,11,29l-4.08-.62-.55-1-4.8-3,.17-2,.71-.68-1.89-3L0,17.41l1.14-.75,1,.05,1.5-.8.17-.65-.06-.14L3.58,15l-.94-1.9-1-1.56.92-1.16,1.66-.66,3.75-.43L9.33,10.5l1.59-2.2L13.8,6.19l1.69,3.64L16.61,11l.12-.07,1.48-4.82L20,5.37,25.52,5l-.19-.55.79-2.25,2.52.35,1.15.39L32.5,1.22l2.32-.06L38.29,0l.61,3,.59,1.36,1.56,0,7.51,1.23-2,2.83,2,.59L47,10.68l.38.88,2.61,3.31-2.44.68-2-.68-5.67,1L38.7,17l1,2.91.83.69-.69,2.08-1.07.23.19,2.89,1.29,2.49,4.08,3,3.33,2.17,1.13,2.89.94,2.94,2.06,4,3,2.68.86,1.35,4.64.88,6.12.57L64.72,52.5l1.1.59,5.82,2.22L76.44,58l3.18,1.59,3.61,3.54,0,2.61-1.25,3-3.28-3.35L77.81,64l-4.61-.86L71.54,63l-1.45,2.68-.17.11.12.9-.6,1.95,4.82,2.84,0,2.22-.07,3.46L70.6,78.26l-.14,2.39Zm-1.88-2,1.27.31,4-5.42.18-3L72.75,76l0-2.36,0-1.35-5.12-3,.86-2.78L68.31,65l.66-.4,1.72-3.18,2.71.21,5.35,1,1.14,1.9,1.52,1.54.27-.67,0-1.68-3.06-3L75.75,59.3,71,56.65l-5.76-2.2-2.42-1.28L64.17,50l-4.1-.39-5.34-1-1.16-1.8L50.48,44,48.31,39.8l-1-3-.93-2.39-3-1.94-4.39-3.24-1.6-3.08-.29-4.5,1.5-.32.09-.29-.39-.39L37,16.59l2.07-2.12,6.53-1.15,1.68.57L46,12.25l-.83-1.89.55-.57-1.6-.48L46,6.74l-5-.83-2.42-.08-1-2.45L37.16,2,35,2.66l-2,0L30,4.59,28.23,4l-1.1-.14-.22.61.66,1.91-7.35.48-.77.36L18,12l-1.67.93-2.14-2.32-1-2.09-1.31,1L9.6,12.72,7.46,10.88l-3,.34-1,.42.48.73L4.73,14l.21.12.45,1.07-.47,1.77L2.47,18.23l-.48,0,2.36,3.67L3.16,23l-.05.55,4.36,2.75.38.69,2.65.4,3.64-3.18,3,1.18.27-.17,4.26,2.89,1.7-.29,1.72,4,1.57,6.89,1.43.32v1.42L31,42.84l-.26,1.07,1.42.07,1.49.93,7.19,8,2.16.84.72,1,1.45-.44,1.89.73,1.86-.21L51,59l2.41-.26-.11,2,3-.67,1.84,3,0,.71-.32.61.51.32,1.58,1.08.83.2,1.79-.55.6.68.63-.48,1.22,5.14.8,1.16,1.91,4.82-.88,2.5-1.5,1,.29,1.24L63.62,84Z"/></g></g></svg>