<svg xmlns="http://www.w3.org/2000/svg" viewBox="0 0 100 125" x="0px" y="0px"><path d="M41.19,79.62l-2.77-.63-1.77-2.62,.62-2.07,.51-.97-3.6-.51-1.02,.14-8.22,2.55-.87,.08-3.59,1.75-4.59-.39-1.03-1.38,1.03-1.41,6.08-3.87,2.25-2.03c.17-.08,1.68-.76,2.57-.83,2.09-.17,6.3-.28,6.35-.28l3.38-.66,1.72,.74,2.78-.62,.27-1.19,1.1-2.35,2.38-5.4,3.75-1.49-.96,4.13,1.08-.44,1.81-.97,4.63-3.5,2.37-2.05,1.03-1.26,2.88-6.88-.74-2.91,.75-4.16,2.62-5,1.55,2.73,.98-.68-.96-.62,.21-2.38,2.9,.67,.78,1.55,.69,4.16,1.97,3.63,.15,4.61-.48,.86c-.04,.06-1.37,2.04-1.71,3.17-.12,.38-.56,.79-.8,.99l-2.03,2.74,.26,1.73-.76,4.37-.37,6.28-1.34,3.12-4.46,2.02,.98-3.5-1.99,1.43-1.75,1.81-.84,1.66-1.2-.18-.28-1.69-.55-.25-1.37,1.39-1.93,.79-1.82-.09-3.9-.99-.1,1.25,.98,1.41-4.26,2.59-1.35,1.92Zm-2.16-1.52l1.73,.4,1.17-1.59,3.44-2.09-.58-.83,.36-4.69,1.35,2.29,3.5,.89,1.45,.06,1.63-.66,1.62-1.72,1.69,.78,.18,1.12,.47-.87,1.87-1.93,4.37-3.13-1.17,4.17,2.15-.97,1.15-2.68,.33-6.08,.74-4.27-.3-1.98,2.4-3.21c.23-.19,.48-.45,.52-.55,.38-1.26,1.75-3.31,1.81-3.39l.32-.58-.13-4.1-1.95-3.65-.69-4.17-.48-.92-1.33-.31-.06,.63,1.7,1.11-3.1,2.15-1.19-2.09-1.73,3.31-.65,3.72,.78,3.03-3.12,7.38-1.14,1.38-2.45,2.14-4.73,3.56-1.92,1.03-2.92,1.21,.97-4.16-1.59,.63-2.22,5.04-1.08,2.31-.36,1.65-3.72,.83-1.73-.74-3.16,.61c-.12,.01-4.31,.12-6.37,.28-.57,.05-1.69,.5-2.16,.71l-2.13,1.94-6.06,3.87-.42,.6,.33,.44,3.87,.33,3.6-1.72,.91-.08,8.15-2.53,1.24-.18,5.14,.73-1.14,2.14-.45,1.52,1.28,1.9Z"/><path d="M61.88,33.52l-.26-2.4-.78-2.77,.04-2.91,.96-.78,1.84-3.94,2.08,.48,2.66-2.11,.07-.64,1.71-5.87-.61-4.35,1.68-1.6,1.34,.93,4.93,5.27,5.09,1.66,2.09,2.09,4.79-2.02-.08,3.26-.48,1.25,.06,.05,3.09,1.55-4.57,2.72-3.43,.42-4.47,4.12-.36,1.18-1.7,.62-6.32-3.94-2.86,1.1-2.23,.05-.72-.21-.35,1.6,3.1,1.78-.5,1.12-2.29,.43-1.3,.9-2.22,.96Zm-.04-5.3l.76,2.71,.13,1.14,.93-.4,1.45-.97,1.58-.29-2.74-1.57,.74-3.37,1.6,.47,1.98-.04,3.07-1.21,6.33,3.94,.77-.28,.29-.97,4.91-4.52,3.64-.45,2.73-1.65-1.77-.95-.5-.42,.7-1.83,.02-1.47-4,1.69-2.4-2.4-5.1-1.67-5.07-5.42-.54-.37-.73,.69,.57,4.05-1.75,5.99-.09,.97-3.36,2.67-1.76-.4-1.6,3.42-.78,.63-.03,2.3Z"/><path d="M15.11,93.34l-.34-.16c-.07-.03-.16-.08-3-2.38l-.25-.21,1.21-4.44-.29-2.44-.54,.65-3.08-.04,.74-1.94-1.35-1.44,2.29-1.79,2.37-1.48,3.39-.04,1.85,1.21,1.29,.15,.95,1.98,.51,2.53-1.25,7.51-2.14,.46-1.19,.58-1.17,1.3Zm-2.45-3.11c.76,.62,1.75,1.42,2.26,1.82l.83-.87,1.45-.68,1.53-.33,1.11-6.65-.46-2.28-.64-1.31-.98-.11-1.79-1.18-2.8,.03-2.09,1.3-1.38,1.09,1.03,1.1-.45,1.18h1.17l1.72-2.06,.59,4.95-1.09,4Z"/><path d="M24.82,83.89l-1.53-1.85-1.37-2.53,2.35-2.72,2.64-.36,3.71-1.96,3.84,.79-.73,4.2-3.58,.56-2.19,.95-1.58,2.54-1.55,.38Zm-1.69-4.24l.99,1.84,1.07,1.28,.55-.14,1.53-2.46,2.65-1.13,2.94-.46,.44-2.54-2.54-.52-3.63,1.88-2.35,.32-1.65,1.92Z"/><path d="M53.27,55.31l-2.61-2.05,2.02-5.38,2.03,2.5-.82,3.34-.62,1.59Zm-1.42-2.38l.98,.77,.11-.28,.68-2.79-.62-.76-1.15,3.06Z"/></svg>