<svg xmlns="http://www.w3.org/2000/svg" data-name="Layer 1" viewBox="0 0 100 98.75" x="0px" y="0px"><title>Artboard 4icono</title><path d="M79.63,86.88,73,80.52l-2.94-.31L65.31,83l-26-11.73-3.22-4.41,1.31-3.56-1.14-3.91L25.82,48.57l.55-1.63-7-7.88-2.83-7.8L13.42,29.4,13.69,34,21,44.78l5.58,11.87-2.57,2.29L17.31,51l-.18-4.22L9.48,41.09l3.34-1,0-1.36L9.12,34.38,5.48,24.67h7.87l9.17,5.21h8.25V28.15l5.94.88L44.44,38,47,35l4.68.85,6.48,11L62.94,48v2.8l-1.77,8.1L66.87,71l5.73,2L78,70.42l1.49.66,1.3-1.17,1.83-6.4L89,60.42l6.24.22-2,9.31-4.49,4.49H83.34l-.25,2.09,3,3.27-5.66.84Zm-9.84-8.15,3.89.41,4.9,4.73.6-4.49,4-.6L81.59,77l.47-4h6.09l3.78-3.77L93.49,62l-4.17-.14-5.48,2.66L82.08,70.7l-2.3,2.07L78,72l-5.36,2.5-6.85-2.35L59.67,59.07l1.83-8.42V49.13l-4.24-1L50.8,37.18l-3.23-.59-3.15,3.54L36,30.37l-3.76-.56v1.51H22.14L13,26.11H7.55l2.83,7.53,3.93,4.61-.08,3-1.58.46L18.54,46l.18,4.41,5.48,6.43.66-.59L19.79,45.5,12.28,34.43l-.45-7.66,5.87,3.52,2.92,8L28,46.6l-.53,1.6L37.52,58.62l1.38,4.71L37.69,66.6l2.54,3.49,25,11.27Z"/></svg>