<svg xmlns="http://www.w3.org/2000/svg" xmlns:xlink="http://www.w3.org/1999/xlink" version="1.0" x="0px" y="0px" viewBox="0 0 100 125" enable-background="new 0 0 100 100" xml:space="preserve"><path d="M16.1005859,61.2714844l1.6279297-0.3134766l2.4267578,2.4272461  c0.0947266,0.0947266,0.2216797,0.1464844,0.3535156,0.1464844c0.0302734,0,0.0605469-0.0029297,0.0908203-0.0083008  l2.7607422-0.5083008c0.2578125-0.0473633,0.4355469-0.2866211,0.40625-0.5473633l-0.0732422-0.6538086  c-0.0087891-0.0791016-0.0371094-0.1552734-0.0810547-0.2216797l-0.4794922-0.7104492l-1.8886719-2.1064453  c-0.0751953-0.0839844-0.1767578-0.1401367-0.2880859-0.1586914l-3.4140625-0.5810547  c-0.0634766-0.0112305-0.1269531-0.0097656-0.1884766,0.0039062l-2.0332031,0.4360352  c-0.2304688,0.0493164-0.3955078,0.2529297-0.3955078,0.4887695v0.6538086c0,0.0776367,0.0185547,0.1542969,0.0527344,0.2236328  l0.5810547,1.1621094C15.6591797,61.2041016,15.8740234,61.3139648,16.1005859,61.2714844z M15.9248047,59.3686523  l1.5439453-0.3310547l3.1484375,0.5356445l1.7275391,1.9199219l0.3681641,0.5527344l0.0078125,0.0703125l-2.0439453,0.3764648  l-2.4287109-2.4291992c-0.0947266-0.0947266-0.2226562-0.1464844-0.3535156-0.1464844  c-0.03125,0-0.0634766,0.0029297-0.0947266,0.0087891l-1.5166016,0.2919922L15.9248047,59.5V59.3686523z"/><path d="M93.2802734,9.5991211l-2.7753906-0.7827148l-1.6572266-0.9282227L87.7988281,6.284668l-1.8886719-2.3969727  c-0.0927734-0.1181641-0.2353516-0.1884766-0.3857422-0.1904297l-5.2851562-0.0703125l-4.3759766,0.4335938L69.8349609,3.987793  c-0.0429688-0.0043945-0.0751953,0.003418-0.1123047,0.0117188l-3.9951172,0.871582  c-0.0332031,0.0068359-0.0654297,0.0175781-0.0966797,0.0317383l-7.3359375,3.2685547  c-0.0498047,0.0219727-0.0957031,0.0522461-0.1357422,0.0893555l-1.8886719,1.7431641  c-0.0419922,0.0380859-0.0771484,0.0834961-0.1035156,0.1337891l-2.0458984,3.8803711l-6.4189453,4.1708984l-3.4345703,1.4145508  l-0.7880859-0.6186523c-0.0351562-0.027832-0.0732422-0.050293-0.1142578-0.0678711l-1.3798828-0.5810547  c-0.2314453-0.0957031-0.4970703-0.0092773-0.6240234,0.2055664l-1.40625,2.375L38.9853516,23.09375l-3.4609375,12.4941406  l-1.9863281,4.4213867l-2.5830078,3.6635742l-3.8583984,4.4418945l-1.7509766,1.4091797l-1.0175781,0.5805664  c-0.0634766,0.0366211-0.1191406,0.0869141-0.1611328,0.1474609l-1.5703125,2.2573242l-1.2001953,2.6245117l-0.7988281,1.2348633  c-0.1103516,0.1713867-0.1064453,0.3925781,0.0107422,0.5595703l3.5800781,5.0834961l0.3408203,1.2929688  c0.0087891,0.0332031,0.0205078,0.0654297,0.0361328,0.0961914l0.0888672,0.1777344l-3.0742188,0.1162109  c-0.1953125,0.0073242-0.3671875,0.1269531-0.4423828,0.3066406c-0.0751953,0.1791992-0.0400391,0.3862305,0.0917969,0.5302734  l1.5253906,1.6704102c0.0253906,0.0273438,0.0537109,0.0522461,0.0849609,0.0737305l1.9589844,1.3486328l1.2363281,0.5849609  l0.2646484,0.4716797l-0.8359375,0.2387695L24.34375,68.8613281l-5.0253906-4.5302734  c-0.0507812-0.0449219-0.109375-0.0795898-0.1728516-0.1015625l-2.9785156-1.0170898  c-0.0458984-0.0161133-0.0947266-0.0249023-0.1435547-0.0263672l-4.2128906-0.1455078  c-0.0527344-0.0063477-0.0986328,0.003418-0.1464844,0.0166016l-1.0898438,0.2910156  c-0.0800781,0.0209961-0.1533203,0.0620117-0.2138672,0.1186523l-1.234375,1.1621094  c-0.1787109,0.168457-0.2089844,0.4418945-0.0712891,0.6450195l1.4404297,2.1064453L11.8027344,68.6875  c0.078125,0.078125,0.1796875,0.128418,0.2890625,0.1425781l2.1435547,0.2768555l2.5957031,1.6132812  c0.1064453,0.0664062,0.2353516,0.090332,0.3603516,0.065918l3.8720703-0.7607422l2.5927734,1.637207  c0.0302734,0.0195312,0.0634766,0.0351562,0.0976562,0.0473633l0.2868652,0.1033936l-0.7556152,0.194458l-1.9208984-1.2592773  c-0.1386719-0.090332-0.3134766-0.1064453-0.4638672-0.0444336l-2.6875,1.1020508l-3.3486328-0.7514648l-2.6347656-1.2817383  c-0.0615234-0.0302734-0.1298828-0.046875-0.1982422-0.0498047l-3.5595703-0.1455078  c-0.0449219-0.0048828-0.0849609,0.0019531-0.1269531,0.0107422l-1.6708984,0.3632812  c-0.2519531,0.0546875-0.4208984,0.2919922-0.3896484,0.5478516l0.3632812,3.0507812  c0.0039062,0.0371094,0.0126953,0.0737305,0.0253906,0.1088867l0.3632812,1.0170898  c0.0185547,0.0522461,0.0458984,0.1010742,0.0800781,0.1445312l0.5810547,0.7265625  c0.0771484,0.0961914,0.1865234,0.1606445,0.3085938,0.1806641l0.8720703,0.1450195  c0.1142578,0.0185547,0.2294922-0.0019531,0.3300781-0.059082l0.9736328-0.559082l1.2988281-0.5844727l1.9433594,0.4536133  l1.3544922,0.7744141l0.4423828,0.6943359c0.0263672,0.0415039,0.0585938,0.0791016,0.0966797,0.1108398l1.0166016,0.871582  c0.0664062,0.0571289,0.1455078,0.0952148,0.2314453,0.1118164l1.5253906,0.2905273  c0.03125,0.0058594,0.0625,0.0087891,0.09375,0.0087891c0.0556641,0,0.1113281-0.0092773,0.1650391-0.027832l3.1230469-1.0893555  c0.03125-0.0112305,0.0615234-0.0253906,0.0908203-0.0424805l3.0507812-1.815918  c0.0625-0.0371094,0.1162109-0.0874023,0.1572266-0.1474609l0.9443359-1.3803711  c0.0253906-0.0380859,0.046875-0.0800781,0.0615234-0.1240234l0.2335205-0.7008667l1.0574951,0.6730347  c0.0537109,0.0336914,0.1123047,0.0576172,0.1748047,0.0693359l1.5253906,0.2910156  c0.1005859,0.0195312,0.203125,0.0073242,0.296875-0.034668l0.6533203-0.2910156  c0.1972656-0.0874023,0.3154297-0.2915039,0.2939453-0.5063477l-0.1894531-1.9038086l1.0087891-0.784668l0.8994141-0.2368164  l0.3222656,0.5976562c0.0283203,0.0522461,0.0664062,0.0996094,0.1113281,0.1391602l1.1621094,1.0170898  c0.0820312,0.0712891,0.1845703,0.1142578,0.2929688,0.1220703l1.0166016,0.0727539  c0.1347656,0.0102539,0.2441406-0.0273438,0.3408203-0.1020508l2.5078125-1.9287109l0.2109375,0.1845703l0.3994141,0.6850586  l0.0029297,0.6396484l0.0722656,0.7260742c0.0146484,0.1542969,0.1005859,0.2924805,0.2324219,0.3745117l0.5810547,0.3632812  c0.0791016,0.0498047,0.1708984,0.0761719,0.2646484,0.0761719h2.1064453c0.1376953,0,0.2695312-0.0571289,0.3642578-0.1572266  l1.1181641-1.1933594l0.5214844-0.4345703l0.1298828,0.1303711L43.625,72.7172852l0.4365234,2.1787109  c0.0175781,0.0893555,0.0595703,0.171875,0.1210938,0.2392578l2.3242188,2.5424805  c0.0517578,0.0561523,0.1152344,0.1000977,0.1865234,0.1279297l2.0332031,0.7988281  c0.0761719,0.0297852,0.1582031,0.0410156,0.2382812,0.0317383l2.6152344-0.2905273  c0.0341797-0.0039062,0.0693359-0.0117188,0.1025391-0.0229492l0.8574219-0.2856445l0.3339844,0.2231445l0.5224609,1.1088867  c0.0205078,0.0444336,0.0478516,0.0859375,0.0810547,0.1225586l1.3798828,1.5253906  c0.0507812,0.0561523,0.1132812,0.0996094,0.1835938,0.1279297l2.9990234,1.2143555l0.8056641,0.5571289l0.4365234,0.7636719  l-0.1757812,1.0541992l-1.7402344,3.3540039l-0.2910156,0.9438477c-0.0419922,0.1357422-0.0244141,0.2827148,0.0488281,0.4047852  l0.0605469,0.1005859l-0.1728516,0.2768555l-2.0693359,2.140625c-0.0585938,0.0605469-0.1005859,0.1347656-0.1230469,0.2158203  l-0.21875,0.7993164c-0.0292969,0.1079102-0.0214844,0.2226562,0.0214844,0.3256836l1.0146484,2.4614258  c0.0449219,0.1132812,0.1308594,0.206543,0.2402344,0.2612305l1.1621094,0.5810547  c0.0302734,0.0151367,0.0625,0.0273438,0.0947266,0.0356445l1.1835938,0.3066406l2.0927734,0.144043l2.2519531,0.2177734  c0.015625,0.0014648,0.0322266,0.0024414,0.0478516,0.0024414c0.2236328,0,0.421875-0.1489258,0.4824219-0.3676758  l1.453125-5.3027344c0.0322266-0.1191406,0.0195312-0.2456055-0.0351562-0.355957l-0.7988281-1.5976562  c-0.0322266-0.0649414-0.078125-0.121582-0.1347656-0.1669922l-1.0898438-0.871582  c-0.0458984-0.0366211-0.0986328-0.0649414-0.1542969-0.0834961l-1.1386719-0.3798828l-0.3583984-0.5634766l-0.1044922-0.6269531  l0.0097656-0.0234375l1.2207031,0.1665039c0.1552734,0.0200195,0.3105469-0.03125,0.4208984-0.1420898l0.4560547-0.4628906  l3.8496094-2.9057617c0.0810547-0.0610352,0.1416016-0.1450195,0.1738281-0.2407227l0.2177734-0.6533203  c0.0693359-0.2080078-0.0048828-0.4370117-0.1835938-0.5649414l-0.5078125-0.3632812  c-0.0410156-0.0288086-0.0859375-0.0517578-0.1328125-0.0678711l-0.3857422-0.1279297l-0.0664062-0.3032227l0.0576172-0.6987305  l2.234375-4.4057617l0.6748047-1.9741211l0.2236328-1.4580078v-1.3803711c0-0.0732422-0.015625-0.1450195-0.046875-0.2114258  l-1.0380859-2.2192383l-0.9423828-1.6142578l0.0654297-1.230957c0.0078125-0.1416016-0.0449219-0.2797852-0.1455078-0.3798828  l-0.6748047-0.6748047l-1.9326172-3.5893555l0.0537109-1.0737305l1.0556641-0.762207l1.7490234-0.6303711  c0.0498047-0.0175781,0.0966797-0.0429688,0.1376953-0.0751953l0.5742188-0.4462891l0.8203125-0.21875l2.5380859,1.1357422  l1.1113281,0.902832c0.1396484,0.1137695,0.3330078,0.1430664,0.5009766,0.0761719l0.3632812-0.1455078  c0.0429688-0.0170898,0.0820312-0.0395508,0.1181641-0.0673828l1.0664062-0.815918l1.7519531,0.2602539  c0.0820312,0.0107422,0.1640625,0.0039062,0.2392578-0.0229492l4.9394531-1.7436523  c0.0917969-0.0322266,0.1708984-0.090332,0.2304688-0.1665039l0.7558594-0.9868164l0.5810547-0.9443359  C83,55.684082,83.0224609,55.6225586,83.0332031,55.5585938l0.0722656-0.4360352  c0.0234375-0.1425781-0.015625-0.2885742-0.1083984-0.4003906l-1.6279297-1.9677734v-0.4580078l0.2285156-0.628418  l0.3535156-0.4047852l1.0283203-0.3203125c0.0478516-0.0151367,0.09375-0.0371094,0.1347656-0.0654297l1.2011719-0.8286133  l2.7597656-2.324707c0.0517578-0.0439453,0.0947266-0.0976562,0.125-0.1586914l1.0166016-2.0336914  c0.0224609-0.0454102,0.0380859-0.09375,0.0458984-0.144043l0.3681641-2.2895508l0.1455078-1.7431641  c0.0078125-0.0878906-0.0087891-0.1757812-0.0458984-0.2553711l-0.6533203-1.3803711  c-0.0146484-0.0302734-0.0322266-0.0595703-0.0527344-0.0864258l-0.6542969-0.871582  c-0.1025391-0.1357422-0.2597656-0.2138672-0.4355469-0.1982422l-0.9423828,0.0727539l-1.7910156-0.1376953l-1.5361328-0.7680664  l-0.7441406-1.1152344l-0.1533203-0.7675781l0.3681641-0.4731445c0.0498047-0.0634766,0.0830078-0.1381836,0.0976562-0.2172852  l0.1455078-0.7988281c0.0126953-0.0703125,0.0097656-0.1425781-0.0068359-0.2114258l-0.1904297-0.7568359l0.0791016-0.3540039  l0.5029297-0.3657227l5.4150391,0.2817383c0.1445312,0.0112305,0.3017578-0.0551758,0.4023438-0.1699219l0.5087891-0.5805664  c0.0625-0.0708008,0.1025391-0.1577148,0.1181641-0.2509766l0.4902344-3.1210938l1.5615234-4.8549805l1.453125-2.6875  c0.0205078-0.0366211,0.0351562-0.0761719,0.0458984-0.1166992L93.0625,19.9091797l0.2900391-6.515625L93.6425781,10.125  C93.6640625,9.8852539,93.5117188,9.6645508,93.2802734,9.5991211z M24.8505859,72.9760742l-0.8427734,1.2319336  l-2.9121094,1.7333984l-2.9492188,1.0288086l-1.2626953-0.2407227l-0.859375-0.7363281l-0.46875-0.7363281  c-0.0439453-0.0683594-0.1035156-0.1254883-0.1738281-0.1655273l-1.5253906-0.871582  c-0.0419922-0.0239258-0.0869141-0.0419922-0.1347656-0.0527344l-2.1787109-0.5087891  c-0.1064453-0.0253906-0.2197266-0.0151367-0.3183594,0.0307617l-1.4960938,0.6757812l-0.8623047,0.4926758l-0.5078125-0.0844727  l-0.4091797-0.5117188l-0.3154297-0.8852539l-0.3037109-2.543457l1.1650391-0.2529297l3.390625,0.1381836l2.59375,1.2617188  c0.0351562,0.0170898,0.0712891,0.0297852,0.109375,0.0380859l3.5585938,0.7988281  c0.0996094,0.0229492,0.2041016,0.0141602,0.2988281-0.0253906l2.5898438-1.0620117l1.8857422,1.2358398  c0.1191406,0.0776367,0.2626953,0.0991211,0.3984375,0.0664062l1.6533203-0.4248047L24.8505859,72.9760742z M92.3554688,13.3271484  L92.078125,19.765625l-0.2744141,1.1015625l-1.4589844,2.715332l-1.6162109,5.0141602l-0.4853516,3.0537109l-0.2539062,0.2900391  l-5.3505859-0.2783203c-0.1181641-0.0048828-0.2275391,0.0273438-0.3203125,0.0952148l-0.7988281,0.5810547  c-0.0986328,0.0717773-0.1679688,0.1767578-0.1943359,0.2958984l-0.1455078,0.6538086  c-0.0166016,0.0756836-0.015625,0.1547852,0.0029297,0.2299805L81.375,34.284668l-0.1035156,0.5717773l-0.4335938,0.5571289  c-0.0888672,0.1147461-0.1240234,0.2626953-0.0957031,0.4052734l0.2177734,1.0893555  c0.0126953,0.0639648,0.0380859,0.125,0.0742188,0.1791992l0.8720703,1.3076172  c0.0478516,0.0722656,0.1142578,0.1308594,0.1923828,0.1699219l1.7431641,0.871582  c0.0576172,0.0288086,0.1210938,0.0463867,0.1855469,0.0512695l1.9628906,0.1450195l0.7441406-0.0532227l0.4599609,0.6132812  l0.5742188,1.2133789l-0.1289062,1.5708008l-0.3515625,2.1757812l-0.9365234,1.8730469l-2.6416016,2.2285156l-1.0996094,0.7563477  l-1.0908203,0.3398438c-0.0888672,0.027832-0.1669922,0.0791016-0.2285156,0.1484375l-0.5078125,0.5810547  c-0.0400391,0.0463867-0.0712891,0.1000977-0.0927734,0.1577148l-0.2910156,0.7988281  c-0.0205078,0.0551758-0.0302734,0.112793-0.0302734,0.1713867v0.7265625c0,0.1162109,0.0410156,0.2290039,0.1152344,0.3188477  l1.5976562,1.9306641L81.5625,56.1162109l-0.6357422,0.8266602l-4.6835938,1.6533203l-1.8378906-0.2729492  c-0.1328125-0.0180664-0.2695312,0.015625-0.3769531,0.0976562l-1.1796875,0.902832l-0.0273438,0.0102539l-0.9335938-0.7587891  c-0.0341797-0.0273438-0.0712891-0.050293-0.1113281-0.0683594l-2.7607422-1.2348633  c-0.1025391-0.0463867-0.2207031-0.0561523-0.3330078-0.0263672L67.59375,57.5361328  c-0.0644531,0.0170898-0.125,0.046875-0.1777344,0.0878906l-0.5917969,0.4599609l-1.7402344,0.6269531  c-0.0439453,0.015625-0.0859375,0.0375977-0.1240234,0.0649414l-1.3076172,0.9443359  c-0.1230469,0.0888672-0.1992188,0.2285156-0.2060547,0.3798828l-0.0732422,1.4526367  c-0.0048828,0.0913086,0.015625,0.1821289,0.0585938,0.2626953l2.0341797,3.7768555  c0.0234375,0.0424805,0.0527344,0.0820312,0.0869141,0.1162109l0.5693359,0.5688477l-0.0615234,1.1582031  c-0.0058594,0.097168,0.0175781,0.1943359,0.0673828,0.2783203l0.9960938,1.7026367l0.9707031,2.0791016l0.0048828,1.1904297  l-0.1962891,1.2944336l-0.6259766,1.8256836l-2.2519531,4.4306641c-0.0292969,0.0576172-0.0478516,0.1206055-0.0527344,0.1850586  l-0.0722656,0.871582c-0.0039062,0.050293-0.0009766,0.1005859,0.0097656,0.1494141l0.1445312,0.6538086  c0.0380859,0.171875,0.1630859,0.3110352,0.3300781,0.3666992l0.5830078,0.1938477l0.1464844,0.1044922l-0.0527344,0.15625  l-3.7773438,2.8574219l-0.3330078,0.3330078l-1.3525391-0.1845703c-0.2197266-0.0273438-0.4384766,0.0922852-0.5273438,0.2988281  l-0.2177734,0.5083008c-0.0371094,0.0878906-0.0488281,0.1845703-0.0332031,0.2792969l0.1455078,0.871582  c0.0107422,0.065918,0.0351562,0.1289062,0.0712891,0.1855469l0.5078125,0.7988281  c0.0615234,0.097168,0.1542969,0.1699219,0.2636719,0.2060547l1.2226562,0.4082031l0.9345703,0.7470703l0.6640625,1.328125  l-1.2910156,4.7124023l-1.8466797-0.1787109l-2.0117188-0.1293945l-1.0400391-0.277832l-0.9462891-0.4731445l-0.8828125-2.1416016  L55.75,92.5581055l2.0175781-2.0864258c0.0244141-0.0253906,0.0458984-0.0532227,0.0644531-0.0830078l0.3623047-0.5810547  c0.0996094-0.1591797,0.1015625-0.3608398,0.0048828-0.5214844l-0.1044922-0.1748047l0.1923828-0.644043l1.7431641-3.3413086  c0.0244141-0.046875,0.0410156-0.097168,0.0498047-0.1494141l0.2177734-1.3076172  c0.0185547-0.1132812-0.0019531-0.2299805-0.0585938-0.3300781l-0.5810547-1.0170898  c-0.0371094-0.0649414-0.0888672-0.1206055-0.1503906-0.1630859l-0.9443359-0.6533203  c-0.0302734-0.0209961-0.0625-0.0385742-0.0966797-0.0522461l-2.9443359-1.1918945l-1.2529297-1.3852539l-0.5498047-1.1674805  c-0.0380859-0.0825195-0.0986328-0.1523438-0.1748047-0.203125l-0.6533203-0.4360352  c-0.1279297-0.0849609-0.2871094-0.1083984-0.4355469-0.0581055l-1.0390625,0.3461914l-2.4404297,0.2709961l-1.8095703-0.7109375  l-2.1523438-2.3544922l-0.4013672-1.9887695L44.46875,70.9760742C44.4580078,70.859375,44.4072266,70.75,44.3242188,70.6674805  l-0.5810547-0.5810547c-0.1826172-0.1831055-0.4746094-0.1962891-0.6738281-0.0307617l-0.9160156,0.7680664l-1.0136719,1.0776367  h-1.7470703l-0.2519531-0.1577148l-0.0449219-1.1582031c0-0.0883789-0.0234375-0.1757812-0.0683594-0.2519531l-0.5087891-0.871582  c-0.0273438-0.046875-0.0615234-0.0888672-0.1025391-0.1245117l-0.5810547-0.5083008  c-0.1796875-0.1572266-0.4453125-0.1660156-0.6337891-0.0200195l-2.6826172,2.0629883L33.859375,70.824707l-0.9677734-0.847168  l-0.4658203-0.8647461c-0.109375-0.2026367-0.3457031-0.3061523-0.5673828-0.2460938l-1.3798828,0.3632812  c-0.0654297,0.0170898-0.1269531,0.0473633-0.1796875,0.0888672l-1.3076172,1.0170898  c-0.1357422,0.1054688-0.2080078,0.2734375-0.1904297,0.4443359l0.1816406,1.8193359l-0.1806641,0.0800781l-1.2773438-0.2436523  l-1.5175781-0.9643555c-0.03125-0.0200195-0.0644531-0.0361328-0.0996094-0.0483398l-1.7636719-0.6357422l-2.7148438-1.7138672  c-0.1074219-0.0683594-0.2363281-0.0917969-0.3632812-0.0678711l-3.8740234,0.7612305l-2.5205078-1.5668945  c-0.0605469-0.0375977-0.1289062-0.0620117-0.1992188-0.0712891l-2.0839844-0.269043l-1.125-1.1137695l-1.140625-1.6811523  l0.8320312-0.7832031l0.8955078-0.2392578l4.0644531,0.1401367l2.8105469,0.9599609l5.0810547,4.5800781  C23.890625,69.7993164,24,69.8442383,24.1142578,69.8505859l1.3798828,0.0727539  c0.0556641,0.0009766,0.1103516-0.0039062,0.1640625-0.0185547l1.5253906-0.4355469  c0.1464844-0.0419922,0.2666016-0.1494141,0.3242188-0.2905273c0.0585938-0.1416016,0.0488281-0.3022461-0.0263672-0.4355469  l-0.6533203-1.1625977c-0.0507812-0.090332-0.1279297-0.1625977-0.2216797-0.2070312l-1.3095703-0.6123047l-1.8417969-1.2753906  l-0.7597656-0.8325195l2.7714844-0.1049805c0.1699219-0.0063477,0.3251953-0.0986328,0.4121094-0.2446289  c0.0859375-0.1464844,0.0927734-0.3261719,0.0166016-0.4785156L25.4833984,63l-0.3505859-1.3300781  c-0.0146484-0.0576172-0.0400391-0.1118164-0.0742188-0.1606445l-3.4384766-4.8818359l0.6503906-1.0136719l1.1894531-2.609375  l1.4619141-2.0883789l0.984375-0.5678711l1.8798828-1.5146484l3.9541016-4.5439453l2.6621094-3.7861328l2.0595703-4.5756836  l3.4609375-12.4956055l0.9179688-2.0556641l1.1572266-1.949707L42.9150391,19.8125l0.9648438,0.7573242  c0.1425781,0.1118164,0.3320312,0.1391602,0.4990234,0.0693359l3.7861328-1.5683594l6.6103516-4.2851562  c0.0712891-0.0463867,0.1298828-0.1103516,0.1699219-0.1860352l2.0664062-3.9194336l1.7646484-1.6289062l7.2138672-3.2143555  l3.8896484-0.8486328L75.90625,5.0581055l4.375-0.4335938l4.9912109,0.0693359l1.7148438,2.1738281l1.0898438,1.6704102  c0.0439453,0.0673828,0.1044922,0.1235352,0.1748047,0.1625977l1.8164062,1.0170898  c0.0341797,0.0195312,0.0703125,0.034668,0.1083984,0.0454102l2.4335938,0.6860352L92.3554688,13.3271484z"/></svg>