<svg xmlns="http://www.w3.org/2000/svg" xmlns:xlink="http://www.w3.org/1999/xlink" viewBox="0 0 80 100" version="1.1" x="0px" y="0px"><title>peru, lima district, south, america, capital, country</title><desc>Created with Sketch.</desc><g stroke="none" stroke-width="1" fill="none" fill-rule="evenodd"><path d="M30.5912738,4.13024191 L29.2023437,2.1857398 C28.7761479,1.5890657 29.1157642,0.751800332 29.8371917,0.620631698 L33.1619506,0.0161300899 C33.5298067,-0.0507528499 33.9042468,0.0931594536 34.1326183,0.389196546 L38.1316809,5.57316664 L42.408245,8.81745664 C42.5462866,8.92217783 42.6547497,9.06096966 42.7230036,9.22022861 L43.779049,11.6843347 L49.0606628,10.8920926 L49.2090032,10.8810289 L52.8360129,10.8810289 C53.0040962,10.8810289 53.1694679,10.9233966 53.3168455,11.0042165 L58.0017329,13.5733484 C58.5138034,13.8541612 58.677285,14.5121797 58.356176,14.9999921 L56.3538651,18.0418006 L56.6141479,18.0418006 C56.9575233,18.0418006 57.276885,18.2179765 57.4600307,18.5084318 L59.4246609,21.6241874 C59.7918694,22.2065525 59.4744768,22.9771384 58.8036376,23.1319475 L56.8390074,23.5853237 C56.7522302,23.6053492 56.6631666,23.6136929 56.5741799,23.6101334 L52.9954616,23.4669847 L46.3565089,25.9205107 L44.5808445,27.1888424 L42.8713597,31.2653062 L43.5081688,33.1757336 C43.659467,33.6296281 43.4680607,34.1271011 43.0515428,34.3625243 L40.0442018,36.0623257 L39.8026321,39.5650869 L43.9930593,45.7784789 C44.1044665,45.943669 44.1639871,46.1383736 44.1639871,46.3376206 L44.1639871,47.4242148 L46.7692106,47.7640266 C47.1559208,47.8144671 47.4780283,48.0851182 47.5943514,48.457352 L48.1306893,50.1736334 L51.3005631,50.1736334 L54.9662535,47.4948597 C55.655209,46.9913922 56.6176524,47.5266177 56.5534342,48.3775085 L56.0059869,55.6311856 L56.5971643,55.8461592 L57.7540113,55.3834204 C57.8721315,55.3361723 57.9981825,55.3118971 58.1254019,55.3118971 L60.2411576,55.3118971 C60.5964061,55.3118971 60.9249861,55.5003677 61.1043452,55.8070138 L65.7892326,63.8166601 C65.9211824,64.0422516 65.9595735,64.3105352 65.8961875,64.564079 L64.2987537,70.9538144 L64.8296912,72.8120956 C64.9163629,73.1154466 64.8547994,73.4419094 64.6635989,73.6928599 L62.5892112,76.4154938 L63.2853899,78.1559405 C63.3914731,78.4211486 63.3790815,78.7190626 63.2513404,78.9745448 L62.4501608,80.576904 L62.4501608,82.2126806 L64.6672488,83.0295025 C65.3180651,83.269277 65.5331047,84.0826191 65.0858349,84.6127166 L61.4561618,88.9145514 L61.7139023,89.3655974 C61.9376367,89.7571326 61.8716365,90.2499726 61.5527659,90.5688431 L60.0321543,92.0894547 L60.0321543,93.6398714 C60.0321543,94.0263185 59.8094876,94.3781765 59.4602407,94.5436092 L56.588858,95.9037378 C56.2420216,96.0680288 55.8317586,96.0193318 55.5330193,95.778413 L50.8481318,92.000278 C50.7111324,91.8897946 50.6057183,91.7451113 50.5425386,91.580844 L49.9210585,89.9649957 L35.7093251,82.4141876 L31.5533765,79.9961811 C31.4694729,79.9473645 31.3931241,79.8865912 31.3267329,79.8157739 L25.6595303,73.7707578 C25.4507589,73.5480683 25.3551304,73.2422202 25.3998641,72.9402681 L25.9461513,69.2528289 L21.6396801,63.0802202 C21.5649647,62.9731281 21.5119468,62.8524395 21.48362,62.724969 L20.9593662,60.3658269 L18.837299,58.7742765 C18.6593983,58.640851 18.5310462,58.4519341 18.4725352,58.2373939 L17.5884351,54.9956934 L12.0823621,43.2394834 L9.88714296,40.4588726 L9.78480892,40.300581 L7.93140186,36.7363367 L1.32722863,32.0400357 C1.06343238,31.8524473 0.906752412,31.5487745 0.906752412,31.2250804 L0.906752412,29.8649518 C0.906752412,29.4345214 1.18218251,29.0523825 1.59052465,28.9162685 L1.80138667,28.8459811 L1.03517687,27.4838304 L0.958069114,27.3097969 L0.0513167019,24.5895397 C-0.00518457965,24.4200358 -0.0152395506,24.2384894 0.0221975859,24.0637828 L0.475573792,21.9480272 C0.513805183,21.769614 0.600122235,21.6050614 0.725176213,21.4721916 L3.14318264,18.9030597 C3.19839575,18.8443958 3.26049543,18.7926187 3.32813136,18.7488543 L5.89726319,17.0864749 C6.46125486,16.7215391 7.21749109,17.0054083 7.40203842,17.6513239 L8.00654002,19.7670795 C8.08054818,20.0261081 8.04691596,20.3040403 7.91325922,20.5379396 L7.34490586,21.532558 L7.76603615,21.6474146 L10.4862934,22.4030416 C10.7588404,22.4787491 10.9865749,22.6663423 11.1130767,22.9193459 L11.9805,24.6541926 L12.3090113,24.5884903 L13.8271001,22.0583422 L14.9998908,17.9535747 C15.0465781,17.7901692 15.1341393,17.6413578 15.254308,17.521189 L17.3700636,15.4054334 C17.4798385,15.2956586 17.6136642,15.2129497 17.7609427,15.1638569 L23.9255098,13.1090012 L27.5946309,10.0043603 L29.0862362,7.69915199 L29.6504363,5.44235183 C29.7512417,5.03913031 30.0909531,4.74029973 30.5037375,4.69173686 L30.7033592,4.66825195 L30.5912738,4.13024191 Z M31.7462758,2.30631458 L32.3410647,3.13901904 C32.4217304,3.25195114 32.4780063,3.38043747 32.5063116,3.51630298 L32.8841251,5.3298078 C33.0038639,5.90455414 32.6050514,6.45831673 32.0219859,6.52691266 L31.4232387,6.59735352 L30.9862197,8.34542952 C30.9595349,8.45216857 30.9154181,8.55377222 30.8556473,8.64614517 L29.1932679,11.215277 C29.1398905,11.2977694 29.0746469,11.3719447 28.99964,11.435412 L25.0703795,14.7601709 C24.973262,14.8423473 24.861356,14.9052375 24.7406651,14.9454679 L18.6173519,16.9865722 L16.8517513,18.7521728 L15.7139355,22.7345282 C15.6898978,22.8186602 15.6549221,22.8992734 15.6099045,22.9743028 L13.7963997,25.9968109 C13.6514431,26.2384052 13.4112966,26.4076411 13.1350229,26.4628958 L11.6237689,26.7651466 C11.181575,26.8535854 10.734897,26.6351224 10.5332255,26.2317795 L9.5229168,24.211162 L7.23527488,23.5756963 L5.57289546,23.1223201 C4.94209338,22.9502832 4.64337377,22.2291102 4.96776972,21.6614173 L5.96775524,19.9114427 L5.84998288,19.4992394 L4.51645952,20.3621074 L2.37273708,22.6398125 L2.03498496,24.2159891 L2.82520143,26.5866385 L4.13845657,28.9213143 C4.44648374,29.4689182 4.17915884,30.1615755 3.58310879,30.3602589 L2.90675241,30.585711 L2.90675241,30.7091304 L9.28691928,35.2461379 C9.41604943,35.3379638 9.52151069,35.4591605 9.5946123,35.5997405 L11.5155679,39.293886 L13.7237895,42.0909666 C13.7714055,42.1512802 13.8119107,42.2168811 13.8445033,42.2864708 L19.4361432,54.2253775 L19.4953104,54.3864003 L20.3117852,57.3801412 L22.4553055,58.9877814 C22.6462745,59.1310081 22.7797088,59.337824 22.8314925,59.5708509 L23.3930925,62.0980508 L27.8136961,68.4342493 C27.9596754,68.6434863 28.0201612,68.9006064 27.9827726,69.1529795 L27.4490828,72.7553855 L32.6857444,78.3411579 L36.6813739,80.6667235 L51.1894125,88.374119 C51.4022468,88.4871872 51.5670875,88.6733157 51.6536028,88.8982556 L52.3127798,90.6121157 L56.2999362,93.8275644 L58.0321543,93.00704 L58.0321543,91.6752412 C58.0321543,91.4100247 58.1375112,91.1556708 58.3250476,90.9681344 L59.5984672,89.6947148 L59.3729144,89.2999975 C59.1646529,88.9355398 59.2061721,88.47981 59.4768661,88.1589876 L62.6374577,84.4131013 L61.1044554,83.848311 C60.7113266,83.703474 60.4501608,83.3289284 60.4501608,82.9099678 L60.4501608,80.340836 C60.4501608,80.1855909 60.4863059,80.0324779 60.5557336,79.8936224 L61.2616575,78.4817745 L60.5216841,76.6318408 C60.3910686,76.3053022 60.441588,75.9341546 60.6547291,75.6544069 L62.7689252,72.8795245 L62.3021416,71.2457822 C62.2539479,71.077104 62.2509756,70.8987156 62.2935231,70.7285255 L63.8570247,64.4745191 L59.6675665,57.3118971 L58.3179843,57.3118971 L56.9855386,57.8448754 C56.7572984,57.9361715 56.503427,57.9402002 56.2724048,57.8561921 L54.6100254,57.2516905 C54.1887331,57.0984933 53.9208677,56.68365 53.9546044,56.2366394 L54.395956,50.3887297 L52.2170262,51.9810246 C52.0457602,52.1061805 51.8391324,52.1736334 51.6270096,52.1736334 L47.3954984,52.1736334 C46.9581134,52.1736334 46.5714794,51.8893836 46.4410184,51.4719084 L45.8761997,49.6644884 L43.034648,49.2938512 C42.5365802,49.2288859 42.1639871,48.8045376 42.1639871,48.3022508 L42.1639871,46.6433175 L37.9522784,40.39837 C37.8277159,40.2136738 37.7683928,39.9926728 37.7837202,39.7704262 L38.085971,35.3877895 C38.1090896,35.0525688 38.2990201,34.7513684 38.591544,34.5860288 L41.3503139,33.0267241 L40.8551752,31.5413082 C40.7785775,31.3115151 40.78799,31.0617305 40.8816641,30.8383537 L42.8462944,26.1534662 C42.9181001,25.9822373 43.0361601,25.8343812 43.1872506,25.7264595 L45.3030062,24.2152054 C45.3753324,24.1635438 45.4542234,24.1217554 45.5375942,24.0909444 L52.4893627,21.5218126 C52.6129451,21.4761408 52.7443345,21.4553403 52.8759809,21.4606061 L56.5200376,21.6063684 L56.9818349,21.4997998 L56.062498,20.0418006 L54.4983923,20.0418006 C53.7023399,20.0418006 53.225422,19.1568925 53.6631166,18.4919693 L56.0896148,14.8057571 L52.5798164,12.8810289 L49.283586,12.8810289 L43.3123276,13.7767177 C42.862597,13.8441773 42.4239816,13.5996928 42.2448421,13.1817006 L40.9888529,10.2510591 L36.8168354,7.08608034 C36.746431,7.0326701 36.6834169,6.97016311 36.6294396,6.90019252 L32.920846,2.09275636 L31.7462758,2.30631458 Z" fill="#000000"/></g></svg>