<svg xmlns="http://www.w3.org/2000/svg" xmlns:xlink="http://www.w3.org/1999/xlink" version="1.1" x="0px" y="0px" viewBox="0 0 100 125" style="enable-background:new 0 0 100 100;" xml:space="preserve"><g><path d="M25.84,91.03l-3.17-4.04l2.35-5l-2.4-3.67l3.69-4.96l0.31-5.63l4.75-6.45l0.38-2.14l-4.21-1.83l-0.28-3.83l1.09-3.38   l-0.81-2.8l-0.97,0.32l-1.62-2.88l0.91-3.27l5.23-2.3l1.97,1.74l0.56-1.14l-1.98-1.88l1.04-6.34l1.7-1.72l1.15-2.79l-1.3-4.2   l7.22-7.73l6.25-0.91l6.65-0.35l4.48-1.04l4.71-4.67l1.99,3.91l1.63,5.84l2.03,5.48l6.18,3.27l-3.88,3.09l2.91,7.37l0.81,8.15   l0.34,7.24l-0.01,0.07l-0.72,7.05l2.84-1.42l-3.12,12.77l-1.25,1.65l-5.39,7.93l-4.55-0.11l-6.64,0.58L46.06,82.3l-1.79,4.79   l-6.34-0.43l-6.37,2.66L25.84,91.03z M25,86.73l1.57,2l4.37-1.31l6.66-2.78l5.32,0.36l1.7-4.53l11.88-1.41l6.78-0.59l3.58,0.09   l4.81-7.07l1.02-1.36l2-8.17l-2.23,1.11l1.08-10.6l-0.33-7.04l-0.8-7.96l-3.34-8.35L71.72,27l-4.15-2.2l-2.32-6.27l-1.63-5.82   l-0.62-1.2l-3.17,3.14l-5.29,1.21l-6.64,0.35L42.42,17l-5.95,6.37l1.17,3.77l-1.57,3.82l-1.53,1.55l-0.76,4.66l2.28,2.16   l-2.36,4.81l-2.97-2.64l-3.19,1.4l-0.44,1.56l0.4,0.72l1.38-0.46l1.55,5.39l-1.16,3.58l0.17,2.23L34,57.93l-0.74,4.15l-4.68,6.35   l-0.31,5.63l-3.22,4.33l2.25,3.44L25,86.73z"/></g></svg>