<svg xmlns="http://www.w3.org/2000/svg" xmlns:xlink="http://www.w3.org/1999/xlink" version="1.1" x="0px" y="0px" viewBox="0 0 100 150" enable-background="new 0 0 100 100" xml:space="preserve"><g display="none"><path display="inline" opacity="0.3" fill-rule="evenodd" clip-rule="evenodd" d="M55.511,22.217l1.216,0.668l0.154,0.356   l0.867,0.153L58,24.873l-0.203,1.117l2.089-0.256l2.8,1.126l1.326,1.425l1.427-0.664l1.579,1.632l1.935-0.053l0.968,0.51   l1.223-1.275l3.21-0.097l1.219,0.66l1.939-0.202l2.036,1.116l3.312-0.303l2.344,1.425l0.889,0.299l0.083,0.761l-1.122,0.748   l0.374,2.247l-0.181,1.746l-0.721,1.333l-2.665,1.601c0,0-1.069,1.464-1.201,1.517s-2.238,0.906-2.238,0.906l-2.723-0.132   l-1.759,1.253l-1.597,0.85l0.748,0.642l-0.348,1.653l-0.985,0.616l-0.163-0.158l0.25-0.225L71.1,46.422l-2.034,3.475l-1.442,0.695   l-2.727,4.547l-0.802,1.016l1.176,2.032l0.319,1.39l1.073,0.585l1.761,2.41l-1.548,1.495l-2.353,0.59l0.053,1.653l-2.245,3.157   l-0.269,2.085l0.589,0.589l-0.589,0.906l-2.405,0.105l-4.277,2.031v1.447l-1.658,2.67l-1.498-0.69l-1.335-1.179l-0.694,1.231   l-1.124,0.963l-1.176-0.91l-1.229-0.053l-0.482,0.585l-1.924-0.211l-2.894-0.801l-1.172,0.638l-2.531,0.321l-2.214,2.207   l-2.612,0.326l-0.987,0.879l-0.053,1.144l-2.078,1.122l-2.293-0.374l-2.344-2.322l-1.361-3.25l0.295-0.453l-2.878-2.771   l-2.08-0.242L17.9,75.148l-0.059-1.657l-1.021-1.632l1.632-3.061l1.735-1.43l0.205-1.324l-1.533-0.105l-1.018-2.04l2.243-2.243   l-0.101-2.858l-1.634-1.021l-1.836-3.465l1.735-0.41l1.225,0.207l1.836-2.551l-1.225-1.227l1.531-1.53l0.205-4.49l-0.306-1.839   l2.652-2.551h1.02l0.409-1.425l-1.429-2.04l-0.205-1.733l-3.367-0.409l-1.326,1.324l-3.877-0.813l-2.346,1.227l-0.611-1.021   l0.202-1.53l-1.189-0.325l-3.136,0.492l-0.035-0.396l1.658-1.442l-1.177-0.216l0.803-0.857l-0.534-0.536l0.321-1.496l-1.124,1.074   l-0.534-0.221l0.374-1.975l-0.587-0.268l0.053-0.801L6.62,26.856l-0.642-1.5l0.75-1.548l2.671-0.963l0.908,0.426l2.248-0.264   l1.068-0.805l-0.855-0.585l-0.161-0.968l2.568-1.442l0.372,0.483l1.071-0.747l1.764,0.369l1.498,1.874l1.282-1.068h1.445   l1.656,0.694l1.818-0.747l2.248-0.643l0.479,0.643l1.818,1.016l5.024,0.8l2.3,0.537l3.422-1.442l2.566,0.211l0.482,1.125   l2.511,0.48l1.284-1.285h1.229l3.743,2.195l0.695-1.021l1.016-0.105L55.511,22.217L55.511,22.217z M89.623,53.16l2.292,0.206   l1.117,0.611l0.356-0.712l-1.425-1.479l-2.036,0.405L89.623,53.16L89.623,53.16z M85.546,57.9l0.611-1.838l1.579-1.425   l-1.425-0.102l-1.632-0.251L83.303,55.2L83,56.423l1.425,0.458L85.546,57.9L85.546,57.9z M76.939,62.584l0.814-1.121l0.765-0.766   l-0.563-0.914l-1.83,0.562l-0.207,1.271L76.939,62.584z"/></g><g display="none"><path display="inline" d="M26.718,48.902l1.126-0.097c0.053,0.448,0.178,0.818,0.372,1.108c0.196,0.29,0.499,0.527,0.91,0.703   c0.409,0.177,0.871,0.269,1.383,0.269c0.458,0,0.857-0.065,1.205-0.202c0.352-0.137,0.611-0.321,0.781-0.559   c0.171-0.237,0.257-0.492,0.257-0.773c0-0.282-0.081-0.528-0.248-0.739c-0.165-0.211-0.436-0.387-0.812-0.532   c-0.244-0.092-0.776-0.242-1.607-0.444c-0.829-0.193-1.41-0.387-1.742-0.562c-0.431-0.22-0.752-0.501-0.965-0.84   c-0.209-0.335-0.314-0.708-0.314-1.122c0-0.457,0.128-0.879,0.385-1.275c0.26-0.4,0.638-0.699,1.135-0.906   c0.497-0.201,1.047-0.308,1.656-0.308c0.671,0,1.258,0.11,1.772,0.325c0.51,0.212,0.904,0.533,1.179,0.95   c0.272,0.418,0.42,0.894,0.444,1.425l-1.146,0.084c-0.063-0.567-0.272-1.003-0.627-1.293c-0.356-0.295-0.879-0.436-1.572-0.436   c-0.724,0-1.249,0.132-1.581,0.396c-0.33,0.264-0.497,0.584-0.497,0.958c0,0.325,0.119,0.59,0.352,0.801   c0.23,0.211,0.831,0.422,1.801,0.642c0.972,0.221,1.638,0.414,1.999,0.576c0.525,0.242,0.915,0.55,1.165,0.92   c0.251,0.369,0.374,0.8,0.374,1.283c0,0.484-0.137,0.933-0.414,1.359c-0.275,0.422-0.668,0.752-1.185,0.989   c-0.515,0.237-1.093,0.353-1.737,0.353c-0.816,0-1.502-0.115-2.054-0.356c-0.554-0.233-0.985-0.594-1.302-1.073   C26.898,50.046,26.734,49.51,26.718,48.902L26.718,48.902z M35.534,51.805v-9.028h3.406c0.6,0,1.056,0.03,1.372,0.083   c0.444,0.08,0.816,0.221,1.117,0.428c0.297,0.206,0.539,0.496,0.721,0.865c0.183,0.379,0.275,0.788,0.275,1.236   c0,0.766-0.244,1.42-0.732,1.948c-0.49,0.528-1.372,0.801-2.647,0.801h-2.317v3.667H35.534L35.534,51.805z M36.728,47.068h2.335   c0.772,0,1.319-0.145,1.645-0.431c0.323-0.286,0.483-0.69,0.483-1.214c0-0.374-0.094-0.699-0.286-0.972   c-0.191-0.265-0.44-0.44-0.754-0.528c-0.202-0.053-0.571-0.079-1.112-0.079h-2.311V47.068L36.728,47.068z M42.019,51.805h1.271   l0.989-2.735h3.773l1.053,2.735h1.361l-3.694-9.028h-1.286L42.019,51.805L42.019,51.805z M44.622,48.098l0.992-2.647   c0.211-0.571,0.372-1.147,0.488-1.729c0.138,0.493,0.354,1.117,0.638,1.874l0.945,2.502H44.622L44.622,48.098z M51.625,51.805   v-9.028h1.194v9.028H51.625L51.625,51.805z M54.911,51.805v-9.028h1.227l4.741,7.085v-7.085h1.146v9.028H60.8l-4.741-7.094v7.094   H54.911z"/></g><g><path fill="none" stroke="#000000" stroke-linecap="round" stroke-linejoin="round" stroke-miterlimit="10" d="M6.333,26.667   c-0.641,0.078-1.507-0.887-1.308-1.808c1.5-0.16,2.599-1.867,4.142-1.821c0.787,0.024,1.038,0.569,1.825,0.628   c1.244,0.093,1.577-0.55,2.495-1.119c-1.623-0.28-0.815-1.833-0.458-2.855c0.775-0.092,1.632-0.335,2.276-0.67   c0.232,0.896,1.342,0.005,2.362,0.149c1.135,0.161,2.129,0.699,2.358,1.983c1.254-0.794,2.063-0.766,3.188-0.524   c0.435,0.094,0.547,0.555,1.121,0.536c0.898-0.029,1.055-0.895,1.824-1.214c1.708-0.71,2.174,0.481,3.375,0.856   c0.471,0.147,1.307,0.021,1.8,0.067c0.589,0.055,1.145,0.371,1.804,0.32c0.281,0.892,1.343,0.886,2.021,0.95   c0.743,0.07,2.286,0.274,3.174,0.225c0.712-0.04,0.662-0.172,1.321-0.371c0.496-0.149,1.125-0.39,1.5-0.487   c1.573-0.408,1.996,0.344,3.333,0.18c-0.08,0.328,0.111,0.794,0.039,1.116c0.902,0.091,1.979,0.211,2.811-0.184   c0.941-0.447,1.06-1.633,2.533-0.998c1.275,0.55,2.275,2.678,3.771,2.682c-0.238-2.497,3.328-1.537,3.217-0.333   c1.753-0.294,0.909,1.274,0.647,2.142c0.021-0.138-0.08-0.256-0.073-0.393c1.318,0.663,3.362,0.266,4.607,0.782   c1.286,0.534,1.871,3.978,2.952,1.007c1.072,1.08,1.73,1.656,3.342,1.82c1.261,0.129,3.105-1.163,3.756-0.35   c0.356-1.425,3.884,0.193,4.231,1.129c0.679-0.563,1.985-0.625,2.846-0.454c1.383,0.273,1.745,0.399,3.157,0.343   c1.242-0.05,5.147,1.674,2.564,2.632c1.783,0.424,0.891,3.074,0.289,4.043c-0.807,1.297-2.588,2.333-3.679,3.315   c-1.274,1.147-2.578,1.448-4.505,1.67c-1.353,0.156-2.314,1.193-3.801,1.362c-0.256,0.636-0.18,0.597-0.836,0.834   c0.82,1.564,0.398,2.25-0.859,3.575c-0.007-0.358-0.167-0.622-0.062-1.077c-1.172,0.575-2.871,2.081-2.625,3.619   c-1.592-0.088-2.017,1.905-2.63,3.021c-0.673,1.227-2.172,2.602-2.499,3.988c0.153,0.051,0.306,0.007,0.463,0.041   c-0.062,1.431,1.475,2.114,2.153,2.843c0.907,0.973,0.866,2.556,2.02,3.092c-1.243,0.575-2.024,1.793-3.491,1.228   c-1.234,1.087,0.084,2.937-1.931,3.477c0.252,1.197-1.132,2.348-0.866,3.974c1.792,0.928-1.53,1.681-2.021,1.826   c-1.556,0.46-2.943,1.507-4.658,1.737c0.22,1.773-1.259,2.806-2.017,4.282c-0.586-0.5-0.78-1.235-1.646-1.345   c-0.277-0.521-0.847-0.766-1.479-0.8c-0.452,1.885-2.492,1.223-3.875,1.32c-1.445,0.102-2.505-0.559-4-0.492   c-0.741,0.033-1.208,0.381-1.83,0.5c-0.294,0.057-0.547,0.459-0.829,0.521c-0.352,0.077-0.589-0.466-1.004-0.397   c-0.344,0.057-1.579,0.602-1.85,0.837c-0.503,0.437-0.049,1.186-1.127,1.235c-0.342,0.621-5.302,1.382-3.341,2.805   c-1.443,1.424-5.648,2.498-6.045-0.641c-0.245,0.004-0.54-0.067-0.783-0.051c-0.043-1.035-1.011-0.665-0.879-1.595   c-0.962-0.445-0.977-1.976-1.439-2.75c-0.187-0.313-0.702-0.414-0.919-0.752c-0.195-0.303-0.121-0.971-0.326-1.211   c-1.49-1.738-3.945-0.25-4.104-3.143c0.156-0.061,0.295,0,0.455-0.053c-0.267-0.261-0.246-0.498-0.785-0.658   c-0.701-1.869,1.442-2.912,1.663-4.621c1.397,0.594,1.751-1.235,1.617-2.352c-1.064,0.755-1.737,1.172-2.441-0.212   c-0.494-0.969-0.278-2.661,1.146-1.979c0.537-0.811,1.408-1.133,1.532-2.154c0.122-1.008-0.57-1.619-0.057-2.859   c-0.672-0.214-1.594,0.083-2.167-0.431c-0.389-0.35-0.59-1.787-0.78-2.256c-0.282-0.696-1.259-0.562-0.508-1.629   c0.385-0.547,1.797-0.481,2.125,0.036c1.212-0.576,2.478-2.115,1.984-3.499c-1.975,0.227-0.144-1.143-0.004-1.514   c0.355-0.945,0.312-2.392,0.408-3.391c0.098-1.021-0.162-2.462,0.143-3.438c0.433-1.39,1.679-1.606,2.474-2.536   c0.135,0.166,0.521,0.349,0.667,0.541c1.518-0.926,0.163-4.837-1.033-5.483c-0.512-0.277-0.948-0.043-1.463-0.167   c-0.174-0.042-1.057-0.318-1.2-0.333c-1.503-0.153-2.07-0.104-2.967,1.287c-2.15-1.013-3.385-1.366-5.458-0.017   c-0.738-0.81,0.046-2.055-0.913-2.771c-0.762-0.569-2.75,0.08-3.601,0.271c-0.056-0.161-0.107-0.295-0.17-0.433   c1.652-0.741,1.442-4.159,1.153-4.257c-1.06-0.36-0.662,0.947-1.378,1.015c-1.534,0.145-0.498-0.553-0.667-1.3L6.333,26.667z"/><path fill="none" stroke="#000000" stroke-linecap="round" stroke-linejoin="round" stroke-miterlimit="10" d="M76.167,61.167   c0.189,0.115-0.32-0.503-0.488-0.796c1.154-1.037,1.314-0.262,2.629-0.683c0.22,1.116-1.199,3.006-1.503,1.334   c-0.243,0.089-0.631,0.274-0.138-0.188"/><path fill="none" stroke="#000000" stroke-linecap="round" stroke-linejoin="round" stroke-miterlimit="10" d="M85.5,57.501   c-0.08-0.038-0.717-0.244-1.129-0.363c-0.176-0.05-1.097-0.248-1.204-0.3c-0.646-0.314-1.294,0.087-0.837-1.011   c0.152-0.366,0.977-0.702,1.303-0.805c0.104,0.176,0.286,0.365,0.363,0.504c0.403-0.445,0.801-0.902,1.337-1.208   c0.176,0.195,0.228,0.239,0.363,0.486c0.566-0.07,0.818,0.21,1.279,0.396c0.013,0.067-0.091,0.71-0.113,0.772   c0.097,0.018,0.193,0.038,0.289,0.061c-0.502,0.639-1.471,1.194-2.162,1.634c0.014-0.389,0.018-0.777,0.012-1.166"/><path fill="none" stroke="#000000" stroke-linecap="round" stroke-linejoin="round" stroke-miterlimit="10" d="M93,53.667   c-0.463-0.179-1.015-0.212-1.454-0.309c-0.747,0.63-1.681,0.142-2.195-0.479c0.461-0.493,2.651-1.254,3.316-1.048   c1.477,0.456,0.549,1.609,0.333,2.336"/></g></svg>