<svg xmlns="http://www.w3.org/2000/svg" viewBox="0 0 100 125" x="0px" y="0px"><path d="M46.23,93.54l-.19-.53c-.07-.2-.17-.39-.26-.58-.19-.37-.38-.76-.44-1.23-.01-.1-.02-.21-.02-.32q.02-1.18-.56-1.51c-.13-.08-.29-.16-.46-.27-.39-.24-2.43-1.07-2.97-1.11-.23-.02-.92-.07-7.95-8.94l-.63,1.24-2.46,.28-.2-6.19,2.48-7.72,1-2.83,4.25-5.86-.78-4.3-1.81-4.16-.19-3.58-4.18-4.47-.58-3.23,2.15-2.2,.68-3.35,.75-1.6-1.39-.2-.56-2.62-4.2-4.88-1.2-3.93,2.87-8.05,4.9-.77,.68-1.46,1.84-.21,2.22-2.1,3.58-.21,1.34,1.27,.6,1.7v1.59l.76,.69,1.62-.15,1.43,1.11,.41,4.44-.35,4-.78,2.69,.71,.4,1.82-1.81,2.13-1.59,2.79,.65,2.72-.37,3.05-2.53,4.12,1.71,3.56,4.42-.18,3.44,.35,2.04,4.11,4.2,.68,2.07-.84,5.38-4.39,1.67-5.15-.14-3.71,.2c-2.04,1.91-4.2,4.08-4.56,4.68,.4,1.41,2.11,5.69,2.13,5.74l.14,.34-2.73,2.27-.32-.3c-1.3-1.2-2.9-2.58-3.22-2.72l-3.95-.4c-.54-.06-.72-.69-1.15-2.22-.23-.81-.65-2.29-.95-2.59-.94-.05-2.17,0-2.51,.13-.28,.49-.73,1.45-.78,1.64l.05,1.32c.05,1.56,.1,3.17,.2,4.74,.05,.79-.25,1.42-.51,1.98l-.05,.1c-.76,1.61-3.72,7.3-4.32,8.46l1.71,4.59,.8-.23,2.08,2.24,.56,2.84c.36,.53,1.88,2.86,2.13,4.13,.22,1.09,.8,3.26,1,3.71,.62,.46,1.98,1.2,2.36,1.26,1.48-.42,4.84,2.76,4.99,2.89,.93,.88-.26,3.71-.28,3.74-.09,.21-.3,.48-.77,.61-.71,.21-1.76,0-2.04-.18-.26-.17-1.6,.21-2.65,.74l-.5,.25Zm-4.74-6.53c.82,.11,2.89,.97,3.34,1.25,.16,.1,.31,.18,.43,.25,.96,.55,1.09,.84,1.06,2.4,0,.06,0,.12,0,.17,.04,.3,.18,.58,.34,.9,.03,.06,.06,.12,.09,.18,.84-.37,2.43-.96,3.19-.45,.26,.11,1.2,.16,1.33,0,.37-.84,.69-2.33,.49-2.61-1.36-1.28-3.52-2.79-4.02-2.65-.81,.3-3.29-1.47-3.32-1.49-.45-.35-1.28-4.21-1.29-4.25-.2-.98-1.54-3.11-2.04-3.85l-.08-.18-.53-2.66-1.47-1.58-1.1,.32-2.18-5.88,.1-.2c.04-.07,3.58-6.89,4.41-8.62l.05-.1c.24-.51,.45-.95,.42-1.49-.1-1.59-.15-3.21-.2-4.78l-.05-1.4c-.02-.45,.95-2.17,.96-2.19,.27-.45,1.43-.63,3.44-.53,.82,.04,1.21,1.28,1.79,3.31,.15,.53,.35,1.24,.48,1.52l3.84,.4c.17,.02,.55,.06,3.39,2.66l1.5-1.24c-.44-1.1-1.79-4.54-2.07-5.66-.08-.31-.2-.78,5.01-5.64l.13-.12,4.11-.22,4.99,.13,3.66-1.4,.72-4.57-.53-1.62-4.16-4.25-.42-2.46,.17-3.17-3.17-3.93-3.32-1.38-2.81,2.33-3.18,.43-2.52-.59-1.71,1.26-2.3,2.29-2.07-1.16,.99-3.35,.33-3.81-.37-3.92-.78-.61-1.67,.15-1.41-1.28v-1.95l-.46-1.23-.86-.81-2.79,.16-2.2,2.08-1.61,.19-.66,1.43-4.84,.76-2.56,7.18,1.07,3.51,4.2,4.82,.47,2.19,2.03,.29-1.29,2.77-.69,3.47-2,2.05,.43,2.43,4.23,4.52,.2,3.85,1.79,4.07,.87,4.78-4.45,6.15-.9,2.62-2.43,7.55,.16,4.93,.85-.1,1.1-2.14,.48,.61c2.8,3.55,7.03,8.68,7.8,9.18Zm5.91-1.5h0Zm.1-.02h0Z"/></svg>