<svg xmlns="http://www.w3.org/2000/svg" xmlns:xlink="http://www.w3.org/1999/xlink" viewBox="0 0 96 120" version="1.1" x="0px" y="0px"><title>venezuela, caracas, south, america, capital, country</title><desc>Created with Sketch.</desc><g stroke="none" stroke-width="1" fill="none" fill-rule="evenodd"><path d="M22.3161575,5.63870043 L21.4591842,3.06778056 C21.3279688,2.67413434 21.4534842,2.2403509 21.7746297,1.9775955 L23.9154165,0.226042701 C24.4069751,-0.176141629 25.1440504,-0.0241511094 25.4364088,0.539682836 L27.8147872,5.12655544 L29.9964304,4.69022678 C30.2094772,4.64761743 30.4306053,4.67555245 30.6263622,4.76980578 L35.8810206,7.29982649 C36.1086637,7.40943244 36.2863802,7.6011451 36.3784477,7.83642881 L37.8434977,11.5804454 L48.5467957,10.1291507 C48.7856958,10.0967575 49.0282562,10.1517614 49.2298159,10.2840349 L55.2539942,14.2374019 L60.1822502,14.7472215 L63.5434108,11.3860609 C63.7156989,11.2137728 63.9449616,11.1103137 64.1881393,11.0951151 L79.7574975,10.1220302 C80.5362661,10.0733572 81.0682597,10.8956117 80.7046919,11.5860232 L79.8848161,13.142959 C79.7642605,13.3718929 79.5596642,13.5451893 79.3140155,13.6264365 L76.6416811,14.5102986 L77.5920337,15.7639752 L79.8198758,15.7639752 C79.9620214,15.7639752 80.1025337,15.7942794 80.2320436,15.8528672 L88.4059567,19.5505898 C88.6893499,19.6787915 88.896952,19.9315622 88.96763,20.2344681 L90.1496358,25.300207 L93.6376812,25.300207 C93.9795815,25.300207 94.2977847,25.4748834 94.4813426,25.7633315 L95.8436615,27.9041183 C96.1372329,28.3654448 96.0058198,28.9770283 95.5486564,29.2770417 L90.0485922,32.8864589 L91.4275474,35.7975865 C91.6330077,36.2313361 91.501334,36.7498852 91.1138261,37.033064 L86.4637681,40.4311833 L86.4637681,43.0372671 C86.4637681,43.3635809 86.3045571,43.6693703 86.0372305,43.856499 L84.9588617,44.6113571 L90.1409904,51.1753868 C90.5059048,51.6376117 90.394371,52.313513 89.9002988,52.6339923 L82.6994706,57.3047998 C82.5891393,57.3763661 82.4657753,57.4254671 82.3364419,57.4492917 L75.5866106,58.6926817 L75.1503746,60.5830376 C75.0207743,61.1446392 74.4445095,61.4807138 73.8918951,61.3169762 L68.6525261,59.7644385 L63.5295122,58.3347603 L65.585082,60.670635 C65.7145269,60.8177315 65.7979054,60.9996154 65.8248608,61.1936946 L66.6983848,67.4830671 L70.2679124,68.1320721 C70.743403,68.218525 71.0890269,68.6326559 71.0890269,69.115942 L71.0890269,70.8674948 C71.0890269,71.2596383 70.8598241,71.6155912 70.5028299,71.7778613 L66.4540349,73.6182227 L64.2720497,76.5275362 C64.1930773,76.6328328 64.0940948,76.7215034 63.980779,76.7884628 L55.417632,81.8485042 C54.8692235,82.1725637 54.1616559,81.9081148 53.9602194,81.3038054 L53.5759661,80.1510455 L51.7256759,81.2612196 C51.5702605,81.3544689 51.3924241,81.4037267 51.2111801,81.4037267 L48.6811594,81.4037267 C48.3800308,81.4037267 48.0949349,81.2680294 47.9050454,81.0343193 L45.3750247,77.9204477 C45.2973055,77.8247933 45.2379384,77.715596 45.1999159,77.5983598 L42.9457934,70.6481489 L38.4692029,66.5446076 C38.0411946,66.1522666 38.0361838,65.4791094 38.458304,65.0804403 L41.4214659,62.2818984 L38.2505003,55.9399672 C38.1810726,55.8011118 38.1449275,55.6479987 38.1449275,55.4927536 L38.1449275,49.0703934 C38.1449275,48.9004491 38.188238,48.7333084 38.2707703,48.5847504 L40.7664857,44.0924626 L39.4990589,43.1418925 L35.6688261,44.0123999 L35.5607516,44.0307998 L28.7491574,44.8092677 C28.4047999,44.8486228 28.0646196,44.7068579 27.8501191,44.4346072 L23.0459384,38.3369933 L18.6503594,37.8095238 L10.1469979,37.8095238 C9.8937056,37.8095238 9.64985037,37.7134051 9.46467968,37.5405791 L6.54542502,34.8159414 C6.29660543,34.5837098 6.18298849,34.2408675 6.24387336,33.9060007 L6.97130707,29.9051153 L4.37019255,23.3156252 L0.858578644,22.8139661 C0.13936807,22.7112217 -0.233708185,21.9000716 0.156338512,21.2871411 L2.75886105,17.1974628 L3.31561177,12.5578734 C3.33345076,12.4092152 3.3844436,12.2664601 3.46482713,12.1401431 L6.18946481,7.85856964 C6.35413016,7.5998098 6.62843422,7.43092678 6.93362257,7.40040794 L8.37472061,7.25629814 L10.0635316,4.38531942 C10.167313,4.208891 10.3227356,4.06855934 10.5088111,3.98327472 L15.1796186,1.84248797 C16.3045712,1.32688467 17.1792194,2.91169935 16.143317,3.58865685 L12.7761396,5.7890919 L14.3292518,9.18996696 L19.8308072,6.52254614 L19.9342606,6.47936991 L22.3161575,5.63870043 Z M24.228147,2.55429412 L23.57448,3.08911261 L24.5242527,5.93843062 C24.696738,6.45588663 24.4227403,7.01611314 23.9083895,7.19764872 L20.6528395,8.34666636 L14.280994,11.436046 C13.7759184,11.6809311 13.1682621,11.4622308 12.9350869,10.9516435 L11.0060641,6.72763075 L9.84123028,8.70784828 C9.67948,8.98282376 9.39623796,9.16412153 9.07879979,9.19586535 L7.61598958,9.34214637 L5.27426525,13.0219989 L4.71751452,17.6615883 C4.69967554,17.8102465 4.6486827,17.9530016 4.56829917,18.0793186 L2.67578939,21.0532625 L5.22837788,21.417918 C5.58408392,21.4687331 5.88518243,21.70648 6.01711174,22.040701 L8.9363664,29.4361461 C9.00483311,29.6095951 9.02343843,29.7987327 8.99008109,29.9821981 L8.30930631,33.7264593 L10.5411611,35.8095238 L18.7101449,35.8095238 L18.8292901,35.816647 L23.6947146,36.4004979 C23.957582,36.432042 24.1972126,36.566541 24.361061,36.7745025 L29.0760341,42.7588915 L35.2791161,42.0499678 L39.5071574,41.0890493 C39.793461,41.0239803 40.0938947,41.0880194 40.3287785,41.2641822 L42.6641822,43.015735 C43.0639726,43.3155778 43.1810337,43.8645283 42.9383395,44.3013779 L40.1449275,49.3295194 L40.1449275,55.2566856 L43.5424603,62.0517512 C43.7396674,62.4461653 43.6552464,62.9231987 43.3346567,63.225978 L40.6128997,65.7965262 L44.4914596,69.3518728 C44.6187654,69.4685697 44.7136794,69.616247 44.7669578,69.7805222 L47.0448362,76.8039806 L49.1571299,79.4037267 L50.9341962,79.4037267 L53.615939,77.794681 C54.1645184,77.4655334 54.876812,77.729028 55.0791181,78.3359461 L55.4660703,79.4968029 L62.7916741,75.1680371 L65.0074534,72.2136646 C65.1081132,72.0794516 65.2409217,71.9727203 65.3936505,71.9032981 L69.0890269,70.2235816 L69.0890269,69.9505184 L65.628568,69.321344 C65.2036709,69.24409 64.8763718,68.9027995 64.8169611,68.4750425 L63.8852019,61.7663759 L59.8020815,57.1264664 C59.1446848,56.3794247 59.8631087,55.2351579 60.821594,55.5026422 L69.2054134,57.8424441 L73.4406657,59.0973337 L73.7854432,57.6032978 C73.8750604,57.2149564 74.1867188,56.9169061 74.5786719,56.8447042 L81.7782112,55.5184732 L87.89119,51.5532978 L82.7327156,45.0192302 C82.3764814,44.5680003 82.4731587,43.9100381 82.944136,43.580354 L84.4637681,42.5166115 L84.4637681,39.9233954 C84.4637681,39.6042636 84.6160873,39.3042974 84.8737515,39.1160043 L89.2660034,35.9062818 L87.8685189,32.9560367 C87.6549099,32.5050844 87.8064244,31.9656741 88.2236003,31.6919024 L93.6269415,28.1459597 L93.0887353,27.300207 L89.3561077,27.300207 C88.8913614,27.300207 88.4878706,26.9800257 88.3822665,26.5274367 L87.1320662,21.1694356 L79.6042062,17.7639752 L77.0952381,17.7639752 C76.7822868,17.7639752 76.4873824,17.6174679 76.2983288,17.3680742 L74.2030907,14.604099 C73.7888594,14.0576575 74.0349677,13.2659029 74.6859845,13.0505822 L76.951373,12.3013155 L64.6902641,13.0676348 L61.2599018,16.4979971 C61.0469718,16.7109271 60.749426,16.8165679 60.4498959,16.7855821 L54.8060035,16.2017311 C54.6468666,16.1852687 54.4940023,16.1308647 54.3602463,16.0430872 L48.4450612,12.161247 L37.3331214,13.6679507 C36.8759151,13.7299448 36.4356453,13.4710842 36.267515,13.041418 L34.659207,8.93129759 L30.0603758,6.71704552 L27.4694081,7.23523906 C27.0325638,7.32260792 26.5906066,7.11046622 26.3855374,6.71497555 L24.228147,2.55429412 Z" fill="#000000"/></g></svg>