<svg xmlns="http://www.w3.org/2000/svg" xmlns:xlink="http://www.w3.org/1999/xlink" version="1.1" x="0px" y="0px" viewBox="0 0 100 125" enable-background="new 0 0 100 100" xml:space="preserve"><g display="none"><path display="inline" opacity="0.3" fill-rule="evenodd" clip-rule="evenodd" d="M21.517,11.622l0.387-0.328l0.456-0.08   l0.283-0.558l0.608-0.527l1.174-0.471l0.722,0.09l-0.069,0.853l0.5,0.392l0.76-0.011l0.19-1.063l0.832-0.611l1.122,1.102   l0.583-0.782l0.639,0.04l0.262,0.803l1.24-0.603l0.2-0.822l1.364-0.4l1.081,0.621l1.861-0.613l-0.079-1.721l1.198-0.68h1.36   l0.76-0.76l1.198,0.96v0.72l1.243,0.242l0.479,0.718l2.518-0.04l0.438,0.561l1.481-0.601l0.96,0.76l-0.2,1.079l-0.798,0.121   l-0.563,2.039l0.643,0.242l0.317,1.158l2.241,0.801l0.321,0.797l1.078,0.48l1.115,0.559l1.143-0.342l0.48,0.38l0.68-0.201   l0.984,0.532l-0.086-0.021l0.21,0.438l-0.376,0.628l-0.587,0.252l-0.462-0.021l-0.96,0.608l-0.963-0.066l-1.005,0.19l-0.293,0.5   l0.231,0.798l-0.546,0.376l-0.207,0.376l-0.524-0.315l-0.839,0.19l-0.521,0.501l-0.376,0.148l-0.356-0.524l-0.376-0.125   l-0.083,0.773l-0.421,0.587l0.293,0.331l-0.145,0.839l0.042,0.881l-0.148,0.207l0.314,0.649l-0.293,0.504l-0.418,0.125   l-0.815,1.298l-0.714,0.021l-0.27-0.376l-0.042,0.46l-0.504,0.376l-0.311,0.97l-0.463,0.376l-0.042,1.009l0.418,0.086l0.421,0.542   l-0.546,1.847l-0.631,0.925l1.177,1.005l-0.128,0.59l-0.921,0.252l0.966,0.293l1.637,0.963l1.467,1.43l0.546-0.042l0.715,1.257   v0.632l-0.21,0.376l0.463,1.26l0.21,0.67l2.183,1.764l1.216,0.715l0.127,0.376l2.98,1.636l2.687,1.972l0.587,1.05l2.476,1.847   l0.798,1.43l0.169,0.881h0.338l-0.044,0.756l1.26,1.302v0.587l0.293,0.463l-0.252,0.459l0.966,1.174l0.252,2.027l0.421,0.335   l0.438,1.778l0.356,0.355l0.042,0.984l-0.187,0.628l0.353,0.942l-0.249,0.397l0.396,1.402l0.042,0.525l0.504,0.207l0.249,0.794   l0.649,1.278l-0.124,0.839l-0.252-0.021l-0.021-0.421l-0.355-0.417l-0.459,0.272l0.062,0.86l0.522,0.542l-0.104,0.5l-0.563,0.442   l-0.044,0.628l-0.877,0.67l0.773,1.17l-0.418,0.984l0.356,0.459l-0.733,0.691l-0.607,0.231l-0.169,1.36l-0.583,0.231l-1.257,1.274   l-0.818,0.442l-1.109,0.773l-0.124,0.943h-1.005l-0.649,0.732l-2.407,1.402l-1.443,0.148l-0.628-0.314l-1.046,0.269l-0.21-0.207   l0.148-0.694l-0.042-0.667l-0.252,0.649l-0.169,0.27l-0.939-0.252l0.625,0.504l-0.017,0.397l-0.29,0.201l-0.912-0.146l1.513,0.697   L52.32,85.53l0.418,0.877l-0.815,0.422l-1.202-0.888l1.016,1.095l-0.107,0.545l-0.459,0.607l-0.48-0.169l-0.442-0.648l-0.625,0.106   l0.29,0.815l-0.042,0.272l0.231,0.314l-0.438,0.314l-0.293,0.418l-0.566,0.042l-1.067,0.943l-0.46,0.335l-0.735-0.104l-0.249,0.607   l-0.149,1.171l-0.69,0.628l-0.273-0.024l0.062,0.252l-2.448,1.112l-1.319-0.19l0.839-0.521l1.004-0.442l0.542-0.628l-0.562,0.231   l-0.777-0.417l0.127-1.695l0.146-0.169l-0.335-0.083l0.211-0.732l-0.104-1.757l0.815-1.339l1.55-1.216l0.48-0.563l-0.794,0.356   l-1.174-0.169l-0.836,0.273l-0.524-0.335l-0.521,0.21l-1.067-0.293l0.166-0.273l-0.041-0.922l-0.263-0.193l1.033-1.263l1.198-0.201   l0.639-1.599l1.122-0.042l0.597,0.4l2.601-0.639L48.629,81l0.28,0.76l1.757-0.121l-0.518-1.157l0.2-0.763l-1.001-1.04l-1.24-0.359   l-0.238-1.958l1.119-0.801l2.041,0.08l0.56-1.081l1.599-1.039l1.519-0.439l0.242-0.721l0.881-0.359l0.797-1.641l-0.2-1.278   l0.363-1.481l-0.401-1.081l0.238-1.72l-0.96-2.237l-0.998-0.522l-0.659-1.712l0.179-0.007l1.04-0.639l-0.163-1.64l-0.397-0.759   l-0.241-1.44l1.561-1.24v-1.319l-0.839-0.121l-0.442-0.639l0.163-1.481l0.798-0.798l-0.359-0.842l-1.08,0.442l-0.56-0.162   l-0.68-0.918l-1.24-0.08l-0.438-0.559l0.201-0.922l-0.843-0.359l-0.48,0.159l-0.718-0.759l-0.159-0.96l-0.601-0.998h-1.36   l-0.718-0.363l-0.48-1.319l-1.72-1.92l0.08-0.839l-1.119-1.599l-1.603-0.722l-1.398-1.92l-1.119-0.117l-1.641-0.88l-1.719-0.121   l-0.801-1.439h-0.88l-0.238-0.718l0.798-0.881l-1.157-1.319l-0.163-0.921l0.842-0.038l1.599-0.56l1.063-0.18l0.604-0.604   l0.639-2.165l0.801-0.28v-0.763l-1.581-0.383l0.034-0.987l-0.204-1.119l-1.437-0.279l-0.801-0.998h-1.561l-1.24,0.76l-1.36-0.401   l-2.317-0.042l-1.16-1.878l-1.92-1.799l0.438-0.922l-0.2-1.198l-0.998-0.839l-0.918-1.402l-1.923-0.799L21.517,11.622   L21.517,11.622z M36.851,84.148l0.622,0.743l-0.238,0.583l0.459,0.918l0.625-0.3l0.238-1.682l-0.359-0.142l-0.321-0.76   L36.851,84.148z"/></g><g display="none"><path display="inline" d="M54.302,31.301l-2.656-6.862h0.983l1.786,4.987c0.134,0.391,0.256,0.771,0.357,1.117   c0.1-0.369,0.223-0.748,0.367-1.117l1.853-4.987h0.926l-2.689,6.862H54.302L54.302,31.301z M58.889,31.301v-6.862h0.904v6.862   H58.889L58.889,31.301z M61.411,31.301v-6.862h4.954v0.815h-4.05v2.096h3.793v0.804h-3.793v2.332h4.207v0.814H61.411L61.411,31.301   z M69.522,31.301v-6.047h-2.265v-0.815h5.435v0.815h-2.267v6.047H69.522L69.522,31.301z M73.618,31.301v-6.862h0.927l3.604,5.388   v-5.388h0.87v6.862h-0.938l-3.592-5.39v5.39H73.618L73.618,31.301z M79.789,31.301l2.633-6.862h0.981l2.801,6.862h-1.038   l-0.792-2.076h-2.868l-0.758,2.076H79.789L79.789,31.301z M81.764,28.478h2.333l-0.726-1.897c-0.213-0.568-0.381-1.048-0.48-1.416   c-0.089,0.434-0.212,0.87-0.369,1.305L81.764,28.478L81.764,28.478z M86.896,31.301v-6.862h1.373l1.618,4.853   c0.156,0.458,0.257,0.792,0.334,1.016c0.067-0.245,0.19-0.614,0.358-1.093l1.64-4.776h1.227v6.862h-0.882v-5.735l-1.985,5.735   h-0.827l-1.975-5.836v5.836H86.896z"/></g><g><path fill="none" stroke="#000000" stroke-width="0.75" stroke-linecap="round" stroke-linejoin="round" stroke-miterlimit="10" d="   M26.133,15.87c-0.2-0.657-1.263-0.708-1.799-1.196c-0.593-0.538-0.745-1.364-1.379-1.965c-0.542-0.514-1.252-0.604-1.604-1.333   c0.89-0.271,1.335-0.49,1.983-0.885c0.891-0.542,0.974-1.236,2.308-0.965c-0.217,1.315,1.52,1.545,1.55,0.166   c0.688-0.111,1.017,0.253,0.999,0.954c0.35-0.259,0.852-0.637,1.276-0.961c0.599,1.521,1.753-0.006,1.726-0.991   c1.078-0.138,2.376,0.35,3.307,0.141C35.168,8.682,35.203,8.468,35.715,8c0.569-0.519,0.389-0.791,1.21-1.333   C37.316,6.41,38.004,6.189,38.374,6c0.474-0.243,0.191-1.028,0.968-0.844c0.274,0.065,1.122,2.322,1.053,2.524   c1.042,0.394,1.02,0.94,2.276,0.954c0.994,0.011,1.588-0.797,2.479,0.566c0.529-0.412,1.886-1.675,2.195-0.375   c0.096,0.404-1.304,1.782-1.616,2.184c0.422,0.333,0.108,0.999-0.207,1.475c0.2-0.076,0.435-0.085,0.616-0.128   c0.34,2.181,1.184,1.182,2.825,2.024c1.435,0.736,2.188,1.299,4.012,1.146c0.016,0.202,0.038,0.414,0.051,0.616   c0.551-0.019,0.785,0.213,1.271,0.047c0.124,0.113,0.434,0.549,0.516,0.682c-0.385,1.046-1.198,0.628-1.979,0.963   c-0.567,0.244-1.206,0.828-1.841,0.687c-0.504,0.524-0.844,1.183-0.338,1.609c-1.358,0.604-2.113-0.732-2.987,1.187   c-0.213-0.306-0.75-0.539-0.966-0.763c-0.017,0.629-0.153,0.938-0.675,1.313c0.64,0.964,0.001,1.679-0.2,2.633   c-0.079,0.372,0.448,0.821,0.319,1.172c-0.149,0.406-1.208,1.036-1.519,1.444c-0.855-1.183-1.379,0.522-1.322,1.355   c-0.299,0.132-0.837,3.527-0.775,4.333c0.444,0.286,0.225,0.281,0.5,0.667c0.663,0.47,0.6,0.953-0.311,1.019   c0.872,0.473,1.805,0.562,2.616,1.167c0.832,0.621,1.109,1.81,2.141,1.867c-0.022,5.339,4.857,6.988,9.201,8.854   c2.867,1.231,2.793,2.539,4.195,4.955c1.065,1.836,1.453,4.144,3.283,5.54c-0.467,0.631-0.303,0.547,0.159,0.988   c-0.139,0.24-0.116,0.693-0.329,0.971c0.536,0.657,0.472,1.298,0.812,2.047c0.392,0.863,0.874,1.363,1.312,2.287   c-2.263,1.75,1.435,5.079,1.366,7.141c-0.612-0.051-1.043-0.521-1.487-0.785c-0.351,1,0.789,2.139,0.65,2.678   c-0.289,1.121-1.785,0.183-1.908,1.646c0.843,0.111,0.566,1.087,1.084,1.515c-0.138,0.553-0.412,1.079-0.789,1.518   c0.21,0.843-0.311,0.397-0.69,0.914c-0.213,0.289-0.414,0.865-0.705,1.17c-0.793,0.832-1.764,1.427-2.426,2.484   c0.043-0.014-0.368-0.093-0.378-0.093c-0.007,0.167-0.163,0.552-0.188,0.784c-1.653,0.208-2.671,1.784-4.171,2.162   c-1.042,0.262-4.304,1.113-3.322-0.768c-0.869-0.602-1.486-0.347-1.17,0.611c-0.262,0.053-0.397,0.154-0.619,0.224   c0.137,0.253,0.212,0.309,0.462,0.503c0.042,0.164-0.208,0.277-0.127,0.431c0.192,0.106,0.455,0.28,0.623,0.395   c-0.024,0.244-0.155,0.953-0.208,1.113c-0.257-0.052-0.651,0.098-0.913,0.049c0.496,2.139-2.142,0.279-1.721,2.446   c-1.144,0.499-1.654,1.777-3.113,1.72c-0.391,2.412-2.738,3.521-5.141,3.484c0.625-0.137,1.308-0.381,1.666-1.009   c0.042-0.074,0.144-1.812,0.139-1.841c-0.232-1.356-0.272-2.445-0.325-3.963c0.766-0.464,1.859-1.052,2.778-1.39   c-0.082-1.59-3.079-0.303-3.854-0.952c-0.277,0.138-0.441,0.092-0.758,0.129c-0.115-0.618-0.264-1.204-0.466-1.792   c0.932-0.416,1.554-1.668,2.107-2.203c0.136-0.132,0.275-0.775,0.489-0.996c0.227-0.235,1.292-0.429,1.649-0.642   c0.094,1.201,2.164,0.78,2.904,0.979c1.005,0.271,1.741,1.224,3.065,0.507c-0.308-0.106-0.502-0.374-0.77-0.513   c0.833-1.48-1.402-2.082-1.849-2.961c-0.957-1.881,1.105-3.506,2.495-2.001c1.451-0.903,0.689-1.999,2.521-2.483   c0.84-0.222,2.133,0.077,2.02-1.183c2.192-0.308,1.413-3.966,1.268-5.362c-0.125-1.209,0.107-2.659-0.63-3.712   c-0.581-0.829-2.025-0.982-1.978-2.429c2.749,0.527,1.02-3.675,0.529-4.985c0.235,0.627,1.923-2.735,2.004-2.991   c-0.396-0.16-0.932-0.311-1.363-0.242c-0.171-0.688,0.007-1.375,0.58-1.812c-0.092-0.145-0.466-0.744-0.634-0.97   c-1.286,0.226-1.172-0.493-2.004-1.021c-0.863-0.547-2.021-0.412-1.317-1.979c-2.166,0.208-1.929-0.842-3.012-2.335   c-0.544-0.066-1.044-0.248-1.61-0.216c-0.503-1.305-3.488-4.063-2.675-4.979c-0.408-0.36-0.33-0.871-0.688-1.33   c-0.55-0.705-0.515-0.434-1.128-0.871c-0.805-0.574-1.783-0.928-2.575-1.413c-1.213-0.744-2.037-0.907-3.296-1.374   c-0.953-0.354-1.574-1.562-2.642-1.368c-0.259-0.997,0.347-1.775,1.295-1.333c-0.547-0.609-1.367-1.175-1.814-1.941   c2.226,0.071,4.314-0.943,4.519-3.004c0.46-0.05,1.091-0.337,1.104-0.863c0.027-1.111-0.577-0.352-0.804-0.825   c-0.428-0.892-0.666-1.729-1.372-2.658c-0.863,0.184-1.185-1.075-2.121-1.317c-1.142-0.295-2.422,0.521-3.675,0.476   c-1.684-0.061-2.086-0.479-2.995-1.855c-0.524-0.793-1.226-2.367-2.292-1.655C25.455,17.01,26.361,16.62,26.133,15.87z"/><path fill="none" stroke="#000000" stroke-width="0.75" stroke-linecap="round" stroke-linejoin="round" stroke-miterlimit="10" d="   M38,86.333c1.259-0.423,0.885-3.518-0.833-3.661c-1.867-0.156-1.06,2.672-0.975,4.136c0.813,0.121,1.727,0.053,2.002-0.783   c0.086-0.009,0.402,0.017,0.454-0.006c0.071,0.368-0.152,0.443-0.315,0.814"/></g></svg>